<svg preserveAspectRatio="xMidYMid meet" width="122.628" height="98.1792" overflow="visible" style="display: block;" viewBox="0 0 122.628 98.1792" fill="none" xmlns="http://www.w3.org/2000/svg">
<g id="Group 16">
<path id="Vector" d="M122.622 70.8331C120.575 72.7998 118.128 74.0332 115.314 74.2175C113.155 74.3606 111.153 73.6214 109.449 72.2213C107.704 70.788 106.308 69.1134 105.7 66.878C105.638 66.6506 105.5 66.4427 105.436 66.3055C103.979 66.1035 102.612 65.9878 101.277 65.7133C98.6883 65.178 96.3157 64.1623 94.3607 62.3073C92.9234 60.9425 91.9293 59.3641 91.8175 57.3248C91.8116 57.2091 91.6959 57.0993 91.4195 57.0169C91.4881 57.5934 91.541 58.1719 91.6293 58.7464C91.8508 60.1955 92.1705 61.6347 92.3058 63.0916C92.6136 66.3957 93.4862 69.5507 94.8607 72.5449C95.4039 73.7273 96.3353 74.7293 97.1471 75.896C95.447 75.2293 94.2784 74.092 93.6489 72.4331C93.2509 71.3821 92.9215 70.2997 92.643 69.2114C92.0607 66.9329 91.6685 64.6211 91.4175 62.2779C91.241 60.6268 90.8998 58.9915 90.5881 57.3581C90.5586 57.2091 90.1959 57.1228 89.8821 56.9483C90.1606 59.4111 90.2998 61.7112 90.7096 63.9622C91.0802 65.9976 91.4136 68.0212 91.4449 70.0919C91.4744 72.1566 90.9959 74.1155 90.2155 76.0411C90.1449 74.2802 90.0508 72.5194 90.0076 70.7585C89.9586 68.6879 89.637 66.6682 89.241 64.6348C88.8664 62.7152 88.8154 60.7308 88.6233 58.7758C88.5782 58.3091 88.535 57.8424 88.4605 57.0738C87.3409 58.0248 86.4683 58.7895 85.5722 59.5249C82.4505 62.0798 79.2896 64.574 75.5444 66.2035C73.9973 66.878 72.3816 67.278 70.7286 67.4839C69.9188 67.5859 69.0579 67.48 68.2481 67.3231C66.799 67.0447 66.0637 66.0427 66.4343 64.6466C66.7108 63.6034 66.6559 62.6014 66.5716 61.5837C66.4265 59.8366 66.65 58.1601 67.3402 56.5463C68.3913 54.0874 70.2168 52.4383 72.7385 51.6579C76.8484 50.3873 81.0093 50.0187 85.1898 51.3854C85.882 51.6109 86.5526 51.905 87.3115 52.1972C87.6899 50.6991 87.1977 49.3814 86.8821 48.0912C86.5722 46.8225 85.9703 45.6264 85.4232 44.2106C85.7722 44.3557 86.0507 44.391 86.2036 44.5499C87.2193 45.6009 87.8056 46.9068 88.1742 48.2892C88.5154 49.5637 88.7056 50.8775 88.9802 52.1717C89.1174 52.8168 89.1723 53.4992 89.6566 54.1325C90.0802 53.6639 89.8782 53.2286 89.8292 52.8305C89.7449 52.1521 89.5861 51.4834 89.5174 50.805C89.341 49.0461 89.1645 47.2872 89.0547 45.5244C89.0155 44.8832 89.1664 44.2302 89.5096 43.5832C89.6116 44.2498 89.7469 44.9146 89.8116 45.5852C90.0292 47.8323 90.2057 50.0834 90.4371 52.3285C90.492 52.8521 90.6998 53.36 90.9214 54.1815C91.3195 53.4501 91.5822 52.9678 91.9097 52.3697C92.1744 52.3893 92.5411 52.4187 92.8273 52.4403C94.1744 50.9265 95.4549 49.4363 96.7902 47.997C98.4001 46.2636 100.139 44.6655 102.167 43.4224C104.543 41.9655 107.1 41.5831 109.789 42.3498C110.393 42.5223 110.999 42.8027 111.512 43.1635C113.338 44.4459 113.871 45.944 113.203 48.5049C112.108 52.6893 109.434 55.609 105.226 56.8365C103.941 57.2111 102.486 57.1581 101.126 57.0718C99.3766 56.9601 97.6412 56.6169 95.9 56.362C95.8333 56.3522 95.7843 56.2306 95.6961 56.1208C95.8118 56.0502 95.9176 55.9385 96.0333 55.9267C97.9863 55.7228 99.9413 55.5169 101.896 55.3384C104.479 55.1031 106.773 54.2384 108.589 52.3207C108.924 51.9677 109.198 51.556 109.575 51.0756C107.871 50.2148 106.271 49.2618 104.312 49.6461C103.5 49.8049 102.673 50.0128 101.924 50.354C99.5158 51.456 97.1432 52.6384 94.749 53.7737C94.1921 54.0384 93.8019 54.3914 93.5548 54.9894C93.296 55.613 92.8764 56.1679 92.4901 56.8189C92.8528 59.7935 94.8372 61.5877 97.3844 62.8897C99.3276 63.8819 101.394 64.474 103.604 64.478C104.088 64.478 104.573 64.5407 105.159 64.5819C105.308 64.2289 105.504 63.8956 105.591 63.5348C105.928 62.1249 106.824 61.2151 108.108 60.6484C109.357 60.0974 110.655 59.9327 111.975 60.3445C112.746 60.5857 113.454 60.9543 113.585 61.8779C113.708 62.7426 113.342 63.4328 112.675 63.9328C111.438 64.8584 110.038 65.4349 108.518 65.7251C108.142 65.7976 107.769 65.88 107.4 65.9564C107.8 68.6506 110.526 71.4272 113.642 72.2547C116.81 73.0959 119.732 72.1527 122.628 70.8291L122.622 70.8331ZM68.2893 65.1172C68.7168 65.3309 68.8893 65.4956 69.0521 65.4878C70.2737 65.4211 71.5168 65.4466 72.7071 65.2054C75.1425 64.7113 77.3229 63.5564 79.3759 62.1916C81.5427 60.7504 83.6525 59.2248 85.7977 57.7503C86.5487 57.2346 87.3311 56.7679 88.1095 56.2718C87.8017 55.209 87.0448 54.2345 87.3174 53.0227C85.6134 52.8893 84.0055 52.754 82.3956 52.6403C81.2701 52.5599 80.1387 52.4148 79.0191 52.4697C77.5033 52.5442 75.9797 52.6933 74.4915 52.9776C73.1012 53.2423 71.7012 53.6207 70.5717 54.5639C67.9834 56.7208 67.2344 59.6131 67.2422 62.9308C67.9383 62.423 68.5246 61.9838 69.1207 61.5602C69.4815 61.3053 69.8423 61.0426 70.2325 60.8406C71.2345 60.321 72.2286 59.7758 73.2698 59.3464C74.9895 58.6346 76.7268 57.9542 78.4877 57.3562C80.474 56.6816 82.4976 56.111 84.5075 55.5032C84.6447 55.462 84.7996 55.4757 84.9487 55.4757C84.9918 55.4757 85.0447 55.5071 85.0781 55.5404C85.0977 55.562 85.0879 55.611 85.0957 55.6816C84.9996 55.76 84.9036 55.8875 84.7761 55.9345C81.3838 57.2287 78.072 58.7091 74.8895 60.4504C73.0855 61.4367 71.3816 62.6093 69.6658 63.7485C69.1952 64.0603 68.8462 64.5544 68.2932 65.1152H68.2893V65.1172ZM110.446 49.6049C110.62 49.1324 110.81 48.6912 110.948 48.2363C111.663 45.8754 110.785 44.9871 108.536 44.242C108.31 44.1675 108.049 44.193 107.806 44.1655C105.363 43.8792 103.267 44.7538 101.347 46.144C98.6726 48.0794 96.2706 50.3246 94.0568 52.7697C93.894 52.9482 93.8235 53.2109 93.5607 53.7305C94.0293 53.4698 94.1901 53.3894 94.3411 53.2933C96.1667 52.1423 97.951 50.9246 99.8256 49.8618C101.096 49.1402 102.441 48.4637 103.839 48.0676C106.204 47.399 108.479 47.65 110.446 49.6049ZM111.961 62.2798C110.82 61.5014 109.814 61.77 108.83 62.1877C107.961 62.5563 107.332 63.1446 107.228 64.3329C109.008 63.9603 110.628 63.6368 111.961 62.2798Z" fill="#021436"/>
<path id="Vector_2" d="M37.8668 39.5751C37.3197 42.2027 36.7766 44.8322 36.2256 47.4597C36.1079 48.0244 35.9707 48.5852 35.8354 49.1813C36.6373 49.2735 37.3119 49.3931 37.4942 50.2677C39.7218 48.2205 42.2395 46.9048 45.0474 46.2499C49.0103 45.3244 52.8202 45.7342 56.387 47.8754C58.3871 49.0774 59.6714 51.6501 58.9243 54.3894C58.2184 56.9757 56.7458 58.8915 54.1497 59.768C52.5653 60.3033 50.9535 60.119 49.3652 59.6817C47.4024 59.1425 45.6396 58.1699 43.8905 57.1659C42.4846 56.36 41.114 55.4835 39.659 54.7756C38.6158 54.2678 37.506 53.8364 36.2942 53.8148C36.1177 53.8109 35.9452 53.556 35.7726 53.4187C35.9334 53.2677 36.0903 52.9893 36.253 52.9854C39.0119 52.9285 41.663 51.8971 44.4376 52.0638C45.6533 52.1383 46.8847 52.254 48.0671 52.5324C49.424 52.8501 50.5888 53.6109 51.5633 54.6286C52.0025 55.0874 52.4045 55.5698 52.4692 56.4365C48.6887 53.6148 44.5494 53.105 40.1237 53.8815C40.7728 54.0913 41.4199 54.309 42.0709 54.5109C42.7238 54.7149 43.3983 54.86 44.0356 55.107C45.3612 55.6227 46.6534 56.2286 47.9887 56.7188C49.0397 57.1051 50.1201 57.4404 51.2123 57.6797C53.3732 58.1503 54.9477 57.1659 56.0674 55.4208C56.5066 54.7364 56.8007 53.905 56.9576 53.103C57.1733 51.9932 56.8262 50.9834 56.0125 50.1363C54.9164 48.997 53.5399 48.3774 52.0731 47.9244C48.3318 46.7695 44.7003 47.2048 41.1924 48.8049C40.1335 49.2892 39.1708 49.9814 38.1531 50.5598C37.8531 50.7304 37.5099 50.8265 37.2001 50.9814C35.6785 51.7442 34.9922 52.9932 34.7765 54.6796C34.6294 55.8286 34.1647 56.9483 33.7569 58.0503C32.8431 60.519 32.5156 63.072 32.4019 65.6878C32.3078 67.88 32.0117 70.0644 31.5293 72.2821C31.4293 71.988 31.2627 71.6997 31.2391 71.3997C31.1254 69.8291 31.045 68.2565 30.9587 66.6839C30.9313 66.1976 30.9175 65.7113 30.8921 65.0583C30.2175 66.5388 29.6097 67.8682 29.0038 69.1996C28.9018 69.1663 28.7998 69.1349 28.6959 69.1016C28.7822 68.5447 28.8724 67.9898 28.9528 67.431C29.3175 64.9113 29.6136 62.3798 30.0607 59.8758C30.4901 57.4679 31.0764 55.0894 31.6117 52.6089C30.5646 52.5403 29.3646 52.4658 28.1626 52.3775C26.5507 52.2579 24.9076 52.2912 23.3389 51.9618C21.2153 51.5148 19.227 50.5637 17.4995 49.2539C16.1877 48.2578 15.3445 46.8813 15.3053 45.0989C15.2641 43.1655 16.1484 42.0242 17.8387 41.3693C22.4212 39.5987 26.537 40.7379 29.6646 44.5871C30.8097 45.995 31.9117 47.4381 33.1588 49.0264C33.6353 47.3872 34.0882 45.9008 34.4941 44.4028C35.0216 42.4576 35.2785 40.4654 35.3961 38.4555C35.451 37.4986 35.3765 36.6241 34.4451 35.9946C33.9118 35.6338 33.3647 35.1201 33.6314 34.1573C33.9412 34.3122 34.2137 34.3828 34.402 34.5515C36.1922 36.1535 38.2962 36.2731 40.5041 35.8515C41.1708 35.724 41.814 35.4809 42.4689 35.2907L42.4258 35.2593C42.3532 35.4809 42.3473 35.7809 42.1963 35.9142C40.6943 37.2241 39.0413 38.0653 36.9687 37.4398C36.8295 37.3986 36.6864 37.3712 36.5413 37.3496C36.5099 37.3457 36.4687 37.3947 36.4314 37.4182C36.3981 37.5065 36.3275 37.5986 36.3373 37.681C36.7217 40.9223 35.9138 44.0047 35.0863 47.0832C34.7687 48.2637 34.4 49.4323 34.0686 50.6088C34.0137 50.8069 34.0255 51.0245 34.2431 51.2991C34.349 51.0696 34.4902 50.8481 34.5569 50.6069C35.3275 47.7813 36.0687 44.9479 36.857 42.1282C37.1001 41.2556 37.1923 40.3007 37.9021 39.6144L37.8688 39.583V39.5751H37.8668ZM17.9995 42.3909C16.6249 43.3459 16.272 44.5302 16.6681 45.8636C16.9916 46.9558 17.6406 47.9342 18.625 48.5637C21.1015 50.1461 23.6977 51.3324 26.7723 51.0402C28.241 50.901 29.7077 51.1069 31.0999 51.6775C31.3882 51.7952 31.7058 51.8442 32.1294 51.9559C31.9744 51.2932 31.8568 50.7853 31.7254 50.2186C30.6685 49.8618 29.6136 49.4853 28.5469 49.148C26.3017 48.4382 24.0409 47.746 21.9741 46.5989C20.2643 45.6499 18.4858 44.7047 18.0014 42.389L17.9995 42.3909ZM31.8313 49.6461C32.2372 49.0931 31.945 48.7853 31.6195 48.4441C30.496 47.2734 29.4214 46.0577 28.2743 44.9106C26.3409 42.9792 23.982 42.036 21.2466 42.0576C20.6643 42.0615 20.0799 42.1066 19.7093 42.7047C20.5309 43.9302 21.6369 44.7518 22.8643 45.3793C25.5742 46.7656 28.3155 48.0892 31.0489 49.4265C31.294 49.5461 31.5842 49.5774 31.8313 49.6441V49.6461ZM34.1294 52.8168C33.2 52.8266 33.1686 52.8168 32.9431 53.4168C32.1333 55.5855 31.6764 57.8424 31.3489 60.1248C31.2823 60.5935 31.3744 61.0856 31.394 61.568C32.1941 58.6248 33.7667 55.9541 34.1294 52.8168ZM35.6569 50.6167C35.5922 50.7343 35.5275 50.8402 35.4804 50.952C35.4706 50.9755 35.5275 51.0265 35.555 51.0657C35.6589 50.9755 35.7628 50.8853 35.8648 50.7951C35.8079 50.7461 35.751 50.6971 35.6569 50.6147V50.6167ZM31.247 62.4896C31.2685 62.4896 31.2881 62.4896 31.3097 62.4877L31.296 62.1582C31.2744 62.1582 31.2548 62.1582 31.2332 62.1602L31.247 62.4896Z" fill="#021436"/>
<path id="Vector_3" d="M53.8534 24.4315C53.4005 24.5767 52.9318 24.6884 52.4965 24.8767C51.373 25.363 50.1965 25.5414 48.9866 25.5159C48.8435 25.512 48.7023 25.3394 48.5611 25.2453L48.5278 25.2826C48.6356 25.1669 48.7415 25.0492 48.8494 24.9335L48.8239 24.9727C49.8161 24.9531 50.5396 24.31 51.3475 23.8727C51.8593 23.5943 52.322 23.2276 52.9907 22.7766C51.7475 22.5864 50.7043 22.3903 49.6513 22.2746C41.7903 21.3981 34.0763 19.8 26.4996 17.549C25.0035 17.1039 23.5681 16.4391 22.125 15.8254C21.1681 15.4175 20.3994 14.6979 20.4151 13.6234C20.4328 12.4704 21.3112 11.7704 22.3152 11.3998C23.3662 11.0115 24.4643 10.7076 25.5702 10.5272C27.9957 10.1311 30.435 10.0664 32.9037 10.1232C36.5568 10.2095 40.1373 10.6742 43.6629 11.5664C49.1219 12.9469 54.3084 15.0116 59.085 18.0196C60.1987 18.7216 61.2105 19.5922 62.24 20.4216C62.6557 20.7569 63.0381 21.1726 62.8282 21.8589C60.9478 20.0863 58.7163 18.9098 56.4418 17.8137C51.2828 15.3273 45.8767 13.5881 40.2177 12.7155C38.2373 12.4096 36.2195 12.3292 34.2136 12.2174C32.7939 12.137 31.3606 12.0704 29.9487 12.1861C28.0957 12.339 26.2565 12.6547 24.4192 12.9469C23.9113 13.0273 23.4289 13.2802 22.6387 13.5586C23.2544 13.9292 23.5819 14.2136 23.9623 14.343C26.1467 15.0783 28.3173 15.8646 30.539 16.4666C35.696 17.8647 40.8746 19.1745 46.0493 20.5059C48.2278 21.0667 50.4141 21.602 52.6044 22.1197C53.3122 22.2864 53.9887 22.3197 54.7143 21.9197C55.7417 21.355 56.8712 21.0059 58.0869 20.9805C59.9929 20.9412 60.7262 21.453 61.3831 23.4825C60.8478 23.4962 60.6086 23.0766 60.2968 22.8335C59.6301 22.3158 58.9497 22.153 58.0987 22.3825C56.528 22.808 55.0574 23.3884 53.8181 24.4727L53.8574 24.4355L53.8534 24.4315Z" fill="#021436"/>
<path id="Vector_4" d="M104.908 20.4177C104.293 18.9902 103.098 18.7019 101.981 18.4254C99.9806 17.9293 97.9374 17.6744 95.8648 17.6999C94.1961 17.7195 92.5196 17.5882 90.8607 17.7078C83.8271 18.2117 76.9642 19.5372 70.4424 22.3158C69.2306 22.8315 68.0737 23.5001 66.9599 24.2099C66.354 24.5962 65.8187 25.1551 65.3893 25.7374C64.805 26.5316 65.0658 27.2179 65.9991 27.5826C66.3599 27.7238 66.7501 27.8257 67.1344 27.8669C68.6404 28.0297 70.1365 28.2218 71.664 27.9826C73.3111 27.7238 74.9818 27.6238 76.6348 27.3983C78.725 27.114 80.8074 26.7884 82.8899 26.4512C85.8409 25.9747 88.7901 25.4845 91.7372 24.9805C94.8726 24.4433 98.0139 23.9295 101.077 23.0373C101.712 22.853 102.361 22.7158 103.065 22.7471C102.689 22.9471 102.324 23.1766 101.932 23.3413C97.7688 25.1002 93.4686 26.4414 89.0587 27.3944C86.6174 27.9218 84.137 28.2669 81.6702 28.6767C79.4466 29.0473 77.2289 29.4905 74.9896 29.7238C72.3542 29.9984 69.6992 30.3023 67.0541 29.8238C66.2913 29.6866 65.5246 29.4356 64.8305 29.0944C63.248 28.3159 62.7147 26.6198 63.701 25.1433C64.3147 24.2256 65.1403 23.3648 66.0521 22.7491C67.3011 21.904 68.6776 21.2 70.0816 20.6392C73.8229 19.1451 77.7054 18.1391 81.6643 17.3744C86.1311 16.5116 90.6431 16.3136 95.1648 16.345C97.659 16.3626 100.161 16.6509 102.543 17.4881C103.32 17.7607 104.077 18.1529 104.759 18.6137C105.41 19.0529 105.404 19.4019 104.906 20.4157H104.908V20.4177Z" fill="#021436"/>
<path id="Vector_5" d="M87.4277 59.6836C87.3179 59.9091 87.261 60.1934 87.0884 60.364C82.5393 64.8759 80.7333 70.6428 79.6215 76.7155C78.9294 80.4902 78.0705 84.2158 76.5744 87.761C75.441 90.4493 73.9998 92.9494 71.9272 95.0573C70.435 96.575 68.6702 97.5966 66.6192 98.0574C65.8309 98.2339 64.9485 98.2045 64.1465 98.0594C62.168 97.7025 61.5915 96.1456 62.1876 94.3808C62.6484 93.0161 63.6877 92.0945 64.7387 91.1984C65.0505 90.9337 65.425 90.7395 65.8721 90.6552C65.3505 91.3435 64.7779 91.9984 64.323 92.7278C63.9367 93.3455 63.621 94.0259 63.3838 94.7142C63.0661 95.6299 63.4328 96.2221 64.3367 96.5103C65.5034 96.8829 66.5721 96.4691 67.6133 96.0593C69.7604 95.2142 71.237 93.5631 72.5213 91.7298C74.6978 88.6179 75.892 85.0825 76.792 81.4431C77.3685 79.1117 77.7862 76.743 78.3078 74.3978C79.1431 70.6291 80.4431 67.0368 82.6295 63.8249C83.7138 62.2308 84.9943 60.8052 86.6747 59.7973C86.8375 59.6993 87.0198 59.6326 87.1963 59.564C87.2257 59.5522 87.2767 59.6032 87.4296 59.6817H87.4277V59.6836Z" fill="#021436"/>
<path id="Vector_6" d="M42.4713 35.2848C41.3693 34.6867 40.132 34.7142 38.9437 34.5318C37.928 34.3749 36.8947 34.3377 35.8789 34.1789C32.971 33.7279 30.318 32.6592 27.9179 30.9219C25.81 29.3964 23.6295 27.9787 21.9726 25.908C20.3157 23.8373 19.5137 21.4726 19.347 18.8607C19.2921 18.0097 19.5 17.2175 20.0372 16.3195C20.1902 16.7097 20.3882 16.9646 20.3667 17.1999C20.0941 20.1686 21.0373 22.7903 23.0785 24.8374C26.3747 28.1434 30.1944 30.7337 34.7946 31.9082C36.2554 32.2808 37.7986 32.3239 39.2947 32.5749C40.936 32.8494 42.5654 33.1906 44.2027 33.4965C46.0283 33.8377 47.8185 33.6514 49.5794 33.1063C53.3069 31.9533 56.6306 30.1434 59.2346 27.1629C59.4189 26.9512 59.6444 26.7747 60.0444 26.7061C59.9287 26.9335 59.8307 27.1728 59.6954 27.3884C59.4326 27.8022 59.1307 28.1924 58.8758 28.6101C57.413 31.0042 55.3521 32.6396 52.7501 33.6808C50.3186 34.6534 47.8832 35.5201 45.2145 35.4162C44.2851 35.3789 43.3576 35.3083 42.4282 35.2534L42.4713 35.2848Z" fill="#021436"/>
<path id="Vector_7" d="M35.7376 56.5287C35.7336 56.6953 35.7297 56.8502 35.7238 57.062C35.2474 56.9954 35.0199 56.7208 35.0964 56.2777C35.1768 55.8071 35.5454 55.6326 35.9827 55.7306C37.6219 56.1032 38.9965 56.9463 40.0024 58.2817C40.773 59.3052 41.2985 60.47 41.4613 61.7759C41.726 63.9152 41.8966 66.078 42.326 68.1859C43.3535 73.2272 47.0909 75.8783 51.9479 75.6391C53.2813 75.5724 54.5558 75.1685 55.6892 74.4253C56.8892 73.639 56.9304 72.6586 55.7127 71.8939C54.3872 71.0605 52.9146 70.7291 51.344 71.0938C50.7851 71.2233 50.2263 71.3605 49.4753 71.539C49.8635 70.8625 50.4243 70.6703 50.8792 70.4036C52.6224 69.384 54.4597 69.1879 56.3833 69.8742C58.903 70.7723 59.9972 73.7586 57.4481 75.9254C56.3265 76.8783 54.9833 77.3862 53.5813 77.6294C49.3243 78.3666 44.9888 76.9293 42.4515 73.2135C41.2887 71.5135 40.7122 69.5918 40.5063 67.5682C40.3671 66.1996 40.3965 64.8152 40.2867 63.4426C40.2083 62.4681 40.0985 61.4837 39.8632 60.5386C39.3769 58.5738 37.6396 56.9189 35.7395 56.5287H35.7376Z" fill="#021436"/>
<path id="Vector_8" d="M89.1924 72.9762C88.7924 73.7116 88.1963 74.2802 87.5668 74.8136C86.6688 75.5763 85.7413 76.3058 84.8491 77.0744C83.8765 77.9137 82.9726 78.8098 82.7373 80.1451C83.2726 81.1491 84.2805 81.3255 85.1609 81.351C89.3414 81.4746 93.5317 81.4746 97.4652 79.7274C99.128 78.9882 100.718 78.1019 102.071 76.8509C102.285 76.6528 102.516 76.4587 102.679 76.2214C103.471 75.0606 103.26 74.0331 102.022 73.3998C101.33 73.0449 100.561 72.8351 99.8143 72.5998C98.4711 72.1782 97.126 71.7684 95.9436 70.7468C96.1985 70.7193 96.3436 70.6683 96.473 70.6958C97.9064 70.9997 99.3398 71.2997 100.765 71.6389C101.381 71.7841 101.991 71.9762 102.577 72.2135C104.722 73.0841 105.193 75.7489 103.718 77.5038C102.724 78.6882 101.493 79.5843 100.177 80.3588C97.2593 82.0746 94.122 83.0844 90.7258 83.3609C89.061 83.4962 87.4061 83.5491 85.7413 83.5119C84.6511 83.4883 83.6 83.2864 82.6118 82.7981C80.7862 81.9001 80.0509 80.1588 81.498 78.1705C82.1765 77.2352 83.0961 76.4371 84.0256 75.7312C85.2727 74.7822 86.6237 73.9665 87.9512 73.1292C88.2826 72.9213 88.6414 72.4958 89.1924 72.9723V72.9762Z" fill="#021436"/>
<path id="Vector_9" d="M104.053 23.0099C104.898 24.2825 104.785 25.4256 104.281 26.5453C103.251 28.8297 102.167 31.0964 100.565 33.0494C98.8766 35.1083 96.6491 36.4691 94.2686 37.5653C91.492 38.8437 88.5567 39.5712 85.5448 40.1104C81.9662 40.7516 78.521 40.4379 75.1013 39.3104C72.7326 38.53 70.6384 37.2633 68.705 35.7319C67.6717 34.9142 66.6932 34.0044 65.801 33.0337C65.0422 32.2082 64.4069 31.2454 64.9559 29.7552C65.1284 30.114 65.2363 30.2846 65.2951 30.4689C65.6167 31.5023 66.3383 32.2415 67.1501 32.8827C70.4325 35.473 74.0425 37.4103 78.2034 38.1535C80.9897 38.6516 83.782 38.5496 86.5487 37.9829C88.2272 37.6398 89.9136 37.2986 91.5528 36.8142C94.1588 36.0456 96.5746 34.8789 98.6942 33.12C100.051 31.9945 100.985 30.567 101.875 29.0963C102.459 28.1316 102.945 27.108 103.508 26.1315C104.038 25.2119 104.222 24.2295 104.057 23.0118H104.053V23.0099Z" fill="#021436"/>
<path id="Vector_10" d="M34.3946 66.3426C34.8671 68.2682 36.3692 69.3388 37.6731 70.5781C38.3476 71.2193 39.0359 71.8683 39.5908 72.6075C40.8144 74.239 40.6556 75.688 39.0712 76.9881C37.5594 78.2293 35.7613 78.8921 33.824 79.1176C30.4435 79.5097 27.1669 79.0352 23.9982 77.8097C21.7961 76.9587 19.6039 76.09 17.6803 74.6762C16.492 73.8037 15.7901 72.7095 16.0881 71.1546C16.3156 69.9663 17.1293 69.2525 18.149 68.827C18.996 68.4741 19.9235 68.1819 20.8314 68.129C22.8922 68.0094 24.8021 67.5584 26.4708 66.2956C26.5335 66.2485 26.6375 66.2524 26.8865 66.1936C26.5688 67.0446 25.9708 67.4995 25.3394 67.8996C24.459 68.4604 23.4727 68.7211 22.4452 68.8976C21.4353 69.0702 20.4314 69.3035 19.449 69.5918C18.996 69.7251 18.547 69.9937 18.1921 70.3094C17.2744 71.1212 17.2783 72.1781 18.196 72.9781C18.6352 73.3625 19.1333 73.7076 19.6568 73.9664C22.3883 75.3233 25.1727 76.5606 28.2022 77.0861C30.5866 77.4999 32.9906 77.6744 35.3417 76.9057C36.2201 76.6194 37.0868 76.2214 37.8653 75.7273C38.8849 75.0802 38.9869 74.3017 38.2339 73.3684C37.7437 72.7605 37.1241 72.2566 36.5613 71.7056C35.424 70.5938 34.4338 69.3859 34.1338 67.7643C34.0554 67.3446 34.0495 66.9113 34.0103 66.4838C34.1377 66.4348 34.2652 66.3858 34.3946 66.3368V66.3426Z" fill="#021436"/>
<path id="Vector_11" d="M5.31287 64.7309C4.62853 65.0486 4.20695 65.2623 3.77164 65.4427C2.65984 65.9055 1.8206 66.6114 1.76177 67.9016C1.70883 69.0369 2.57749 70.0919 3.9089 70.6095C5.86583 71.3684 7.56588 70.8566 9.06005 69.4997C10.764 67.9545 11.8445 65.9604 12.9759 63.9995C14.1053 62.0445 15.225 60.0778 16.4819 58.2052C17.8133 56.2189 19.5565 54.6247 21.7565 53.609C23.9154 52.6148 26.1606 52.3148 28.4509 53.0658C29.2587 53.3305 30.1019 53.7011 30.2451 54.8169C29.5019 54.4894 28.8568 54.0815 28.1528 53.9129C25.0076 53.1599 22.3585 54.2365 20.0428 56.311C18.1878 57.9738 16.8525 60.0347 15.6877 62.2151C14.7622 63.9485 13.8465 65.6878 12.8621 67.3879C12.0484 68.7938 11.0758 70.0997 9.79733 71.1292C7.58941 72.9096 4.98149 73.29 2.40493 71.8331C1.8206 71.5017 1.25783 71.0429 0.840174 70.5193C-0.552028 68.7742 -0.183389 66.6271 1.71863 65.4564C2.70886 64.8486 3.81478 64.5113 5.31287 64.7309Z" fill="#021436"/>
<path id="Vector_12" d="M48.5616 25.2433C47.7577 25.5805 46.9792 26.0119 46.1458 26.2374C43.9693 26.8257 41.8692 26.3257 39.8398 25.5335C38.1946 24.8923 36.5769 24.1766 34.9671 23.4471C33.2376 22.6628 31.3983 22.3353 29.5433 22.304C28.2315 22.2804 26.9217 22.6569 25.8413 23.5315C25.5864 23.7393 25.3314 23.9452 24.8961 24.0432C24.9805 23.806 25.0099 23.5256 25.1569 23.3373C26.1197 22.1118 27.4276 21.5039 28.9472 21.3137C31.2336 21.0294 33.4395 21.3726 35.5886 22.1804C37.1475 22.7667 38.6946 23.404 40.2908 23.8746C41.9281 24.355 43.6046 24.7393 45.289 25.006C46.0811 25.1315 46.9341 24.906 47.7557 24.804C48.1381 24.757 48.5224 24.5472 48.8204 24.9727L48.8459 24.9335C48.7381 25.0491 48.6322 25.1668 48.5244 25.2825L48.5577 25.2452H48.5616V25.2433Z" fill="#021436"/>
<path id="Vector_13" d="M99.5792 30.9376C97.1438 32.7553 94.5065 33.7573 91.4103 32.824C90.5221 32.5553 89.6103 32.3083 88.7808 31.9024C85.3807 30.2435 81.8277 30.1317 77.9628 30.7729C78.2119 30.4455 78.3158 30.1572 78.5001 30.0925C79.0491 29.8984 79.6237 29.7239 80.2002 29.6651C83.1375 29.3611 86.0533 29.2356 88.8906 30.3906C91.2907 31.369 93.8084 31.7043 96.385 31.3122C97.2007 31.1886 97.9988 30.9396 98.8066 30.7553C99.0302 30.7043 99.2596 30.6749 99.4871 30.6357C99.5184 30.7357 99.5478 30.8357 99.5792 30.9357V30.9376Z" fill="#021436"/>
<path id="Vector_14" d="M62.9071 12.0938C62.7639 10.0859 61.8874 8.42115 60.7796 6.8309C59.9403 5.62694 59.1226 4.40337 58.3971 3.13078C58.0991 2.60528 57.9618 1.92879 57.9422 1.31504C57.9069 0.25226 58.7815 -0.308543 59.7325 0.175787C60.3246 0.477757 60.8953 0.932674 61.309 1.4523C62.5188 2.97196 63.1934 4.73084 63.4855 6.66227C63.7679 8.529 63.6248 10.3271 62.9071 12.0919V12.0938ZM62.4424 6.55246C62.1365 4.72691 61.458 3.12294 60.1933 1.82486C59.9933 1.61897 59.6599 1.5425 59.1364 1.27778C59.9344 3.47982 61.3266 4.94653 62.4424 6.55246Z" fill="#021436"/>
<path id="Vector_15" d="M65.9852 75.1528C66.0695 76.4117 66.7048 77.0587 67.8833 77.1333C68.8951 77.198 69.8069 76.9293 70.6677 76.3685C72.3129 75.2979 73.4874 73.7841 74.611 72.2331C75.7914 70.6036 76.8954 68.9193 78.0405 67.2624C78.317 66.8623 78.6229 66.48 79.0817 66.1584C79.0229 66.3937 78.9994 66.6427 78.9033 66.8623C78.2523 68.3467 77.6523 69.8566 76.9111 71.2958C75.5385 73.9665 73.6855 76.2215 70.954 77.6254C69.8324 78.2019 68.6735 78.4941 67.4147 78.0333C66.5343 77.7097 65.897 77.1372 65.5205 76.296C65.3323 75.8744 65.2793 75.4273 65.9872 75.1508H65.9852V75.1528Z" fill="#021436"/>
<path id="Vector_16" d="M15.7624 65.3112C17.5114 64.7681 18.4134 63.4876 19.2684 62.1876C20.2939 60.6248 21.3174 59.0698 22.6665 57.7541C23.5646 56.8776 24.5979 56.2717 25.8019 55.909C26.4117 55.7246 26.8392 55.8384 27.249 56.4266C24.9411 56.9129 23.6822 58.609 22.4939 60.3424C21.8861 61.2287 21.4782 62.2523 20.8939 63.1562C20.4468 63.8504 19.9096 64.5034 19.3291 65.0916C18.537 65.8936 17.5056 65.9956 16.4467 65.7995C16.2467 65.7622 16.08 65.5446 15.7663 65.3112H15.7624Z" fill="#021436"/>
<path id="Vector_17" d="M69.5351 17.8039C69.4527 17.5098 69.2272 17.1647 69.3115 16.9274C70.1233 14.6313 71.3704 12.6881 73.7764 11.7625C74.0038 11.6743 74.2352 11.5684 74.4744 11.5429C75.4333 11.437 76.0882 12.2665 75.7098 13.1626C75.547 13.5489 75.2529 13.9489 74.9097 14.1763C74.0548 14.743 73.1607 15.2587 72.241 15.7078C71.2253 16.2039 69.8547 16.2195 69.9096 18.0392L69.539 17.8039H69.5351ZM71.2116 15.4234C71.8332 15.045 72.4508 14.6567 73.0783 14.2881C73.7038 13.9214 74.2156 13.4528 74.7744 12.59C72.9391 13.0528 71.9489 14.1136 71.2096 15.4234H71.2116Z" fill="#021436"/>
<path id="Vector_18" d="M83.0725 41.4008C86.9961 42.8537 90.0864 41.3047 93.0649 38.9693C93.3042 39.5948 92.9061 40.0576 92.5983 40.4948C91.6551 41.8361 90.3335 42.6773 88.757 43.0263C87.0059 43.4145 85.2549 43.4165 83.6117 42.5067C83.2078 42.2831 82.843 42.0576 83.0705 41.3988H83.0725V41.4008Z" fill="#021436"/>
<path id="Vector_19" d="M61.6975 15.9666C60.8798 14.6881 59.8464 14.2783 58.7621 13.9234C58.068 13.6959 57.366 13.4567 56.7189 13.1273C55.8542 12.6861 55.5483 11.9527 55.8718 11.3547C56.3071 10.5507 57.3542 10.2056 58.1307 10.7527C58.666 11.1311 59.1523 11.6821 59.4504 12.2645C59.7072 12.7665 59.97 13.1469 60.4484 13.4586C61.2053 13.9528 61.7622 14.6214 61.6994 15.9646L61.6975 15.9666ZM58.6444 12.4508C58.2013 11.6841 57.7444 11.3507 56.9346 11.737C57.3542 12.2861 57.8778 12.4567 58.6444 12.4508Z" fill="#021436"/>
<path id="Vector_20" d="M67.6267 25.6217C67.7111 24.5786 68.5189 24.3452 69.2288 24.2119C70.0327 24.0609 70.9288 23.9903 71.7092 24.1864C73.776 24.704 75.8015 25.3825 77.8173 26.1021C76.2545 26.3198 74.7701 26.0531 73.2975 25.5786C72.2308 25.2354 71.168 24.8472 70.0013 24.9315C69.164 24.9903 68.3248 24.9746 67.6267 25.6237V25.6217Z" fill="#021436"/>
<path id="Vector_21" d="M27.2748 74.4586C25.9689 74.741 24.714 74.788 23.4649 74.4488C22.2472 74.1194 21.2315 73.4801 20.4158 72.5174C20.0177 72.0468 19.7432 71.5526 20.0824 70.8448C21.1511 71.7154 22.0256 72.8154 23.3825 73.2311C24.6826 73.6292 25.9767 74.0488 27.2729 74.4586H27.2748Z" fill="#021436"/>
<path id="Vector_22" d="M85.1297 78.8235C88.1573 78.5784 90.9182 78.3549 93.6771 78.1314C91.6417 79.1 89.522 79.5883 87.3004 79.5471C86.5788 79.5334 85.8768 79.4059 85.1278 78.8235H85.1297Z" fill="#021436"/>
<path id="Vector_23" d="M31.5982 25.1433C31.8865 25.7982 31.359 26.8061 32.4218 27.0963C33.0061 26.3629 32.0963 26.0688 32.0335 25.4727C32.5551 25.2589 32.9767 25.5413 33.261 25.8805C33.5238 26.1923 33.714 26.6355 33.765 27.0414C33.8257 27.5178 33.2904 28.0669 32.7786 28.1728C32.2002 28.2924 31.7198 28.0453 31.3492 27.6277C30.6923 26.8904 30.7629 26.2021 31.5982 25.1433Z" fill="#021436"/>
<path id="Vector_24" d="M53.815 24.4688C54.3444 24.7178 54.917 24.9041 55.3915 25.2316C56.2405 25.8159 56.2543 27.0689 55.4758 27.6081C54.8915 28.014 54.262 28.0003 53.713 27.5689C53.1757 27.1473 53.0953 26.6081 53.4444 25.8081C53.6189 26.1297 53.7424 26.5061 53.9895 26.765C54.1444 26.9277 54.5268 27.0277 54.7307 26.9532C55.1091 26.814 55.1856 26.4532 54.9287 26.1101C54.666 25.7591 54.3483 25.4492 54.0993 25.0904C53.9699 24.9041 53.9307 24.6531 53.8522 24.4316L53.813 24.4688H53.815Z" fill="#021436"/>
<path id="Vector_25" d="M45.0265 28.412C45.1853 28.463 45.5755 28.4846 45.8069 28.6885C46.1049 28.9513 46.3697 29.3336 46.4755 29.7121C46.5716 30.0533 45.9579 30.5592 45.501 30.6396C44.7931 30.7651 43.8676 30.1101 43.7598 29.4101C43.6715 28.8336 44.1813 28.363 45.0265 28.414V28.412Z" fill="#021436"/>
<path id="Vector_26" d="M70.3641 6.56822C70.6445 6.29174 70.8386 6.09958 71.0543 5.88977C70.6543 5.41132 70.4209 5.13288 70.1405 4.79758C71.4288 4.77405 71.9523 5.08582 71.97 5.81526C71.9876 6.5643 70.7503 7.60355 69.9993 7.47217C69.2738 7.34472 69.015 6.73293 69.2346 5.46427C69.5777 5.79957 69.8621 6.07801 70.3641 6.57018V6.56822Z" fill="#021436"/>
<path id="Vector_27" d="M65.3291 16.8705C65.7546 16.9018 66.1232 17.0842 66.1977 17.5117C66.2703 17.9274 66.284 18.3882 66.1801 18.7901C66.0683 19.2156 65.6232 19.349 65.2251 19.2745C64.9212 19.2176 64.5369 19.0686 64.3839 18.8333C63.8192 17.9646 64.433 16.3861 65.4271 16.0508C65.5291 16.0175 65.6801 16.1332 65.8899 16.2077C65.6938 16.4685 65.531 16.6822 65.3683 16.8979C64.8702 17.3136 65.0663 17.8019 65.1663 18.3313C66.0742 17.8783 65.3428 17.3469 65.3291 16.8705Z" fill="#021436"/>
<path id="Vector_28" d="M72.1431 32.3259C72.5509 32.773 73.0254 33.0142 73.5666 33.0514C73.4255 32.7965 73.3058 32.5789 73.1627 32.32C73.9117 32.1298 74.2627 32.522 74.6196 33.2279C74.3019 33.4887 74.0215 33.8809 73.6686 33.9671C73.2921 34.0593 72.7901 33.9613 72.4391 33.7691C71.7842 33.4103 71.7234 32.8887 72.1431 32.3279V32.3259Z" fill="#021436"/>
<path id="Vector_29" d="M84.8513 33.6181C85.2081 33.9397 85.6337 34.2476 85.9513 34.6397C86.0925 34.8142 86.1298 35.228 86.0199 35.4182C85.8219 35.7554 85.4591 35.9476 85.0219 35.7496C84.6199 35.5672 84.214 35.3927 84.1277 34.8868C84.0336 34.3338 84.2866 33.9593 84.8493 33.6181H84.8513ZM84.8317 34.6436L84.8748 34.575L84.8062 34.5672L84.8317 34.6456V34.6436Z" fill="#021436"/>
<path id="Vector_30" d="M37.9003 39.6065L37.9905 39.3869C37.9493 39.4496 37.9082 39.5124 37.867 39.5731L37.9003 39.6045V39.6065Z" fill="#021436"/>
</g>
</svg>
