<svg preserveAspectRatio="xMidYMid meet" width="81.189" height="116.158" overflow="visible" style="display: block;" viewBox="0 0 81.189 116.158" fill="none" xmlns="http://www.w3.org/2000/svg">
<g id="Group 18">
<path id="Vector" d="M63.4161 43.9127C63.0385 43.7955 62.6674 43.6311 62.2817 43.5677C60.8349 43.3252 60.2002 42.7165 60.293 41.2632C60.3548 40.2949 60.7226 39.3477 60.9472 38.3891C61.0026 38.1499 61.1588 37.7853 61.0579 37.6828C60.0554 36.6624 59.2937 35.3148 57.6939 35.0593C57.6158 35.017 57.5393 34.9731 57.4612 34.9307L57.7183 35.0349C58.1122 35.6956 58.0829 36.3011 57.6304 36.8528C57.3668 37.1701 57.0576 37.4533 56.8135 37.7837C56.6035 38.0669 56.3236 38.3744 56.9258 38.6153C57.6028 38.8855 58.135 39.294 57.7981 40.1761C57.7509 40.2981 57.8127 40.4788 57.8648 40.6171C57.9478 40.8352 58.065 41.0402 58.1659 41.2502C57.8697 41.2127 57.5621 41.2144 57.2838 41.1232C57.1031 41.063 56.8379 40.8759 56.8297 40.7326C56.7809 39.8603 56.1576 39.6585 55.492 39.4225C54.9875 39.2435 54.6994 38.8155 54.963 38.2963C55.2771 37.6763 54.9728 36.8072 55.8468 36.3906C56.2976 36.1757 56.1543 35.6664 55.8923 35.2823C55.8126 35.1667 55.7182 35.0609 55.6303 34.9503C55.5717 35.0365 55.5082 35.1195 55.4562 35.209C55.0265 35.9316 54.605 36.6591 54.164 37.3736C54.0875 37.4989 53.9361 37.577 53.8189 37.6763C53.788 37.5444 53.6969 37.3915 53.7327 37.2824C54.7564 34.1854 55.8891 31.1209 57.6874 28.3867C58.4458 27.2345 58.5435 25.9244 59.0203 24.7152C59.0642 24.6045 58.8218 24.3083 58.6492 24.1976C57.9852 23.7745 57.2822 23.4132 56.6165 22.9933C54.1428 21.4358 52.8831 19.1053 52.3021 16.3061C51.6691 13.2481 52.0173 10.2438 52.709 7.25738C52.8425 6.68451 52.8652 6.35739 52.3396 5.94076C51.2557 5.07983 50.9367 3.9162 51.3533 2.55727C51.713 1.38712 51.9376 1.23577 53.2754 1.29599C53.4609 1.30412 53.6887 1.0893 53.8417 0.926551C54.26 0.477372 54.6489 0.308116 55.3471 0.413901C56.1901 0.54247 57.1211 0.386234 57.9641 0.164899C58.934 -0.088985 59.8194 -0.0629458 60.7226 0.335782C61.0058 0.461097 61.3134 0.578274 61.6177 0.599431C62.4819 0.659647 63.1052 1.04861 63.5202 1.80213C63.7074 2.14227 63.9255 2.24968 64.2054 1.86722C64.3909 1.61497 64.5813 1.34969 64.8238 1.15765C65.317 0.765432 65.9403 0.815884 66.3878 1.26506C66.5701 1.44734 66.7312 1.6703 66.8435 1.90303C67.5661 3.41169 68.9543 4.51185 69.4426 6.1621C69.4719 6.25812 69.5288 6.36553 69.6053 6.42574C70.9024 7.45918 71.127 8.86694 71.0326 10.4033C70.9431 11.8452 70.5964 13.1813 69.5956 14.2831C69.454 14.4394 69.4637 14.4508 69.8136 14.7779C69.8364 14.799 69.9227 14.7746 69.9292 14.7909C70.2058 15.4809 68.9739 17.6683 68.1943 17.8277C67.9616 17.8749 67.5515 17.8717 67.488 17.7513C67.3692 17.5267 67.3692 17.1735 67.4554 16.9196C67.5873 16.5274 67.7777 16.1287 68.0397 15.8129C68.4807 15.2824 68.2708 15.2466 67.7272 15.0887C67.1202 14.913 66.8614 14.3141 66.9932 13.6859C67.1397 12.9958 67.3171 12.4295 66.479 11.9673C65.9858 11.6955 66.2202 11.0315 66.3374 10.5074C66.4236 10.125 66.4008 9.71647 66.4253 9.321C65.662 9.45445 65.5952 8.30872 64.7799 8.44705C64.4788 8.4975 64.1077 8.29895 63.805 8.14597C63.0336 7.75701 62.3533 7.20204 61.5103 8.15736C61.027 8.70419 60.2848 8.25176 59.7494 7.99625C59.2107 7.73911 58.8071 7.69028 58.314 8.04832C57.637 8.53982 56.8395 8.50727 56.0404 8.49425C55.1339 8.4796 54.5952 7.97834 54.1347 7.29155C54.0631 7.18414 53.8726 7.15648 53.7376 7.09138C53.7001 7.1874 53.6432 7.28016 53.6285 7.37944C53.1842 10.3024 53.0199 13.2253 53.6106 16.1531C54.4048 20.0981 56.986 22.5637 60.3662 24.3848C60.9765 24.7135 61.5657 24.6289 62.189 24.4157C63.4079 23.9975 64.4316 23.2765 65.3853 22.4367C65.7808 22.0884 66.1421 21.6978 66.5685 21.3935C66.728 21.2796 67.0762 21.2682 67.2504 21.3658C68.5214 22.0852 69.7795 22.8306 71.0245 23.5971C71.9212 24.1504 72.6633 24.8323 73.2036 25.7942C73.6317 26.5558 74.3087 27.197 74.9466 27.8171C76.2616 29.093 77.1535 30.5919 77.6971 32.3431C78.6149 35.2969 79.6923 38.2036 80.5256 41.1802C81.118 43.2959 81.354 45.5158 81.0675 47.7128C80.7567 50.0938 78.2634 51.4771 75.928 50.665C74.8343 50.2858 73.8139 49.7781 72.8798 49.0604C70.1115 46.9316 66.9981 45.3986 63.8441 43.9436C63.7074 43.8802 63.5349 43.8964 63.3803 43.8753L63.4193 43.9143H63.4161V43.9127ZM63.0857 2.80952C63.1199 2.956 63.1557 3.10084 63.1899 3.24731C63.2403 3.19523 63.2891 3.14478 63.3396 3.0927C63.2452 3.00807 63.1492 2.92182 63.0548 2.83719C63.0353 2.69072 63.0694 2.48403 62.9848 2.4108C62.7846 2.23503 62.5291 2.11948 62.2915 1.98928C62.2801 1.98277 62.2248 2.05438 62.1906 2.08856C62.3631 2.24968 62.5291 2.41893 62.7114 2.57029C62.8237 2.66468 62.9604 2.73141 63.0857 2.80952ZM52.351 2.53123C51.9164 3.63953 52.0906 4.61275 52.8571 5.31419C52.9255 5.37603 53.0312 5.39556 53.1208 5.43625C53.15 5.3386 53.2265 5.22631 53.2005 5.14819C52.9141 4.26285 52.613 3.38239 52.3168 2.50193C52.3575 2.37011 52.3998 2.23666 52.4405 2.10483C52.4112 2.24805 52.3819 2.39127 52.3526 2.53286L52.351 2.53123ZM79.842 46.6289C79.8014 45.8689 79.8355 45.3839 79.7411 44.9266C79.2334 42.4708 78.9502 39.9661 78.0632 37.59C77.6434 36.4638 77.2283 35.3083 77.0412 34.1284C76.4016 30.1037 73.3908 27.6299 71.0245 24.7396C70.6371 24.266 70.0447 23.9535 69.5256 23.5971C68.9625 23.2114 68.3766 22.8615 67.7972 22.4986C66.92 21.9485 66.9005 21.9322 66.269 22.6825C65.2698 23.8673 64.0996 24.8128 62.6772 25.4426C61.4859 25.9716 61.2987 26.4126 61.7056 27.6299C62.0132 28.5495 62.049 28.5592 62.8334 27.9587C64.2119 26.9074 65.5887 25.8544 66.977 24.8177C67.06 24.7558 67.2406 24.8226 67.3757 24.8307C67.3464 24.9218 67.3431 25.039 67.2829 25.0992C65.8312 26.5477 64.3763 27.9929 62.9181 29.4348C62.3957 29.9507 61.8553 30.0793 61.2662 29.5178C61.1913 29.4462 60.9082 29.4494 60.9049 29.4641C60.7926 29.9116 60.7959 30.5724 60.1921 30.491C59.8308 30.4422 59.5232 29.9068 59.214 29.5699C58.6785 28.9856 58.5646 28.9856 58.2294 29.674C57.7948 30.5708 57.3701 31.474 56.9599 32.3838C56.7956 32.7499 56.6768 33.1357 56.5384 33.5132C56.8883 33.5311 57.2643 33.4758 57.5833 33.5848C58.0731 33.7541 58.5841 33.964 58.9812 34.2846C59.6713 34.8429 60.3532 35.4401 60.9049 36.1302C61.4761 36.8446 61.9611 37.2173 62.9669 36.8853C63.5219 36.703 64.2998 36.9651 64.9003 37.2108C65.6197 37.507 66.2397 38.0327 66.9363 38.4005C68.2789 39.1084 69.6379 39.7838 71.0017 40.4478C71.2084 40.5487 71.4753 40.5211 71.7145 40.5536C71.6282 40.3713 71.5518 40.1826 71.4541 40.0068C69.9878 37.3963 68.5165 34.7908 67.0567 32.1771C66.9932 32.0632 67.0193 31.9004 67.0046 31.7588C67.1316 31.8125 67.2894 31.8337 67.3806 31.9232C69.5711 34.0959 71.3158 36.5761 72.4322 39.46C72.8261 40.4771 73.1141 41.4748 74.5463 41.0451C74.6244 41.0207 74.7367 41.1053 74.8327 41.1395C74.7627 41.2111 74.7058 41.3071 74.6211 41.3511C73.8221 41.7677 73.0295 42.0802 72.0693 41.8686C70.0301 41.4178 68.2382 40.469 66.5099 39.3493C65.7189 38.8366 64.9117 38.3403 64.0752 37.9041C63.4014 37.5526 62.7472 37.7104 62.215 38.2605C61.1246 39.3884 61.0091 40.7831 61.2076 42.2315C61.2711 42.7002 61.6617 42.8972 62.1353 42.9118C62.6056 42.9281 63.089 42.9086 63.5446 43.0046C67.4001 43.8199 70.9415 45.2749 73.9783 47.8886C74.7904 48.5868 75.8531 49.0522 76.8703 49.4396C78.1007 49.9083 79.1732 49.3175 79.6044 48.0432C79.7851 47.5094 79.7965 46.917 79.842 46.6273V46.6289ZM64.7701 3.28637C64.8857 3.99757 64.9687 4.50534 65.0517 5.01311C65.2893 4.74295 65.5025 4.44187 65.7775 4.21402C65.9175 4.09847 66.1665 4.09522 66.3699 4.07732C67.0209 4.02036 66.863 3.68184 66.6173 3.34821C66.4659 3.14153 66.2837 2.9267 66.0656 2.8079C65.8101 2.66956 65.4016 2.47915 65.234 2.58493C64.9703 2.75094 64.8531 3.14804 64.7701 3.28474V3.28637ZM60.2425 27.394C60.2035 27.2426 60.1791 26.9725 60.0602 26.7527C59.9512 26.5493 59.7429 26.398 59.5785 26.2238C59.5232 26.4354 59.45 26.6437 59.4142 26.8585C59.3767 27.0864 59.4532 27.3696 59.3425 27.5404C59.0529 27.9945 58.8608 28.4795 59.5069 28.6504C60.0391 28.792 59.9854 28.1214 60.1839 27.809C60.2344 27.7292 60.2149 27.6055 60.2409 27.394H60.2425ZM54.1656 2.87462C54.26 3.23104 54.3121 3.42633 54.3641 3.62326C54.4292 3.43284 54.4553 3.21314 54.5708 3.06015C54.7482 2.8258 54.9598 2.59633 55.2055 2.43846C55.5815 2.19597 55.8793 1.95348 55.7166 1.45059C55.3699 1.60195 54.95 1.68007 54.6945 1.92581C54.4211 2.18946 54.3039 2.6126 54.164 2.87625H54.1656V2.87462ZM68.7395 9.05572C68.7395 8.84578 68.7542 8.78882 68.7379 8.74325C68.6207 8.41939 68.4986 8.09715 68.3766 7.77491C68.292 8.06623 68.2106 8.35754 68.1243 8.64886C68.0527 8.89298 67.9453 9.13221 67.9176 9.37959C67.9062 9.47235 68.0739 9.67253 68.1601 9.67253C68.3359 9.67253 68.5833 9.61883 68.6679 9.49514C68.7704 9.34704 68.7346 9.10292 68.7395 9.05572ZM60.6787 1.55638C60.1758 1.28297 59.9154 1.09255 59.6225 1.00141C59.4727 0.954218 59.266 1.08604 59.0854 1.13812C59.2547 1.47826 59.4255 1.8184 59.5948 2.15854C59.8763 2.0023 60.1563 1.84607 60.6771 1.55801L60.6787 1.55638ZM61.4566 3.38565C61.4859 2.9739 61.5087 2.86811 61.4973 2.76558C61.4794 2.6126 61.4387 2.4645 61.4062 2.31315C61.3101 2.42544 61.2027 2.53123 61.1197 2.65329C61.0628 2.73792 61.0107 2.84533 61.0074 2.94298C60.9944 3.35472 61.0009 3.76647 61.0058 4.17659C61.0058 4.18473 61.1051 4.20589 61.1083 4.19775C61.2646 3.83808 61.4176 3.47678 61.455 3.38402H61.4566V3.38565ZM70.0024 9.82877C69.9943 9.79622 69.9129 9.44143 69.8315 9.08664C69.7892 9.44143 69.7404 9.79785 69.7095 10.1543C69.6916 10.3593 69.6834 10.5693 69.7046 10.7727C69.7209 10.9192 69.7925 11.0608 69.838 11.2056C69.8917 11.0656 69.9747 10.9306 69.9943 10.7857C70.0219 10.5823 70.0008 10.374 70.0008 9.82877H70.0024ZM57.8502 2.21713C57.9999 2.15528 58.091 2.11948 58.1805 2.08205C58.0568 1.9486 57.9446 1.8005 57.8013 1.69146C57.7574 1.65891 57.6288 1.73703 57.5393 1.76307C57.6451 1.91768 57.7509 2.07228 57.8502 2.2155V2.21713ZM59.2579 3.09108C59.2091 2.98204 59.1554 2.86649 59.1033 2.74931C59.0789 2.88764 59.0301 3.02923 59.0349 3.16594C59.0398 3.288 59.1049 3.40843 59.144 3.52886C59.1798 3.39053 59.2156 3.25219 59.2595 3.08945L59.2579 3.09108ZM63.2533 4.28075C63.2208 4.36701 63.1671 4.45001 63.1622 4.53789C63.1573 4.62252 63.2045 4.71203 63.2273 4.79828C63.2598 4.71203 63.3152 4.6274 63.3201 4.53952C63.3249 4.45489 63.2777 4.36863 63.2533 4.28238V4.28075ZM57.2431 7.46244L57.2952 7.39734L57.2041 7.38757L57.2415 7.46244H57.2431Z" fill="#021436"/>
<path id="Vector_2" d="M27.4751 47.2947C27.2977 49.1419 27.0666 51.9184 26.7574 54.6834C26.4319 57.5901 25.2276 60.1501 23.3332 62.3455C22.0426 63.8411 21.1182 65.5207 20.3126 67.2962C19.3785 69.3501 18.4362 71.3942 17.8975 73.6043C17.2563 76.2375 17.2237 78.9082 17.2367 81.5902C17.2416 82.7994 17.3132 84.02 17.1781 85.2162C16.8315 88.2775 14.9664 90.4306 12.5317 92.0255C10.2028 93.5505 7.56473 94.2405 4.72644 93.8532C3.39517 93.6709 2.17295 93.2201 1.11347 92.4063C0.713114 92.0988 0.353446 91.6659 0.135366 91.2134C-0.328461 90.2516 0.462486 89.1352 1.55289 89.1612C1.66355 89.1644 1.88163 89.529 1.85722 89.5567C0.988156 90.5445 1.91906 90.9905 2.48217 91.4266C3.64092 92.3234 5.04867 92.7221 6.46945 92.7091C9.17103 92.683 11.6073 91.9311 13.5684 89.861C15.1406 88.201 15.9413 86.3392 15.9852 84.0656C16.0373 81.4405 16.1105 78.8105 16.3416 76.1985C16.5744 73.5669 17.4695 71.0931 18.5615 68.6894C19.0025 67.7178 19.6991 66.865 19.6519 65.6444C19.6291 65.0682 20.2622 64.4596 20.6137 63.8753C22.0003 61.5676 23.1493 59.1475 23.6847 56.5013C24.0786 54.5548 24.3943 52.5775 24.5408 50.5985C25.1299 42.702 26.414 34.9749 29.6657 27.6773C30.1132 26.6715 30.4436 25.6121 30.8814 24.603C31.215 23.8365 31.5714 23.0618 32.0418 22.3783C32.3445 21.9373 32.3591 21.7045 32.1817 21.1691C31.8139 20.0608 31.1743 19.8818 30.1197 19.8834C27.3661 19.8899 25.6702 17.2892 26.6597 14.6869C27.519 12.4296 29.2913 11.3425 31.5909 11.0821C32.3396 10.9975 32.9238 11.0267 33.3275 10.1691C33.552 9.69223 34.2909 9.36674 34.8638 9.1633C36.5889 8.54975 38.3303 7.972 40.0944 7.48539C42.3322 6.86858 44.7164 7.99967 45.7222 10.0763C45.937 10.5206 46.1486 10.9193 46.6857 11.0137C48.3326 11.3083 49.1496 12.537 49.7681 13.896C50.7722 16.1044 50.6892 18.3959 50.0073 20.6711C49.7079 21.672 49.2977 22.6452 48.8827 23.607C48.1976 25.1971 47.4766 26.7708 47.2292 28.5073C47.1999 28.7075 47.1527 28.9532 47.0209 29.0802C46.8077 29.2852 46.5164 29.4106 46.2593 29.5684C46.2007 29.2787 46.0233 28.9484 46.1047 28.7042C46.7556 26.7676 47.4457 24.8423 48.1455 22.9219C48.7948 21.1349 49.3417 19.3203 49.174 17.395C48.9609 14.944 47.9974 12.856 46.0217 11.292C45.4895 10.8721 45.0419 10.3465 44.5293 9.89892C44.0036 9.44323 43.6537 9.51809 43.517 10.1609C43.1199 12.0407 41.8635 13.1538 40.2149 13.8781C39.2058 14.3207 38.659 15.0303 38.4002 16.0784C38.1626 17.0402 37.8339 17.9809 37.5133 18.9183C37.1813 19.8883 36.3708 20.3765 35.5213 20.8322C35.3422 20.9282 35.2527 21.1886 35.1209 21.3742C35.3878 21.4702 35.6922 21.6948 35.9151 21.6329C36.2487 21.5402 36.5189 21.2342 36.8297 21.0421C37.0153 20.9266 37.2285 20.8534 37.4287 20.7606C37.4612 21.0177 37.5898 21.3156 37.5019 21.5239C37.3945 21.7826 37.1438 22.0316 36.8916 22.1667C36.5775 22.3344 36.1902 22.362 35.8516 22.4938C35.7345 22.5394 35.5701 22.7461 35.5945 22.8242C35.6515 22.9967 35.8207 23.2685 35.9346 23.2636C36.444 23.2425 36.973 23.2099 37.4482 23.0439C37.8746 22.8958 38.1041 22.873 38.2635 23.3531C38.3596 23.6445 38.6021 23.887 38.703 24.1783C38.8836 24.6974 39.0089 25.2361 39.157 25.7667C38.6362 25.5893 38.1154 25.4135 37.5947 25.2361C37.3473 25.1515 37.1048 25.0018 36.8542 24.9871C35.2576 24.896 34.1184 24.1115 33.3779 22.7282C33.1647 22.3311 32.9792 22.4873 32.8213 22.7201C32.6748 22.9349 32.5691 23.1839 32.4893 23.4329C31.2231 27.3779 29.874 31.3 28.7315 35.2808C27.6981 38.884 27.4214 42.6125 27.4767 47.2915V47.2947H27.4751ZM38.4523 11.375C37.523 11.3018 36.9339 11.8584 36.3871 12.4931C36.239 12.664 35.8647 12.8121 36.2178 13.066C36.3513 13.162 36.724 13.1197 36.8525 12.9976C37.4042 12.4752 37.9039 11.8991 38.423 11.3441C38.563 11.3116 38.703 11.279 38.8429 11.2465C38.7941 11.2009 38.7095 11.1146 38.7046 11.1179C38.6151 11.1976 38.5353 11.2871 38.454 11.375H38.4523ZM31.1629 13.8602C32.0418 13.4728 32.8555 13.5347 33.6057 14.1775C33.679 14.241 33.8547 14.228 33.9622 14.1905C34.011 14.1726 34.0289 14.005 34.0207 13.909C33.9491 13.0839 33.5992 12.7535 32.8181 12.9374C32.2045 13.0822 31.4689 13.1294 31.1971 13.896C31.1597 13.909 31.119 13.9187 31.0848 13.9383C31.0637 13.9497 31.0523 13.9773 31.0376 13.9969C31.0799 13.9513 31.1206 13.9074 31.1629 13.8618V13.8602ZM39.0415 9.73943C40.1726 9.80615 41.3085 9.80127 42.3761 10.3058C42.5519 10.3888 42.9881 10.2342 43.1069 10.0568C43.3233 9.73291 43.2599 9.32442 42.8204 9.1747C42.3859 9.02822 41.9237 8.86385 41.4778 8.87687C40.5957 8.90291 39.7478 9.12424 39.0789 9.77197C39.0529 9.81103 39.0268 9.85009 39.0024 9.88915C39.0154 9.8387 39.0301 9.78988 39.0431 9.73943H39.0415ZM37.4938 17.3673C36.4554 17.4308 35.4171 17.4943 34.3788 17.561C34.286 17.5675 34.1721 17.5724 34.107 17.6245C33.8173 17.8572 33.6399 19.1038 33.8954 19.3919C34.0533 19.5709 34.3983 19.7239 34.4341 19.2698C34.4829 18.6628 34.745 18.6791 35.1339 18.9655C35.9167 19.5416 36.3171 18.5603 36.973 18.4968C37.427 18.4529 37.6321 17.8751 37.4693 17.3413C37.5084 17.3332 37.5507 17.3315 37.5849 17.312C37.606 17.3006 37.6126 17.2632 37.624 17.2371C37.58 17.2795 37.5377 17.3234 37.4938 17.3657V17.3673ZM32.1134 11.9316C30.0628 11.8909 28.3084 12.9602 27.6134 14.6837C27.1366 15.8684 27.1447 17.0581 28.0268 18.0834C28.7331 18.9037 30.1718 19.2145 31.2183 18.7393C31.6528 18.5407 31.9848 18.1176 32.364 17.797C31.9083 17.7758 31.4461 17.7042 30.9953 17.7449C29.6526 17.8621 28.0707 16.5373 28.5443 14.9522C28.9789 13.4907 30.1718 12.4085 31.6902 12.2799C32.0548 12.249 32.4242 12.2913 32.792 12.2848C32.888 12.2831 32.9824 12.2246 33.0784 12.192C32.9792 12.1237 32.888 12.013 32.7806 11.9935C32.5235 11.9479 32.2582 11.9463 32.1134 11.9349V11.9316ZM42.1515 11.0707C42.0734 11.0251 41.9742 10.9242 41.9188 10.9437C41.5803 11.0691 41.0563 11.1407 40.957 11.3783C40.6527 12.1171 39.9707 12.1839 39.406 12.4703C39.1277 12.6119 38.838 12.7323 38.5695 12.8869C38.467 12.9455 38.4051 13.0773 38.3254 13.1766C38.423 13.2059 38.5191 13.2564 38.6183 13.2613C39.6811 13.3133 41.7789 12.0992 42.1467 11.2204C42.1646 11.1765 42.1483 11.1195 42.1499 11.0691H42.1515V11.0707ZM36.6589 10.602C36.571 10.5678 36.4766 10.4929 36.3968 10.506C35.9412 10.5808 35.479 10.6459 35.0395 10.7794C34.815 10.8477 34.4455 11.0788 34.4618 11.1895C34.5301 11.6533 34.714 12.1025 34.8735 12.5501C34.8849 12.581 35.1063 12.594 35.1453 12.5468C35.6336 11.9528 36.1088 11.3441 36.584 10.7387C36.6149 10.698 36.6328 10.6475 36.6572 10.602H36.6589ZM32.6049 16.5764C32.805 16.3176 32.9906 16.1858 33.0101 16.0344C33.0736 15.5299 32.6895 15.0889 32.1654 15.1507C31.8676 15.1865 31.6007 15.4811 31.3192 15.6585C31.7211 15.9449 32.1231 16.233 32.6049 16.5764ZM34.3609 13.9773C34.4016 14.0424 34.5464 14.2703 34.6896 14.4965C35.0119 14.2475 35.3341 13.9985 35.658 13.7495C35.4025 13.7283 35.1404 13.7365 34.8963 13.673C34.797 13.647 34.7173 13.4745 34.6652 13.354C34.5871 13.1717 34.5383 12.9081 34.3723 13.2905C34.3153 13.4224 34.3625 13.5998 34.3625 13.9773H34.3609ZM29.7763 15.6113C29.7096 15.748 29.6136 15.8554 29.638 15.9059C29.7405 16.1223 29.8789 16.3225 30.0042 16.5276C30.0481 16.4527 30.1474 16.3551 30.1279 16.3062C30.0335 16.0784 29.9082 15.8636 29.7763 15.6113ZM36.1023 16.0377C36.4034 16.0377 36.6068 16.0491 36.8086 16.0296C36.859 16.0247 36.9014 15.9222 36.9469 15.8652C36.7484 15.8457 36.5498 15.8164 36.3513 15.8147C36.2992 15.8147 36.2455 15.9059 36.1039 16.0377H36.1023ZM38.3791 24.6535C38.3075 24.5461 38.2635 24.4826 38.2196 24.4175C38.1464 24.4761 38.0487 24.5217 38.0064 24.5982C37.9771 24.6486 38.0259 24.743 38.039 24.8179C38.1496 24.7642 38.2603 24.7104 38.3791 24.6535ZM34.7857 15.6243C34.8621 15.5739 34.963 15.5397 35.007 15.4681C35.0379 15.4193 34.9891 15.3216 34.9761 15.2468C34.8719 15.2956 34.7678 15.3444 34.6636 15.3916C34.7043 15.4681 34.745 15.5462 34.7857 15.6227V15.6243ZM37.9625 23.8837L38.0162 23.8251L37.925 23.8137L37.9625 23.8837ZM33.1907 20.3375L33.2705 20.3912L33.2851 20.3196L33.1907 20.3375ZM33.2412 19.3447L33.1907 19.4212L33.264 19.4326L33.2412 19.3431V19.3447ZM31.0278 16.9475L31.0848 16.8693L30.9823 16.8612L31.0262 16.9475H31.0278Z" fill="#021436"/>
<path id="Vector_3" d="M75.7316 76.3302C75.7316 77.9625 75.6616 79.5981 75.7495 81.2256C75.8667 83.4243 76.0815 85.6181 76.2979 87.8103C76.4949 89.7925 76.6511 91.7845 77.0075 93.7407C77.3623 95.6937 77.9156 97.6125 78.4332 99.5313C78.8156 100.947 79.3429 102.326 79.6928 103.75C80.1681 105.68 79.8442 107.402 78.1175 108.669C77.2272 109.322 76.3858 110.04 75.5216 110.728C73.7477 112.139 71.7362 112.702 69.4789 112.514C68.2697 112.413 67.176 112.095 66.4648 111.072C66.084 110.525 65.6251 110.499 65.0929 110.552C63.5289 110.714 61.9698 110.946 60.4025 111.046C59.4732 111.104 58.5065 111.083 57.6033 110.883C56.4315 110.624 56.0442 109.761 56.3843 108.59C56.7586 107.296 57.6472 106.409 58.7865 105.795C59.5188 105.402 60.326 105.135 61.117 104.864C62.6191 104.352 62.9495 103.948 63.0227 102.37C63.039 102.002 63.0439 101.631 63.0227 101.265C62.8421 98.4343 62.6924 95.6009 62.4596 92.774C62.1276 88.7314 62.0186 84.6839 62.1846 80.6348C62.2936 77.9609 62.502 75.287 62.7851 72.6244C62.9056 71.4966 63.3059 70.3932 63.6249 69.2914C63.7714 68.7853 63.6103 68.603 63.1334 68.5948C62.7119 68.5883 62.2904 68.5965 61.8705 68.5867C58.3112 68.5021 56.3908 66.0544 57.1932 62.5586C57.5333 61.0776 57.963 59.6161 58.3894 58.1563C59.1282 55.6256 59.4879 53.0526 59.6913 50.4193C59.8801 47.9814 59.7743 45.6021 59.4016 43.2097C59.3854 43.1088 59.5025 42.9884 59.5579 42.8761C59.6523 42.9932 59.8085 43.1007 59.8313 43.2308C60.0722 44.676 60.4139 46.118 60.4969 47.5745C60.7541 52.0728 60.0949 56.4702 58.8939 60.8058C58.5895 61.906 58.4219 63.068 58.3715 64.2088C58.3129 65.5303 59.1022 66.4889 60.3667 66.912C61.6443 67.3401 62.9544 67.288 64.2694 67.1366C66.7675 66.8486 69.2624 66.5263 71.7671 66.2887C73.4369 66.1309 75.118 66.0625 76.7943 66.0251C77.4209 66.0104 77.6748 65.7126 77.7024 65.1934C77.7627 64.0982 77.9026 62.9801 77.7545 61.9076C77.512 60.1499 77.0271 58.4265 76.7162 56.6753C76.446 55.1455 76.2524 53.601 76.0815 52.0582C76.0538 51.8125 76.2556 51.4251 76.4688 51.2917C76.9099 51.015 77.1914 51.4381 77.2891 51.7539C77.7529 53.2495 78.2721 54.7419 78.5536 56.275C78.8742 58.0147 79.0451 59.7919 79.1265 61.5593C79.1932 63.0159 79.1655 64.5034 78.9344 65.9388C78.7375 67.1627 77.9986 67.5809 76.7683 67.5256C73.9235 67.3987 71.1177 67.7355 68.3152 68.1717C67.2786 68.3328 66.2337 68.45 65.1873 68.5232C64.6193 68.5623 64.3296 68.8015 64.2092 69.337C63.9439 70.5104 63.4735 71.6691 63.4198 72.849C63.2376 76.7891 63.0651 80.739 63.1513 84.679C63.2229 87.9242 63.716 91.158 63.9374 94.4031C64.1359 97.287 64.2629 100.179 64.3328 103.068C64.3687 104.536 63.5484 105.54 62.183 106.062C61.4978 106.324 60.7785 106.5 60.0949 106.764C59.1364 107.132 58.3373 107.721 57.8572 108.656C57.5463 109.265 57.6928 109.542 58.3633 109.63C58.7262 109.677 59.0989 109.672 59.4651 109.665C61.3074 109.636 63.1481 109.581 64.9887 109.576C65.5567 109.574 65.7911 109.465 65.8659 108.813C65.9587 108.001 66.1914 107.156 66.5706 106.433C67.5975 104.475 68.063 102.392 68.1053 100.22C68.159 97.4302 68.1737 94.6391 68.0858 91.8513C68.0272 89.9667 67.7652 88.0869 67.5927 86.2056C67.578 86.0477 67.5536 85.8915 67.5487 85.7336C67.4348 81.6341 67.3225 77.5345 67.2135 73.4333C67.2053 73.1176 67.1695 72.7823 67.2574 72.491C67.3974 72.032 67.6333 71.6024 67.827 71.1597C67.8042 71.5666 67.7505 71.9751 67.7652 72.3803C67.8563 74.8996 67.9442 77.4189 68.0679 79.9366C68.1509 81.6145 68.255 83.2941 68.4178 84.9671C68.6961 87.8363 69.1078 90.6941 69.3145 93.5682C69.5554 96.9176 69.9867 100.283 69.3552 103.631C69.1436 104.755 68.7042 105.839 68.3348 106.931C68.1672 107.426 67.8758 107.88 67.7131 108.377C67.3648 109.444 67.6708 110.113 68.6912 110.523C69.7002 110.928 70.7646 111.003 71.7752 110.618C72.7468 110.246 73.7021 109.784 74.5826 109.233C75.424 108.705 76.1238 107.955 76.9522 107.398C78.2053 106.557 78.4055 105.374 78.0865 104.069C77.7643 102.745 77.3363 101.445 76.8822 100.159C75.7544 96.9696 75.0415 93.7163 75.0106 90.3149C74.9602 84.8971 74.7991 79.4793 74.7942 74.0615C74.7942 72.5577 75.1766 71.0523 75.3996 69.5502C75.424 69.3874 75.5493 69.2393 75.6291 69.0847C75.6681 69.2344 75.7381 69.3825 75.7397 69.5323C75.7511 70.3737 75.7462 71.2167 75.7462 72.0597V76.3237H75.73V76.3302H75.7316Z" fill="#021436"/>
<path id="Vector_4" d="M3.01715 71.6822C2.92601 68.8065 3.90575 66.227 5.2012 63.7272C6.43319 61.3511 7.80677 59.0287 8.79952 56.5533C9.75159 54.1805 10.3424 51.6563 11.0031 49.1744C12.5606 43.3302 15.0945 37.9449 18.3934 32.8916C20.6116 29.4951 23.0854 26.2955 25.6389 23.1497C26.7065 21.8347 28.0166 20.9298 29.6913 20.6141C30.1453 20.5278 30.6254 20.5636 31.0925 20.5653C31.1755 20.5653 31.3334 20.6873 31.3252 20.7329C31.3041 20.8663 31.2471 21.0275 31.1478 21.1072C31.0323 21.2 30.8516 21.2065 30.7084 21.2683C28.0963 22.4238 26.2166 24.3345 24.9635 26.8798C23.3555 30.1477 22.2586 33.5963 21.4107 37.1247C20.6507 40.2868 19.9183 43.4571 19.2641 46.6437C18.1086 52.2731 15.835 57.4338 12.8942 62.3308C12.4092 63.1397 11.9112 63.942 11.4067 64.7395C11.3628 64.8094 11.2017 64.868 11.1333 64.8387C11.0682 64.8111 11.0031 64.6499 11.0243 64.5718C11.1235 64.2203 11.2423 63.8736 11.3725 63.5319C14.2352 55.9609 16.5788 48.2289 18.4829 40.3633C19.3357 36.8366 20.4359 33.388 21.7737 30.0143C21.842 29.8418 21.8176 29.6335 21.8355 29.4431C21.6907 29.5846 21.5181 29.7067 21.4058 29.8711C17.0377 36.3109 13.5468 43.1479 11.9112 50.8295C10.9754 55.2302 9.39192 59.3753 7.0321 63.2243C5.84731 65.1561 4.89361 67.2132 4.51116 69.4705C4.19381 71.3453 4.02292 73.2478 4.87734 75.0348C5.20934 75.7281 5.68619 76.397 6.23953 76.9308C6.99955 77.6664 7.68797 77.5508 8.37476 76.7485C8.51146 76.5906 8.60748 76.3905 8.76047 76.2554C9.01435 76.0292 9.25033 76.0796 9.32845 76.4263C9.57745 77.5264 8.82556 78.5517 7.70424 78.6803C6.68382 78.7975 5.84568 78.4166 5.13448 77.7266C3.83414 76.4621 3.17013 74.8948 3.01878 73.1046C2.97972 72.6343 3.01227 72.1574 3.01227 71.6838H3.01715V71.6822Z" fill="#021436"/>
<path id="Vector_5" d="M41.8674 114.384C45.412 114.44 48.7076 113.391 51.9886 112.261C52.5143 112.081 53.0806 112.02 53.6291 111.905C53.1962 112.232 52.8007 112.632 52.3238 112.87C50.7745 113.641 49.2284 114.432 47.6221 115.069C45.0946 116.07 42.4728 116.317 39.7403 116.068C36.1225 115.738 32.5339 115.261 29.0235 114.349C26.5888 113.718 24.1883 112.938 21.8073 112.121C19.7437 111.413 17.9177 110.276 16.435 108.639C15.5595 107.672 14.9785 106.588 15.0045 105.24C15.0094 104.98 15.0826 104.591 14.9459 104.48C14.3584 104.005 14.6611 103.632 14.9492 103.172C16.8468 100.142 18.6679 97.0641 20.6209 94.0712C22.3818 91.3728 23.8042 88.5183 25.0736 85.5644C27.5213 79.8699 30.1399 74.247 32.5111 68.5216C34.2395 64.3472 35.8783 60.1402 37.885 56.0894C38.0022 55.8535 38.0966 55.6045 38.2414 55.388C38.5653 54.9047 38.6239 54.1674 39.4197 54.1235C39.2635 54.6036 39.1512 55.1032 38.9412 55.5589C36.4284 61.0028 34.7066 66.7509 32.5046 72.3136C30.4377 77.5378 28.2748 82.7261 26.1933 87.9454C24.2371 92.8506 21.267 97.0933 17.7972 101.022C17.3806 101.494 16.9981 101.997 16.5962 102.482C15.2698 104.087 15.6116 105.514 16.3944 106.682C16.8533 107.368 17.4603 107.988 18.0999 108.513C19.371 109.558 20.8601 110.243 22.4176 110.746C27.5295 112.391 32.739 113.578 38.1014 114.037C39.3562 114.144 40.6094 114.268 41.8641 114.385H41.8674V114.384Z" fill="#021436"/>
<path id="Vector_6" d="M4.28953 88.8211C3.91033 88.6681 3.24145 88.4989 2.68811 88.1457C2.0062 87.7128 2.20475 86.8633 2.09734 86.2058C1.92483 85.1609 2.59697 84.2447 3.58484 83.8785C4.19026 83.6539 4.74034 83.9648 4.82822 84.6369C4.85426 84.8306 4.82497 85.2065 4.39043 84.9901C4.19677 84.894 3.85012 84.7525 3.77362 84.8306C3.41558 85.1967 3.02174 85.5906 2.84109 86.0528C2.61162 86.6403 3.29678 87.5468 3.92823 87.4719C4.52389 87.402 5.16022 87.1823 5.65823 86.8486C7.7723 85.4295 9.26956 83.4391 10.2216 81.1281C11.1184 78.9522 11.8947 76.6998 12.4334 74.4116C13.7728 68.7252 15.5027 63.1772 17.7535 57.787C19.643 53.2643 20.8229 48.5447 21.7017 43.729C22.9272 37.0239 25.0462 30.6182 28.6038 24.7561C29.2532 23.6852 30.0604 22.7071 30.822 21.7062C30.9018 21.602 31.1703 21.6411 31.3526 21.6134C31.2875 21.742 31.2387 21.882 31.1573 21.9975C27.5362 27.0801 25.318 32.7762 23.9232 38.8059C23.2169 41.8656 22.7026 44.9691 22.146 48.0613C21.5195 51.536 20.517 54.8983 19.2199 58.1727C16.9333 63.9437 15.187 69.8742 13.8265 75.9284C13.1787 78.809 12.2641 81.618 10.5699 84.0738C9.76919 85.2342 8.81387 86.3018 7.83414 87.319C6.97484 88.2108 5.84864 88.673 4.29279 88.8211H4.28953Z" fill="#021436"/>
<path id="Vector_7" d="M51.134 38.9768C51.1128 39.3527 51.1063 39.5643 51.09 39.7742C51.0526 40.2381 51.2479 40.4594 51.7263 40.4187C51.9363 40.4008 52.1495 40.3878 52.3578 40.4138C53.0771 40.5017 53.2952 40.7507 53.0674 41.4489C52.9014 41.9599 52.9909 42.1878 53.362 42.6011C54.1594 43.4881 54.1073 44.4971 53.4108 45.485C53.0478 46.0009 52.6198 46.4712 52.2569 46.9871C51.7817 47.6642 51.1453 48.0727 50.3674 48.3266C46.0221 49.7473 41.7663 51.3976 37.6651 53.4303C36.4754 54.0194 35.2662 54.4653 33.8959 54.3888C31.5963 54.2603 30.4587 52.6637 31.3001 50.5073C31.7151 49.4414 32.3221 48.434 32.9503 47.4705C33.9317 45.9667 34.4199 44.3734 34.3109 42.5702C34.2132 40.946 34.1758 39.3251 34.6071 37.7122C34.9684 36.3647 35.5478 35.1848 36.4152 34.0863C37.8669 32.2456 39.7368 30.8834 41.5108 29.4122C42.6191 28.4927 43.4898 27.5129 43.0422 25.9262C43.0227 25.8562 43.0992 25.7569 43.1317 25.6723C43.2196 25.7195 43.3693 25.752 43.3856 25.8171C43.5044 26.3102 43.7729 26.8571 43.6558 27.2965C43.4556 28.0354 43.065 28.7466 42.6402 29.3943C42.331 29.8679 41.859 30.2454 41.4278 30.6295C38.8369 32.9356 37.2061 35.7332 36.4526 39.1737C35.7935 42.1796 34.7389 45.0993 33.4304 47.9099C33.0561 48.7155 32.6948 49.552 32.5028 50.413C32.0975 52.2276 33.0203 53.1292 34.8528 52.7516C35.5136 52.6149 36.1792 52.4001 36.7797 52.0974C39.9777 50.4846 43.3205 49.2396 46.704 48.0922C47.8449 47.7049 49.0345 47.4624 50.1705 47.0653C50.7417 46.8651 51.2788 46.5136 51.7703 46.1474C52.2244 45.8089 52.4831 45.3516 51.8989 44.8584C51.8614 44.8259 51.811 44.7657 51.8191 44.7282C51.907 44.2514 52.1886 43.7143 52.0535 43.3156C51.8972 42.8501 51.383 42.5165 51.6954 41.9111C51.7914 41.7239 52.0697 41.4115 51.5815 41.3512C51.2349 41.3089 50.7434 41.2308 50.7613 41.789C50.802 42.9755 50.0175 43.6948 49.3649 44.5102C48.5821 45.4883 47.5893 46.1262 46.4029 46.5005C45.804 46.6893 45.2263 46.9497 44.6274 47.1418C44.2807 47.2524 43.9129 47.2899 43.5532 47.3615C43.8576 47.0929 44.131 46.7707 44.4744 46.5673C45.1058 46.1929 45.7503 45.7975 46.4404 45.5761C48.0808 45.0505 49.1175 43.8087 49.7994 42.4189C50.4358 41.1201 50.9533 39.5757 49.7539 38.1972C49.5309 37.9401 49.2298 37.6439 48.9222 37.5886C47.6886 37.3623 46.468 37.1768 45.1758 37.4193C43.2391 37.7822 41.2943 37.7106 39.5301 36.6349C39.3886 36.5486 39.3137 36.3549 39.2079 36.2117C39.3462 36.2247 39.496 36.2052 39.6213 36.254C41.3252 36.905 43.0227 37.1036 44.8568 36.7016C46.0123 36.4493 47.2655 36.643 48.4731 36.6365C48.6618 36.6365 48.849 36.6267 49.0378 36.6218C48.9434 36.4379 48.8799 36.2296 48.7497 36.0766C47.9702 35.1539 47.1532 34.2637 46.3997 33.323C46.1116 32.9633 45.9489 32.4995 45.7487 32.0747C45.7145 32.0031 45.7861 31.8827 45.8073 31.785C45.8886 31.8159 45.9944 31.8257 46.0498 31.8827C47.2915 33.1635 48.5658 34.415 49.7506 35.7463C50.5936 36.6935 51.3325 37.7432 51.1323 38.9768H51.134Z" fill="#021436"/>
<path id="Vector_8" d="M50.2198 65.6182C50.1043 68.201 49.8813 70.7236 49.9106 73.2445C49.9383 75.7069 50.2165 78.166 50.3988 80.6267C50.5079 82.0914 50.6527 83.5529 50.7634 85.0176C51.1133 89.6266 52.3843 94.0077 54.155 98.244C55.0452 100.371 56.1324 102.417 57.1154 104.506C57.1886 104.661 57.1381 104.873 57.1447 105.057C56.964 104.991 56.7362 104.977 56.6076 104.856C53.7628 102.178 51.5706 99.0854 50.4623 95.2836C49.2059 90.9725 48.4914 86.5865 48.4508 82.0882C48.4263 79.3019 48.2083 76.5157 48.2392 73.7311C48.262 71.7408 48.594 69.7569 48.7128 67.7649C48.8348 65.7175 48.8853 63.6637 48.9309 61.6131C48.9927 58.7731 49.0236 55.9348 49.0545 53.0949C49.0578 52.8378 48.9471 52.579 48.9357 52.3202C48.9309 52.2063 49.0415 52.0859 49.1001 51.9687C49.1994 52.0794 49.3686 52.1787 49.3882 52.3023C49.5216 53.1324 49.6811 53.964 49.7234 54.8021C49.9106 58.4249 50.0587 62.0492 50.2198 65.6199V65.6182Z" fill="#021436"/>
<path id="Vector_9" d="M63.3763 43.8736C63.928 46.2839 64.1119 48.7251 64.0647 51.1939C64.0143 53.8695 64.0094 56.5466 63.9508 59.2222C63.9427 59.616 63.7409 60.005 63.6302 60.3956C63.5472 60.0424 63.4072 59.6942 63.3893 59.3377C63.1599 55.0477 62.9532 50.7561 62.7302 46.4645C62.7009 45.8916 62.6716 45.3106 62.5479 44.754C62.3656 43.9371 62.8018 43.8557 63.4154 43.9143L63.3763 43.8752V43.8736Z" fill="#021436"/>
<path id="Vector_10" d="M38.1791 49.6496C36.5858 49.6675 36.0357 49.1369 36.2164 47.8219C36.3059 47.1677 36.5419 46.4777 36.8999 45.9259C38.1303 44.0332 39.4306 42.1877 40.2427 40.0573C40.2932 39.9239 40.438 39.8246 40.5389 39.7107C40.5747 39.8588 40.6756 40.028 40.6349 40.1501C40.2866 41.19 39.9709 42.2479 39.5315 43.2488C39.0042 44.4482 38.3223 45.5793 37.7869 46.7755C37.5672 47.2653 37.2986 47.9944 37.5053 48.3557C37.8129 48.8928 38.5322 48.5689 39.0905 48.4339C40.1581 48.1783 41.2322 47.9505 42.3063 47.721C42.3975 47.7015 42.5049 47.7601 42.6041 47.7829C42.5586 47.8512 42.5277 47.9538 42.4642 47.9831C40.993 48.6617 39.5641 49.4575 38.1775 49.6512H38.1791V49.6496Z" fill="#021436"/>
<path id="Vector_11" d="M51.2711 50.7497C51.2711 50.7497 51.1376 50.6114 51.1506 50.4926C51.1637 50.3754 51.3069 50.242 51.4257 50.1736C53.6667 48.87 55.216 46.9252 56.5115 44.7379C56.7768 44.2887 57.0746 43.8558 57.3903 43.4392C57.5759 43.1934 57.8183 42.9851 58.0511 42.7801C58.1178 42.7215 58.2512 42.6971 58.3359 42.7198C58.3798 42.7329 58.3945 42.8826 58.4059 42.9721C58.4124 43.0193 58.388 43.0763 58.3668 43.1218C57.4294 45.1643 56.4806 47.2019 54.9784 48.9091C54.015 50.0044 52.4428 50.7937 51.2711 50.7481V50.7497Z" fill="#021436"/>
<path id="Vector_12" d="M57.1069 14.8464C57.4161 13.603 57.9564 12.3726 58.8727 11.3327C58.9492 11.2464 59.2193 11.1992 59.2779 11.2562C59.4065 11.3831 59.5676 11.6272 59.5237 11.7574C59.2551 12.5468 58.902 13.3068 58.6351 14.0961C58.2608 15.2028 58.2852 15.206 59.3381 15.7285C59.4944 15.8049 59.6213 15.9384 59.7629 16.0458C59.5985 16.1548 59.4456 16.3274 59.2665 16.3632C58.0622 16.6073 57.1362 15.9872 57.1085 14.8464H57.1069Z" fill="#021436"/>
<path id="Vector_13" d="M44.8941 19.7791C45.3579 18.8336 44.925 17.9482 44.4954 17.0482C44.4319 16.9132 44.5751 16.6804 44.6223 16.4916C44.8078 16.5437 45.091 16.5388 45.1642 16.6593C45.563 17.3168 45.9812 17.9775 46.2514 18.6904C46.4695 19.2648 46.1456 19.8133 45.7176 20.2169C45.5613 20.3634 45.2651 20.3618 45.0324 20.4269C44.9917 20.2397 44.9527 20.0525 44.8941 19.7791Z" fill="#021436"/>
<path id="Vector_14" d="M56.1337 13.6126C55.6275 13.3994 55.1995 13.3034 54.8854 13.0593C54.6348 12.864 54.5257 12.4897 54.3549 12.1935C54.6852 12.1479 55.0677 11.9754 55.3378 12.0828C55.9644 12.3318 56.5389 12.3546 57.1508 12.0942C57.268 12.0437 57.434 12.1105 57.5772 12.1235C57.5463 12.3058 57.5789 12.5645 57.4715 12.654C57.0434 13.0072 56.5731 13.305 56.1337 13.6126Z" fill="#021436"/>
<path id="Vector_15" d="M61.4279 12.1789C62.4743 12.4833 62.9756 11.9836 63.4248 11.3424C63.4882 11.2513 63.6786 11.2252 63.8105 11.222C63.8528 11.222 63.939 11.3929 63.9374 11.4824C63.8951 12.8543 62.5606 13.6681 61.3839 13.0122C61.1675 12.8918 61.0747 12.5484 60.9266 12.3091C61.1431 12.2538 61.3579 12.1968 61.4295 12.1789H61.4279Z" fill="#021436"/>
<path id="Vector_16" d="M43.4518 16.949C43.4372 18.1386 42.3175 19.273 41.162 19.2339C41.0074 19.229 40.8593 19.0321 40.7079 18.9231C40.8088 18.8336 40.8984 18.692 41.0155 18.6627C42.005 18.4121 42.5925 17.735 43.0206 16.8595C43.071 16.7569 43.2517 16.7195 43.3721 16.6528C43.3998 16.752 43.4274 16.8497 43.4535 16.949H43.4518Z" fill="#021436"/>
<path id="Vector_17" d="M46.8856 12.9422C46.8254 13.8828 45.9873 14.9114 45.1621 15.0172C44.9701 15.0416 44.7439 14.7958 44.5339 14.6754C44.6739 14.5973 44.8074 14.4801 44.9571 14.4492C45.805 14.2718 46.0345 13.5557 46.3551 12.9064C46.4185 12.7762 46.5764 12.6932 46.692 12.5874C46.7636 12.7192 46.8368 12.8527 46.8856 12.9422Z" fill="#021436"/>
<path id="Vector_18" d="M39.9961 46.144C39.9961 46.5118 40.0156 46.6681 39.9896 46.8178C39.9684 46.9382 39.8919 47.0489 39.8415 47.1628C39.7504 47.0456 39.6071 46.9415 39.5746 46.8113C39.4786 46.4174 39.3923 46.0155 39.3679 45.6135C39.3533 45.3808 38.9269 44.9983 39.4818 44.9332C39.6169 44.9169 39.8578 45.3417 39.9554 45.5988C40.0417 45.8267 39.9945 46.1033 39.9961 46.144Z" fill="#021436"/>
<path id="Vector_19" d="M74.1633 99.6371C74.0347 99.4142 73.9517 99.2693 73.8687 99.1261C74.0331 99.0366 74.2007 98.8771 74.3602 98.8836C74.4823 98.8885 74.5946 99.1082 74.7101 99.2319C74.562 99.3409 74.4156 99.45 74.1633 99.6371Z" fill="#021436"/>
<path id="Vector_20" d="M62.4716 33.4758C62.4309 34.091 62.4211 34.4051 62.3755 34.716C62.3707 34.7485 62.0891 34.799 62.0696 34.7648C61.6204 33.9755 61.347 33.1389 61.5081 32.2178C61.5293 32.099 61.679 31.9346 61.7913 31.9151C61.9085 31.8956 62.1428 32.0013 62.1672 32.0941C62.3137 32.6409 62.413 33.2008 62.4699 33.4742H62.4716V33.4758Z" fill="#021436"/>
</g>
</svg>
