<svg preserveAspectRatio="xMidYMid meet" width="108.967" height="88.1424" overflow="visible" style="display: block;" viewBox="0 0 108.967 88.1424" fill="none" xmlns="http://www.w3.org/2000/svg">
<g id="Group 17">
<path id="Vector" fill-rule="evenodd" clip-rule="evenodd" d="M106.47 0.255511C105.764 0.693909 104.279 2.82782 103.377 4.70084C101.238 9.14307 100.334 14.231 100.307 21.9797C100.299 24.2356 100.23 26.8181 100.154 27.7185C100.078 28.6189 100.024 30.6739 100.035 32.2851C100.051 34.7366 100.129 35.5802 100.515 37.4549C101.146 40.5156 101.57 41.7555 102.107 42.1072C102.632 42.4512 102.967 42.3503 103.232 41.7686C103.393 41.4162 103.379 41.2762 103.159 41.0314C102.89 40.7325 102.504 38.2149 102.186 34.6977C101.966 32.2599 102.008 24.0798 102.254 21.5147C103.194 11.7126 103.436 10.109 104.42 7.1508C104.793 6.02741 105.099 5.02895 105.099 4.93193C105.099 4.66224 106.113 2.72633 106.41 2.42958C106.944 1.89502 107.015 2.41821 106.823 5.5044C106.721 7.15425 106.521 9.82238 106.38 11.4336C106.238 13.0449 106.038 15.3713 105.936 16.6034C105.832 17.8571 105.749 23.0558 105.749 28.4078C105.749 33.668 105.699 39.0005 105.639 40.2578C105.579 41.5149 105.555 42.62 105.587 42.7134C105.619 42.8068 105.797 42.8832 105.984 42.8832C106.947 42.8832 107.226 40.1406 107.252 30.3895C107.291 16.1723 107.525 11.8274 108.46 7.98573C108.807 6.5599 108.896 5.85715 108.818 5.14372C108.427 1.56553 108.124 0.495734 107.408 0.169693C106.894 -0.064671 107.001 -0.0744934 106.47 0.255511ZM57.7466 1.4337C57.3408 1.56036 56.9143 1.73614 56.7988 1.82402C56.6834 1.91208 56.3175 2.08924 55.9858 2.21762C55.6541 2.34618 54.8398 2.69634 54.1764 2.99602C51.5362 4.18834 48.5134 5.1177 47.111 5.16854C46.0941 5.20541 45.4041 5.01275 43.5092 4.16318C42.5709 3.74236 41.4289 3.35376 40.9715 3.29965C38.5028 3.00722 35.3704 5.22902 32.176 9.53804C31.3328 10.6754 30.5056 11.761 30.3378 11.9506C29.3081 13.1136 29.0124 14.0168 29.5227 14.4402C30.0474 14.8757 31.4147 13.7671 33.6925 11.0597C36.2858 7.97711 37.0258 7.21732 38.15 6.48321C39.443 5.63882 39.3432 5.63416 43.5783 6.74136C44.0048 6.85285 45.3619 6.93591 46.594 6.92609C50.2198 6.89679 53.354 6.16044 56.6985 4.55247C57.7964 4.02463 58.8681 3.59278 59.0803 3.59278C59.3234 3.59278 59.7447 3.90297 60.2214 4.43305C61.0572 5.36275 61.8318 5.7367 64.3436 6.42307C65.1966 6.65623 66.67 7.08773 67.6178 7.38224C69.1115 7.84631 71.8533 8.27816 74.5066 8.46755C75.3699 8.52907 75.2314 8.04328 74.2143 7.4429C72.9832 6.7162 71.1932 6.09306 69.4272 5.7765C68.6216 5.63209 67.4584 5.42409 66.8424 5.31432C65.4463 5.06583 64.1601 4.39083 62.5166 3.04461C60.1246 1.08526 59.5181 0.880537 57.7466 1.4337ZM6.40701 5.45667C5.87021 5.78857 5.7999 6.62297 5.83075 12.2923C5.84764 15.4183 5.79835 17.9128 5.72097 17.8354C5.6436 17.7582 5.57019 15.6656 5.55761 13.1857C5.5402 9.7307 5.47334 8.4548 5.27207 7.72861C4.87485 6.29572 4.80472 6.17768 4.35133 6.17768C3.81798 6.17768 3.63686 6.64313 3.45695 8.47702L3.31909 9.88269L3.09628 9.10723C2.70389 7.74137 0.863269 6.37758 0.828632 7.42704C0.821566 7.64038 0.783827 8.00864 0.744709 8.24559C0.0342074 12.5546 -0.0721167 14.3611 0.0362766 20.2843C0.0910763 23.2831 0.18689 26.202 0.2491 26.7707C0.451755 28.6244 0.996824 30.3285 1.98098 32.1853C2.99185 34.0928 3.80919 35.1285 4.30325 35.1285C4.96808 35.1285 4.88123 34.8516 2.78936 30.3115C2.34648 29.35 1.5319 26.3586 1.33252 24.9612C1.17346 23.8468 1.24308 15.8741 1.44315 12.2953C1.46951 11.8214 1.50346 10.8133 1.51863 10.055L1.54585 8.67641L1.88379 9.31626C2.39077 10.2765 2.53087 11.9155 2.62789 18.023C2.72715 24.2687 2.75558 24.4275 3.8209 24.6914C4.80127 24.9342 5.0365 24.6081 5.01892 23.0317L5.00496 21.7732L5.20658 22.9331C5.31739 23.5711 5.52435 24.2009 5.66652 24.3329C6.08217 24.7184 6.99085 24.8186 7.2969 24.5125C7.62553 24.1839 7.62932 23.7544 7.31654 22.2583C6.97689 20.6333 6.89279 19.2721 6.77613 13.5084C6.71099 10.2942 6.73701 8.35002 6.84902 8.07327C6.98016 7.74912 7.03393 8.2823 7.06633 10.2273C7.08994 11.649 7.12233 13.0614 7.13819 13.3661C7.15404 13.6706 7.22315 15.0277 7.2919 16.3818C7.36066 17.7358 7.44682 19.0763 7.48353 19.3606C7.52006 19.645 7.64276 20.8857 7.75632 22.1179C7.86971 23.35 8.04032 24.4589 8.13527 24.5823C8.42478 24.9576 9.17043 24.7593 9.30123 24.2719C9.36499 24.035 9.36826 22.4065 9.30881 20.6531C9.13011 15.3827 9.29847 10.1412 9.64657 10.1412C9.73221 10.1412 9.80304 10.4708 9.80373 10.8736C9.80459 11.2763 9.92436 12.459 10.07 13.5015C10.507 16.6305 10.5921 22.3798 10.2421 25.1336C9.74428 29.0516 9.21248 30.921 8.02308 32.9325C7.2888 34.1747 7.19282 34.6115 7.65396 34.6115C8.21385 34.6115 10.1644 31.2661 10.9197 29.0109C11.31 27.8453 11.8341 24.8902 12.0045 22.8933C12.3974 18.2926 11.7328 10.898 10.5804 7.04792C10.3421 6.2516 10.147 5.58315 10.147 5.56265C10.147 5.54214 10.031 5.48079 9.8892 5.42634C9.56885 5.30347 9.06514 6.24971 8.80114 7.47013C8.6164 8.32366 8.34947 13.4967 8.34171 16.3728C8.33947 17.194 8.27933 17.9241 8.20833 17.9956C8.09046 18.1142 7.96742 15.3475 8.05462 14.5355C8.07495 14.3459 8.10011 14.0745 8.11062 13.9324C8.19954 12.7175 7.84231 7.3476 7.63362 6.76376C7.34446 5.95452 6.70461 5.27279 6.40701 5.45667ZM4.50625 11.6921C4.51073 14.1174 4.55226 14.8736 4.63877 14.1047C4.81247 12.5591 4.81454 9.68038 4.64239 8.84874C4.55002 8.40224 4.50211 9.40414 4.50625 11.6921ZM76.6167 8.52355C76.3194 8.82099 76.5567 9.35089 77.4749 10.4405C79.2095 12.499 81.7029 14.8381 83.5847 16.1726C86.3728 18.1499 86.878 18.9357 87.9623 22.9795C88.7864 26.0536 89.4597 27.3797 91.4624 29.8725C93.5515 32.4731 93.804 33.6989 93.2915 38.7522C92.8791 42.8173 92.8734 47.5889 93.2767 50.9779C93.6422 54.0494 93.5803 55.0739 92.9215 56.8611C92.3649 58.3706 91.9891 59.0139 90.2935 61.3567C88.8069 63.411 88.2911 64.4715 86.8849 68.3661C85.7831 71.4176 82.1822 75.9336 79.7803 77.2761C79.3515 77.5158 78.068 78.0336 76.9281 78.4269C74.9808 79.0986 74.7409 79.1415 72.9599 79.1374C71.9174 79.1348 70.171 79.0701 69.0793 78.9938C66.0888 78.7844 64.9421 79.026 63.2855 80.2146C61.6143 81.4136 61.1015 81.668 59.0015 82.339C57.0265 82.9699 54.6439 83.2902 53.1424 83.1265C51.6289 82.9615 49.1955 82.4079 48.5765 82.0878C47.6069 81.5865 43.0136 80.4615 41.9083 80.4548C41.0985 80.4498 40.9126 80.6218 41.0661 81.2335C41.235 81.9068 42.7968 82.5766 47.0412 83.7964C50.5937 84.8174 53.2101 85.1946 56.6751 85.1853C58.9231 85.1795 60.7108 84.516 63.563 82.6292C66.5111 80.6792 66.2445 80.7739 68.9849 80.7002C71.687 80.6273 74.0177 80.4743 76.7511 80.1899C78.991 79.9571 81.1702 78.9209 82.8394 77.2952C83.6898 76.467 86.3152 73.3406 86.3152 73.1561C86.3152 73.1114 86.597 72.6599 86.9413 72.1528C87.8141 70.8678 88.8686 68.5422 89.2741 67.0089C89.7138 65.3452 90.2184 64.3543 91.3585 62.9154C93.1095 60.7051 94.7047 57.8108 95.2028 55.94C95.5154 54.7654 95.5109 52.3833 95.1935 51.0687C94.7854 49.3783 94.865 47.5663 95.5462 43.0555C95.6965 42.0603 95.9298 40.687 96.0648 40.0039C96.534 37.6286 96.3098 33.7762 95.5969 31.9667C95.3226 31.2698 94.6088 30.1265 94.2359 29.7864C94.184 29.739 93.5579 28.9635 92.8448 28.0631C91.2395 26.0362 90.8622 25.1506 89.7616 20.8254C89.1948 18.5976 88.8946 17.8728 88.3125 17.3255C87.5887 16.6449 85.5039 15.1016 84.7643 14.6989C83.6635 14.0992 80.0643 11.0947 78.0222 9.07035C77.5302 8.58284 76.83 8.31039 76.6167 8.52355ZM51.9361 16.0297C46.5039 16.8909 42.574 18.1385 40.4032 19.6915C38.0127 21.4017 33.4543 26.9397 31.5977 30.3895C31.2406 31.053 30.8927 31.6733 30.8244 31.7681C30.4496 32.2887 28.8377 35.5238 28.5489 36.3348C27.3889 39.5917 27.3598 39.7801 27.467 43.3114C27.6178 48.2839 27.8746 51.2193 28.2704 52.501C28.75 54.0539 31.84 60.2061 33.0362 61.9904C33.5741 62.7924 34.6144 64.0555 35.348 64.7974C36.5755 66.0387 39.8607 68.6475 40.4737 68.8677C40.6174 68.9194 41.2002 69.3261 41.7689 69.7718C43.4653 71.1007 44.5514 71.6119 47.0307 72.2474C48.3069 72.5746 50.5761 73.1623 52.0731 73.5533C54.2587 74.1242 55.0566 74.2584 56.1228 74.2345C60.3251 74.1406 64.7639 72.6482 69.9687 69.5794C73.0315 67.7735 77.5068 63.3069 79.8401 59.7274C80.3684 58.9168 80.8008 58.213 80.8008 58.1633C80.8008 58.1137 81.0629 57.5052 81.3832 56.8111C81.9986 55.4776 83.0521 52.353 83.3822 50.8815C84.0932 47.7119 84.1856 42.4418 83.5771 39.751C82.8196 36.4008 81.9328 34.2546 79.7093 30.3895C78.1208 27.6283 77.7673 27.1975 75.6415 25.4289C74.6405 24.5963 73.1078 23.2249 72.2355 22.3815C68.4326 18.7048 66.9875 18.0585 59.1738 16.5416C56.2491 15.9737 53.5112 15.78 51.9361 16.0297ZM3.44885 17.7378C3.46126 18.5355 3.53192 19.7699 3.60584 20.4808C3.69942 21.3786 3.71648 20.9597 3.66185 19.1087C3.61842 17.6432 3.54777 16.409 3.50469 16.366C3.46161 16.3227 3.43645 16.9401 3.44885 17.7378ZM23.9767 17.5031C22.5381 18.3792 21.2998 19.4437 20.0558 20.8731C19.1517 21.9121 18.0349 23.4965 17.8422 24.0134C17.3332 25.3795 17.3006 25.6888 17.3501 28.6949C17.4119 32.4481 17.276 33.1266 15.8886 35.9901C14.5222 38.8102 14.3754 39.3603 14.3876 41.6152C14.3933 42.6714 14.4836 43.757 14.588 44.0278C14.6926 44.2987 14.9814 45.2182 15.2299 46.0712C15.4784 46.9242 15.881 48.2425 16.1243 49.0008C16.4695 50.0754 16.5787 50.8126 16.6201 52.3441C16.6727 54.2898 16.7979 54.6836 17.3027 54.4897C17.8602 54.2758 18.0838 52.4214 17.7361 50.8963C17.6496 50.5172 17.5283 49.6642 17.4664 49.0008C17.3366 47.6094 17.192 46.8272 16.7974 45.3819C16.267 43.44 16.0183 41.431 16.1729 40.3369C16.3401 39.1547 16.6346 38.5206 17.6315 37.1964C18.8166 35.6222 18.8059 35.6763 18.9498 30.4757C19.0218 27.8692 19.1645 25.3557 19.2669 24.8902C19.6263 23.253 20.4321 22.3047 23.337 20.0997C24.8675 18.9383 25.6886 17.9729 25.6236 17.4116C25.5466 16.7473 25.1849 16.7675 23.9767 17.5031ZM50.5036 17.8371C48.658 18.103 44.2478 19.1123 43.7424 19.3844C40.6929 21.0262 36.7276 25.0452 33.7666 29.4951C32.4429 31.4845 30.613 35.5762 30.168 37.5411C29.3171 41.2997 29.1729 43.3519 29.5244 46.6992C29.8604 49.8994 30.2013 51.5927 30.8551 53.3089C31.3745 54.672 32.896 58.0536 33.0652 58.2202C33.1133 58.2676 33.3785 58.7329 33.6545 59.2542C35.0842 61.9531 38.2586 65.5841 40.6872 67.2982C43.3036 69.1448 48.6154 71.2548 52.2808 71.9034C53.1338 72.0544 54.1031 72.2362 54.4349 72.3075C55.8898 72.6201 57.5393 72.4075 59.8631 71.6075C61.0953 71.1835 62.8013 70.6243 63.6543 70.3649C66.5835 69.4743 68.7693 68.2932 71.3763 66.1922C74.2121 63.9068 76.4671 61.289 78.1699 58.3064C78.9893 56.8712 80.3293 53.9491 80.7382 52.7058C81.619 50.0287 82.0927 44.7155 81.8215 40.5568C81.664 38.1413 81.1625 36.5605 79.753 34.0384C77.357 29.7504 74.3534 26.5859 69.1688 22.888C65.2071 20.0623 62.4653 18.7689 59.5185 18.3356C59.1394 18.28 58.5965 18.1921 58.3122 18.1406C58.0279 18.0889 57.5626 18.0124 57.2782 17.9703C56.4661 17.8505 51.1379 17.7456 50.5036 17.8371ZM63.6543 34.7871C59.0031 35.1356 58.0189 35.2493 47.1972 36.6906C44.6843 37.0253 44.0408 37.1569 42.9772 37.555C40.7366 38.3934 40.398 39.3186 40.3958 44.6064C40.3944 48.2205 40.5579 49.5646 41.0069 49.6254C41.7878 49.7312 41.7485 49.9012 41.7918 46.2435C41.8359 42.5175 42.1237 39.4413 42.4361 39.3577C43.0034 39.2057 45.3727 38.9083 52.1946 38.1327C54.3272 37.8902 56.3046 37.6626 56.5889 37.6267C59.4866 37.2615 60.5133 37.1046 62.4284 36.7341C63.6497 36.4978 65.1618 36.1333 65.7888 35.9241C66.7807 35.5931 66.9285 35.489 66.9285 35.1207C66.9285 34.7371 66.8561 34.6958 66.153 34.6779C65.7265 34.6668 64.6021 34.7159 63.6543 34.7871ZM69.0028 35.6898C68.6387 36.5612 68.426 37.9962 68.0383 42.1939C67.8415 44.3264 67.6199 46.6916 67.5458 47.4498C67.4093 48.8495 67.5274 49.4316 67.9475 49.4316C68.3383 49.4316 68.551 49.022 68.8955 47.6053C69.2675 46.0747 69.3392 45.3729 69.5989 40.7291C69.6995 38.9283 69.8114 37.0356 69.8474 36.5233C69.8834 36.011 69.8729 35.4876 69.8239 35.3601C69.6649 34.9458 69.2429 35.1152 69.0028 35.6898ZM5.402 37.1409C4.64411 37.2917 4.57276 37.6706 4.20761 43.4863C4.09146 45.3374 3.76232 48.1607 3.35097 50.8353C2.39749 57.0368 2.35269 57.6577 2.28462 65.6302C2.21207 74.143 2.36113 77.4997 3.01563 82.0822C3.30669 84.1202 3.61739 84.9096 4.43301 85.6844C4.91121 86.1386 5.02306 86.1693 5.78439 86.0557C7.13233 85.8546 9.0243 85.1884 9.69034 84.6804C10.4946 84.0669 11.1358 82.6936 11.4491 80.914C11.7763 79.0546 11.7633 78.2928 11.3636 75.9491C11.1798 74.8706 10.9852 73.4452 10.9313 72.7818C10.6816 69.7116 10.4841 67.8226 10.2468 66.2334C9.97123 64.3891 9.75944 62.3338 9.44753 58.4787C9.34017 57.1518 9.10391 55.2907 8.92245 54.3429C8.74099 53.3951 8.51852 51.185 8.42822 49.4316C8.33792 47.6782 8.11028 45.313 7.9221 44.1756C7.73409 43.0383 7.54246 41.6037 7.49628 40.9876C7.23331 37.4697 6.89262 36.844 5.402 37.1409ZM5.77664 38.058C5.72977 38.2002 5.64808 40.5654 5.59501 43.314C5.54193 46.0626 5.45904 48.6604 5.41062 49.0869C5.29533 50.103 4.46196 62.862 4.21192 67.4397C4.17056 68.1979 4.07371 69.9039 3.99685 71.2308C3.91999 72.5578 3.85709 75.1556 3.85709 77.0038C3.85709 80.9621 4.0756 81.9613 5.18401 83.0697C5.97878 83.8644 6.82748 83.9528 7.74271 83.3363C9.14096 82.394 9.53214 80.6519 9.39704 75.9698C9.34362 74.1216 9.21696 71.9115 9.11529 71.0585C9.01379 70.2055 8.89798 69.2362 8.85817 68.9044C8.81837 68.5727 8.66 66.9072 8.50611 65.203C8.3524 63.4991 8.07254 61.289 7.88401 60.2917C7.39151 57.6858 7.23762 56.0835 7.15404 52.6901C7.08098 49.7225 6.93329 47.4359 6.42717 41.4313C6.17833 38.4785 5.97912 37.4451 5.77664 38.058ZM104.151 43.7238C103.531 43.8563 103.298 44.4355 103.051 46.4543C102.862 48.0018 102.944 53.3206 103.208 56.5831C103.514 60.3853 103.456 69.6258 103.107 72.4371C102.472 77.5573 102.562 80.9533 103.46 85.7063C103.758 87.2815 104.242 87.8982 105.344 88.105C106.308 88.2858 106.963 87.8202 107.637 86.4752C108.648 84.4577 108.984 82.213 108.966 77.6069C108.96 76.0517 108.092 68.236 107.32 62.7869C106.873 59.6309 106.807 58.6564 106.801 55.1674C106.797 52.9672 106.83 51.1061 106.873 51.0316C106.98 50.849 106.691 47.0345 106.465 45.6404C106.366 45.0243 106.185 44.3876 106.065 44.2254C105.86 43.9492 105.048 43.5477 104.786 43.5928C104.721 43.604 104.436 43.663 104.151 43.7238ZM104.584 44.862C104.468 45.0026 104.304 45.7198 104.22 46.456C104.006 48.3456 104.016 56.8874 104.237 60.3743C104.346 62.0919 104.368 64.2663 104.291 65.6302C104.124 68.5812 104.112 81.4865 104.274 83.2291C104.428 84.8896 104.891 86.6425 105.288 87.0688C105.577 87.3799 105.617 87.382 106.034 87.1088C106.647 86.7071 107.355 85.2425 107.627 83.8107C107.754 83.1472 107.902 81.2085 107.957 79.5025C108.077 75.748 107.619 71.0573 106.643 66.0611C106.489 65.273 105.862 61.1315 105.397 57.8263C105.253 56.8028 105.261 56.0513 105.431 54.657C105.696 52.4867 105.701 49.5253 105.442 47.1212C105.157 44.4739 105.079 44.2663 104.584 44.862ZM61.0694 50.1274C58.6999 50.3988 56.1409 50.6246 55.3827 50.6291C53.9406 50.6377 51.0033 50.8834 49.0927 51.1552C48.4767 51.2429 47.2359 51.4051 46.3355 51.5153C43.7236 51.8357 42.9752 52.0433 42.9752 52.4473C42.9752 52.6897 43.0773 52.7807 43.3198 52.754C43.5094 52.7332 45.0215 52.6387 46.6802 52.5441C54.0762 52.1224 57.2534 51.813 63.6924 50.8865C65.8423 50.5772 66.37 50.3956 66.2933 49.9911C66.2125 49.5648 65.9145 49.5725 61.0694 50.1274ZM18.1948 60.397C17.987 60.6049 18.0669 62.7462 18.3161 63.6485C19.0499 66.3058 20.3158 67.6141 23.1576 68.652C24.3844 69.1 25.5866 69.9879 26.7541 71.3079C27.7412 72.424 28.9306 74.3853 28.9306 74.8967C28.9306 75.3743 29.9811 76.991 30.6802 77.5895C31.5139 78.3031 32.7581 78.9049 34.2484 79.3154C34.8512 79.4813 35.6828 79.7622 36.0966 79.9395C36.7709 80.2285 36.8762 80.2347 37.1118 79.9992C37.2563 79.8546 37.3746 79.6816 37.3746 79.6147C37.3746 79.2022 36.6734 78.6952 35.2151 78.0531C31.4588 76.3993 31.0528 76.0076 29.4825 72.5233C28.2488 69.7857 25.4165 67.2358 22.6638 66.3843C21.423 66.0006 21.0895 65.5984 20.1797 63.3878C19.8095 62.4886 19.3587 61.4438 19.1779 61.0658C18.8648 60.4119 18.4573 60.1346 18.1948 60.397Z" fill="#021436"/>
</g>
</svg>
