<svg preserveAspectRatio="none" width="100%" height="100%" overflow="visible" style="display: block;" viewBox="0 0 114.021 61.7258" fill="none" xmlns="http://www.w3.org/2000/svg">
<g id="Group 9">
<path id="Vector" d="M2.62306 53.5468C3.31678 51.9894 3.8829 50.7207 4.44702 49.4541C4.54037 49.2434 4.60364 49.0049 4.744 48.8317C4.84683 48.7055 5.06817 48.5913 5.21405 48.6147C5.36614 48.6378 5.52 48.8141 5.62089 48.9593C5.68899 49.0603 5.71249 49.2395 5.67775 49.3589C5.25125 50.7569 6.0253 51.8682 6.54399 53.2317C7.17195 51.3123 7.36914 49.5007 7.61413 47.6935C7.78175 46.4568 7.9947 45.2141 8.32944 44.0144C8.78453 42.3917 9.80237 41.6109 11.4799 41.5544C13.1533 41.498 14.83 41.5824 16.5066 41.5549C19.1725 41.5119 21.4554 40.3985 21.9572 37.2496C22.1189 36.2347 21.6996 35.5157 21.1066 34.853C20.0068 33.6218 18.7082 32.6571 17.1329 32.0883C16.7506 31.9498 16.3699 31.745 16.0636 31.4834C15.8923 31.3368 15.7559 30.9713 15.8164 30.7681C15.9577 30.2966 15.819 29.9768 15.5361 29.6232C14.6742 28.5422 14.7821 27.691 15.8693 26.6693C18.5654 24.1357 22.9415 23.8071 25.6703 25.8205C27.0156 26.8144 28.2747 27.936 29.4994 29.0775C30.9174 30.398 32.5321 30.9694 34.4617 30.843C35.9078 30.7478 37.0047 30.0282 38.0256 29.1126C39.4949 27.7966 40.6476 26.2174 41.7915 24.6239C42.9293 23.037 44.0479 21.4321 45.5299 20.1218C46.6935 19.0931 47.9729 18.2732 49.4467 17.7689C49.5611 17.7292 49.6947 17.7551 50.0152 17.7428C49.7864 18.0395 49.6978 18.2645 49.5335 18.3537C46.9066 19.7849 45.1456 22.0214 43.6056 24.5124C42.3327 26.5706 40.9921 28.5921 39.1922 30.2543C38.1523 31.2141 37.0388 32.0379 35.619 32.331C33.2992 32.81 31.1669 32.4077 29.3362 30.8588C28.2335 29.9238 27.2099 28.8947 26.1389 27.9232C24.5012 26.4373 22.6175 25.7148 20.3739 26.021C19.0862 26.1971 17.9768 26.7515 16.9621 27.5053C16.3016 27.9947 16.2867 28.2521 16.7379 29.0466C16.9933 29.4944 17.2641 29.9085 17.1077 30.4697C17.0001 30.8487 17.3482 30.9057 17.5872 31.0352C18.3977 31.4823 19.2715 31.8504 19.9973 32.4105C20.8363 33.0574 21.6153 33.8144 22.2909 34.6292C23.2402 35.7751 23.1458 37.1913 22.8009 38.5011C22.0533 41.3447 19.6938 42.6206 17.8094 42.7369C16.5573 42.8142 15.3033 42.844 14.0522 42.8924C13.4917 42.914 12.9329 42.9253 12.3728 42.9552C10.403 43.0582 9.90386 43.4337 9.55007 45.3197C9.18046 47.2788 8.82525 49.2353 8.25527 51.1545C8.03905 51.8836 8.17903 52.719 8.15148 53.5071C8.13122 54.1086 8.16736 54.7223 8.06581 55.3103C7.98977 55.7544 7.79863 56.2216 7.21521 56.2917C6.65239 56.359 6.3356 56.0399 6.13173 55.588C5.74907 54.7432 5.38471 53.8895 5.03458 53.029C4.86063 52.6008 4.73567 52.1541 4.56274 51.6451C3.97219 52.3886 3.67453 53.2079 3.36438 54.0256C3.29474 54.2064 3.103 54.4437 2.94623 54.4601C2.76886 54.4794 2.48741 54.3245 2.39424 54.1645C2.16549 53.7653 2.00554 53.3242 1.83978 52.8935C0.350654 49.0345 1.33042 44.7488 4.18358 42.0993C5.3672 40.9994 6.78355 40.2943 8.29745 39.8092C10.1571 39.2133 12.0767 38.8823 14.0133 38.617C14.7798 38.5128 15.5267 38.225 16.2688 37.9727C16.5407 37.8814 16.5558 37.5743 16.3425 37.4148C15.9736 37.1411 15.5686 36.8979 15.1492 36.7091C14.5568 36.442 13.9149 36.2845 13.3382 35.992C12.8481 35.7437 12.3838 35.4137 11.974 35.0443C11.4527 34.5777 11.28 33.9693 11.5246 33.2764C11.6329 32.9698 11.6865 32.6425 11.8222 32.3494C12.0534 31.8455 12.0732 31.3953 11.7397 30.9111C10.5023 29.1176 11.0588 27.4392 12.1935 25.8772C13.3638 24.2704 14.8719 23.0461 16.7018 22.2173C18.0127 21.624 19.2861 20.9701 20.7061 20.6273C22.4277 20.2108 24.0492 20.4215 25.5391 21.298C26.8996 22.0967 28.157 23.0651 29.4805 23.9252C30.2198 24.4041 30.9846 24.8489 31.7705 25.2472C32.55 25.6417 33.363 25.6165 34.2132 25.3765C36.5263 24.7238 38.3442 23.3156 40.0702 21.7246C41.0941 20.7799 42.1872 19.9113 43.2609 19.0206C43.4254 18.8838 43.6531 18.8253 43.9695 18.8669C43.8153 19.0572 43.6784 19.2655 43.5026 19.4338C41.9569 20.9185 40.4545 22.4512 38.8416 23.8597C37.3971 25.123 35.7377 26.0218 33.8157 26.4523C32.7849 26.6827 31.8463 26.5657 30.9883 26.1225C29.5872 25.3999 28.2574 24.54 26.9025 23.7266C26.4254 23.4385 25.9832 23.089 25.4963 22.8158C23.7686 21.8428 21.936 21.692 20.1189 22.4229C18.6158 23.0278 17.1684 23.7858 15.7446 24.5657C14.4952 25.2519 13.5753 26.3147 12.8734 27.5535C12.406 28.3751 12.3066 29.2343 12.7764 30.0819C13.3175 31.0593 13.3205 31.9954 12.8231 33.0067C12.368 33.9314 12.5801 34.4348 13.4916 34.9236C13.8152 35.0975 14.191 35.1741 14.5263 35.3289C15.2834 35.6807 16.035 36.0493 16.7846 36.4201C17.8001 36.9214 18.044 38.3018 16.6901 39.0686C15.5652 39.7044 14.3224 39.8622 13.0898 40.0693C10.929 40.4303 8.81466 40.92 6.86258 41.9647C4.91058 43.0115 3.61234 44.5757 3.05951 46.7241C2.34428 49.4939 2.27014 49.9338 2.6334 53.5464L2.62306 53.5468Z" fill="#EADEE3"/>
<path id="Vector_2" d="M111 56.9418C111.335 57.3493 111.76 57.7844 112.086 58.2855C112.493 58.9139 112.287 59.3298 111.606 59.5343C109.99 60.0192 108.499 59.7951 107.115 58.8275C106.657 58.5076 106.207 58.1667 105.715 57.9103C104.353 57.1965 103.83 55.9326 103.461 54.5675C103.019 52.9401 103.247 51.3531 103.815 49.7964C104.18 48.7944 104.616 47.8124 104.912 46.7902C105.307 45.4246 104.555 44.7287 103.132 44.9266C101.189 45.1984 99.2385 45.3194 97.3284 44.6641C95.4772 44.0294 94.1201 42.8909 93.2936 41.065C92.7206 39.7989 92.0069 38.5859 91.2654 37.407C89.756 35.0048 90.0321 33.7888 92.5738 32.5141C93.7299 31.9351 94.9581 31.5045 96.1521 30.9965C96.5679 30.821 96.9701 30.617 97.4054 30.4137C97.0313 29.1461 96.2991 28.3688 95.2111 27.922C94.6555 27.6929 94.0825 27.4975 93.5063 27.3251C92.5235 27.0296 91.5625 27.1372 90.6794 27.6539C89.9989 28.053 89.343 28.4987 88.6956 28.9504C87.2133 29.9853 85.5998 30.5716 83.7704 30.663C81.3766 30.7824 79.0478 30.6011 76.7585 29.8321C75.0525 29.258 73.4765 28.4573 72.1685 27.2506C70.5276 25.7358 69.02 24.0771 67.4327 22.5022C66.6057 21.6829 65.7548 20.8873 64.8742 20.1281C63.3489 18.8159 61.5081 18.1849 59.568 17.8249C59.1049 17.7393 58.7104 17.6054 58.0534 17.1668C58.6987 17.0881 59.052 16.9584 59.3651 17.0209C61.8134 17.5104 64.0822 18.4438 66.0124 20.0489C66.9753 20.8505 67.8236 21.7912 68.7233 22.6719C70.3874 24.3038 71.9718 26.0176 73.914 27.3447C75.9286 28.7229 78.1851 29.3379 80.5689 29.6041C81.1679 29.67 81.7697 29.7524 82.3726 29.7581C84.3162 29.7803 86.1522 29.378 87.7868 28.2627C88.2469 27.9487 88.7307 27.6608 89.1691 27.3208C91.2745 25.6881 93.4709 25.8746 95.7073 26.9874C96.7315 27.4987 97.5549 28.225 98.0639 29.2844C98.5506 30.3011 98.4412 30.9536 97.5182 31.563C97.0213 31.8908 96.4433 32.0995 95.9003 32.3587C94.8143 32.877 93.693 33.3366 92.647 33.9259C91.5849 34.5262 91.4618 35.0383 92.0893 36.1097C93.0538 37.7542 93.9571 39.4218 94.7653 41.1511C95.4967 42.7134 96.9829 43.3851 98.5713 43.7048C99.9803 43.988 101.395 44.0451 102.852 43.6844C105.139 43.1176 106.78 45.0197 106.035 47.2729C105.759 48.11 105.382 48.9136 105.053 49.732C104.563 50.9501 104.343 52.2013 104.45 53.5248C104.623 55.6576 105.931 56.9637 107.608 58.0173C107.96 58.2377 108.373 58.3647 108.725 58.5831C109.417 59.012 110.093 59.0998 110.892 58.5449C110.482 58.2252 110.096 57.9212 109.707 57.6173C109.34 57.3311 108.948 57.0687 108.617 56.746C108.473 56.6066 108.328 56.2829 108.395 56.1539C108.505 55.9446 108.772 55.7313 109.003 55.6934C109.361 55.634 109.75 55.677 110.111 55.7521C111.036 55.9421 111.823 55.6197 112.81 55.1052C111.321 55.0716 110.169 54.6294 109.165 53.8853C107.557 52.6943 106.674 51.1586 107.123 49.07C107.25 48.4811 107.303 47.8763 107.44 47.2911C107.808 45.7132 107.329 44.7893 106.119 43.6638C105.389 42.9837 104.686 43.0129 103.857 42.9662C102.143 42.8709 100.44 42.7109 98.8751 41.8642C97.13 40.9209 95.8116 38.5859 96.6311 36.2636C97.0567 35.0583 97.8891 34.1935 99.0438 33.687C99.718 33.3918 100.447 33.2248 101.155 33.0069C101.331 32.9525 101.519 32.9369 101.697 32.8845C103.769 32.2721 104.326 31.0307 103.354 29.0696C102.172 26.6858 100.293 25.0145 97.9258 23.8343C96.0927 22.9193 94.2025 22.4559 92.1334 22.6704C90.7884 22.8094 89.6932 23.5165 88.4982 24.0018C87.8538 24.2628 87.2487 24.6279 86.5899 24.8377C84.6052 25.4674 82.6286 25.2331 80.7189 24.5343C78.7357 23.8094 76.9555 22.708 75.353 21.3284C74.9651 20.9933 74.5772 20.6562 74.1973 20.3105C72.4431 18.7048 70.2913 18.0631 68.0061 17.7247C67.5333 17.6539 67.0685 17.5248 66.6261 17.3327C69.6497 17.1103 72.3707 17.8502 74.8023 19.7279C76.1601 20.7773 77.6149 21.7111 79.0768 22.6136C81.1052 23.8649 83.3583 24.2335 85.6639 23.7613C86.8187 23.524 87.8872 22.8738 89.0053 22.4371C89.7765 22.136 90.5563 21.8408 91.3488 21.6072C93.0731 21.0994 94.761 21.4194 96.3967 21.9941C99.6217 23.1267 102.248 25.0529 103.953 28.0689C104.353 28.7784 104.65 29.6057 104.756 30.4094C104.971 32.0662 104.102 33.2804 102.499 33.7959C101.75 34.0361 100.98 34.2149 100.238 34.4714C99.3899 34.7652 98.5862 35.1897 98.1198 35.9844C97.2998 37.3831 97.324 38.8133 98.6138 40.1926C99.5406 41.184 100.795 41.5892 102.051 41.9445C103.029 42.2215 104.034 42.4022 105.014 42.673C106.35 43.0398 107.403 43.8234 108.076 45.038C108.516 45.8329 108.569 46.7235 108.467 47.6201C108.395 48.2649 108.333 48.9094 108.275 49.5558C108.126 51.2122 108.992 52.3075 110.321 53.0847C110.916 53.4324 111.601 53.6255 112.247 53.8822C112.461 53.9671 112.729 53.9713 112.898 54.1077C113.246 54.3883 113.694 54.6817 113.823 55.064C113.98 55.5281 113.431 55.7522 113.078 55.9419C112.396 56.3079 111.683 56.6172 111 56.9418Z" fill="#EADEE3"/>
<path id="Vector_3" d="M29.4564 15.861C29.3607 14.6179 29.5867 13.6046 30.6212 12.8812C31.809 12.0503 33.071 11.3699 34.456 10.927C34.81 10.8139 35.1591 10.6844 35.5206 10.6042C36.7606 10.3222 37.5348 9.61504 37.913 8.35981C38.2306 7.30576 39.036 6.54767 39.9381 5.93497C41.3449 4.98174 42.8025 5.18432 44.1508 5.98761C45.2235 6.62757 46.1855 7.45821 47.1823 8.2233C47.5516 8.50728 47.8833 8.83827 48.2249 9.15646C49.4475 10.296 50.8047 11.3309 51.2543 13.2646C51.578 12.9062 51.7678 12.6731 51.9814 12.4639C52.3426 12.1103 52.6768 11.7018 53.0996 11.439C54.222 10.7391 54.8879 10.9267 55.7636 12.0962C55.7036 12.1524 55.6314 12.267 55.5855 12.2584C54.1298 11.9439 53.7651 12.0471 53.0668 13.2712C52.7525 13.8218 52.5416 14.4741 52.4603 15.1027C52.3302 16.1309 53.2366 16.8622 54.245 16.5871C54.8659 16.4161 55.4978 16.2053 56.0443 15.8776C56.2953 15.7271 56.4285 15.2601 56.4733 14.9187C56.5456 14.3774 56.4992 13.822 56.5038 12.9748C56.8021 13.3505 56.9789 13.4783 57.0225 13.6423C57.1936 14.2653 57.3217 14.9004 57.4664 15.5348C58.9357 15.2895 60.3443 15.1896 61.7774 15.3993C63.1792 15.604 64.5691 15.395 65.9171 15.0115C68.0129 14.4169 70.0613 14.7396 72.1151 15.2008C72.9299 15.3826 73.7432 15.5811 74.568 15.7004C76.1717 15.9305 77.7255 15.6758 79.1885 14.9979C80.3178 14.4759 80.727 13.5943 80.4951 12.3647C80.4273 12.0028 80.2977 11.6495 80.1662 11.3025C79.6911 10.0471 79.1525 8.81281 78.7429 7.53831C78.5734 7.0105 78.3517 6.79538 77.8272 6.67481C76.9809 6.47968 76.2689 5.90242 75.3152 5.93098C74.0739 5.96651 72.9331 6.24669 71.8412 6.82531C70.6092 7.47768 69.3688 8.12623 67.9806 8.38077C67.5282 8.46452 67.0315 8.58106 66.603 8.47956C65.3614 8.18579 64.4295 8.72508 63.5506 9.45701C63.0149 9.90437 62.4989 10.38 62 10.8694C60.8505 11.9949 59.4724 12.7234 57.721 13.3875C58.0042 12.9976 58.0993 12.7267 58.2803 12.6389C60.0538 11.7979 61.3592 10.4178 62.627 8.97698C63.6626 7.79784 64.9267 7.17323 66.567 7.38738C67.7536 7.54244 68.8586 7.14144 69.9244 6.6384C71.0981 6.08562 72.2434 5.49459 73.5138 5.13898C75.2431 4.65586 76.7166 5.00074 78.078 6.08934C78.2127 6.19805 78.3612 6.28966 78.538 6.41538C78.8251 4.78673 78.3093 3.49976 77.1575 2.47348C76.8722 2.21939 76.4259 2.03366 76.0487 2.02545C75.3085 2.00641 74.5437 2.04425 73.8297 2.22095C72.5742 2.5325 71.3543 2.53199 70.1241 2.15701C69.6378 2.00803 69.1401 1.88435 68.6594 1.71859C67.2383 1.22879 65.85 1.4274 64.4372 1.79473C62.3928 2.3273 61.2728 3.83901 60.3551 5.55002C59.4743 7.19748 58.4551 8.74672 57.3234 10.2257C57.1204 10.4925 56.8255 10.6882 56.5755 10.9174C56.5008 10.8602 56.4282 10.803 56.3535 10.7458C56.5286 10.3994 56.6888 10.0431 56.883 9.70841C57.7198 8.26355 58.5693 6.82443 59.4123 5.37933C59.692 4.89838 59.9695 4.41544 60.2364 3.92669C61.2747 2.01219 62.9551 1.17266 65.0314 0.71756C66.6375 0.36555 68.0577 0.673128 69.5088 1.1887C70.7835 1.64067 72.0339 2.00245 73.4349 1.65008C74.28 1.43724 75.1965 1.51781 76.0803 1.45053C76.6874 1.40429 77.1449 1.66622 77.5845 2.05311C78.8277 3.14006 79.3 4.58819 79.3913 6.14837C79.4759 7.58662 79.8927 8.8857 80.6126 10.0985C81.2263 11.1331 81.4637 12.2382 81.4745 13.4287C81.4837 14.524 81.0418 15.3633 80.1098 15.8467C79.2956 16.2696 78.4071 16.5898 77.5173 16.8271C75.6804 17.3144 73.8144 17.1545 72.0057 16.7107C70.4374 16.326 68.8849 16.2928 67.2995 16.3748C65.2966 16.4791 63.2902 16.5463 61.2844 16.5761C60.5454 16.5881 59.7368 16.6193 59.0802 16.3485C57.9205 15.8714 57.0838 16.4091 56.1881 16.9201C55.7038 17.1956 55.2443 17.5261 54.737 17.7424C52.8479 18.5424 51.121 17.4803 50.9484 15.4262C50.9179 15.065 50.9802 14.6939 51.0041 14.2414C48.0386 14.1965 45.1077 14.2974 42.3653 15.7413C41.0155 16.452 39.5994 17.0577 38.1682 17.5914C37.3106 17.9104 36.3753 18.0935 35.4627 18.1661C33.3359 18.3332 31.524 17.1646 30.5107 14.9524C30.8351 15.147 31.0549 15.2069 31.1577 15.35C31.7514 16.1886 32.6441 16.6181 33.5175 17.0296C34.2326 17.3665 35.01 17.3862 35.8303 17.2281C38.2851 16.7584 40.4428 15.567 42.6933 14.5812C45.2208 13.4728 47.8663 13.1676 50.5961 13.6524C50.8109 13.6897 51.041 13.6415 51.3326 13.6302C50.9859 13.3412 50.6501 13.174 50.4844 12.9049C49.6556 11.5555 48.3648 10.6858 47.2058 9.68877C46.3981 8.993 45.5088 8.38323 44.6221 7.78786C44.0885 7.43153 43.5142 7.09541 42.91 6.89507C41.4625 6.41871 40.1021 7.01598 39.3879 8.36497C39.2141 8.69271 39.0659 9.0381 38.9323 9.385C38.4885 10.5496 37.6766 11.2996 36.4884 11.6935C35.3024 12.0873 34.1216 12.5098 32.9678 12.9873C32.3725 13.2339 31.7826 13.5633 31.291 13.9737C30.673 14.4905 30.1571 15.1277 29.4523 15.8632L29.4564 15.861Z" fill="#EADEE3"/>
<path id="Vector_4" d="M50.688 16.8467C49.7393 17.2727 48.939 17.2518 48.0888 17.1728C46.1184 16.9921 44.1943 17.3668 42.3578 18.0798C40.456 18.8161 38.5862 19.6318 36.7094 20.4292C35.7273 20.8462 34.7443 21.1886 33.6498 21.1647C32.0846 21.1278 30.9196 20.3505 29.9042 19.2631C27.9187 17.1382 27.2009 14.6432 27.8453 11.8078C28.0065 11.1015 28.3052 10.363 28.7388 9.79119C30.146 7.93906 31.5827 6.1003 33.1228 4.3611C35.3376 1.86057 38.2338 0.700678 41.5284 0.579602C43.2513 0.517182 44.808 1.03282 46.1009 2.2794C47.4862 3.61148 48.7123 5.0574 49.7482 6.6743C50.3498 7.61206 51.0181 8.50583 51.6299 9.437C51.9424 9.91371 52.3554 10.3658 52.3198 11.3199C51.5749 10.4809 50.9877 9.86361 50.4527 9.20287C49.9264 8.55422 49.4281 7.87757 48.9641 7.18095C47.9482 5.65235 46.6344 4.40242 45.2965 3.17C44.358 2.30532 43.2515 1.91727 41.985 1.94342C38.8601 2.0103 36.1485 3.06986 34.0674 5.43888C32.5615 7.14983 31.1672 8.96004 29.7533 10.7482C29.5026 11.0665 29.3217 11.4774 29.2252 11.8746C28.4655 14.9941 29.2979 17.6689 31.6753 19.4846C32.706 20.2712 33.8866 20.4327 35.1135 20.0249C35.9479 19.7483 36.7812 19.4447 37.57 19.0622C39.7923 17.9884 42.0916 17.1394 44.4936 16.5889C46.5157 16.1256 48.5352 16.1822 50.69 16.8466L50.688 16.8467Z" fill="#EADEE3"/>
<path id="Vector_5" d="M59.7235 13.8549C60.5659 12.7682 61.6314 12.1491 62.9313 12.0761C65.1096 11.9526 67.2789 11.8129 69.4781 12.02C71.746 12.2327 73.8803 11.562 75.8027 10.2865C76.5519 9.78944 77.0227 9.16233 77.0491 8.23758C77.0511 8.1298 77.1569 8.0263 77.2324 7.89083C77.7902 8.97941 77.7467 9.67493 77.0665 10.5649C76.4613 11.3567 75.6922 11.9829 74.7829 12.3556C72.8399 13.1535 70.8771 13.6539 68.6967 13.3446C66.0727 12.9717 63.4147 13.0081 60.8167 13.7381C60.4705 13.8364 60.0908 13.82 59.7257 13.8569L59.7235 13.8549Z" fill="#EADEE3"/>
<path id="Vector_6" d="M69.5027 21.1797C69.8043 20.6772 70.2403 20.7598 70.6393 20.8479C71.8467 21.1119 72.9561 21.6303 73.713 22.618C74.653 23.8451 75.9239 24.5748 77.2333 25.2822C77.5992 25.4793 77.9813 25.6655 78.312 25.9157C79.6219 26.9069 81.0636 27.6072 82.8871 28.0048C81.5179 28.3228 80.3958 28.1735 79.3543 27.7001C78.0114 27.0893 76.6968 26.4069 75.4155 25.6755C74.6128 25.2157 73.8871 24.6058 73.3819 23.8052C72.5457 22.4788 71.3924 21.6307 69.8461 21.3301C69.7334 21.3075 69.6292 21.239 69.5049 21.1838L69.5027 21.1797Z" fill="#EADEE3"/>
<path id="Vector_7" d="M64.4554 5.4827C64.2335 5.63832 64.0139 5.798 63.7921 5.95155C62.5273 6.82681 61.3529 7.79177 60.6049 9.17727C60.0579 10.1905 59.1896 10.8744 58.2258 11.4439C57.9747 11.5924 57.6639 11.6437 57.2593 11.5703C57.3755 11.4167 57.4702 11.239 57.6103 11.1135C58.4708 10.3346 59.3227 9.54783 59.8556 8.49167C60.7886 6.6413 62.5001 5.91034 64.4575 5.48469L64.4554 5.4827Z" fill="#EADEE3"/>
<path id="Vector_8" d="M30.4877 28.0306C30.8746 28.1254 31.2581 28.2431 31.6502 28.3129C32.4782 28.4611 33.3043 28.5617 34.0583 28.0293C34.2075 27.9241 34.3949 27.7885 34.5569 27.7988C35.7216 27.8718 36.7105 27.3614 37.7248 26.9184C37.8043 26.8842 37.9517 27.0007 38.1727 27.0916C37.2254 27.8759 36.3601 28.5845 35.1128 28.5706C34.8558 28.5681 34.5426 28.663 34.3479 28.8238C33.3566 29.6471 32.3647 29.3291 31.3813 28.8576C31.0331 28.6909 30.7367 28.4165 30.4173 28.1907C30.4422 28.1379 30.4671 28.0852 30.4899 28.0325L30.4877 28.0306Z" fill="#EADEE3"/>
</g>
</svg>
