<svg preserveAspectRatio="none" width="100%" height="100%" overflow="visible" style="display: block;" viewBox="0 0 114.021 61.7259" fill="none" xmlns="http://www.w3.org/2000/svg">
<g id="Group 9">
<path id="Vector" d="M2.62306 53.5468C3.31678 51.9894 3.8829 50.7207 4.44702 49.4542C4.54037 49.2435 4.60364 49.0049 4.744 48.8317C4.84682 48.7055 5.06817 48.5914 5.21405 48.6147C5.36614 48.6378 5.52 48.8142 5.62089 48.9594C5.68899 49.0603 5.71249 49.2396 5.67775 49.359C5.25125 50.7569 6.0253 51.8682 6.54399 53.2317C7.17195 51.3123 7.36914 49.5008 7.61413 47.6935C7.78175 46.4568 7.9947 45.2142 8.32944 44.0145C8.78453 42.3918 9.80237 41.611 11.4799 41.5544C13.1533 41.4981 14.83 41.5824 16.5066 41.5549C19.1725 41.512 21.4554 40.3986 21.9572 37.2497C22.1189 36.2348 21.6996 35.5157 21.1066 34.8531C20.0068 33.6218 18.7082 32.6571 17.1329 32.0884C16.7506 31.9499 16.3699 31.745 16.0636 31.4835C15.8923 31.3368 15.7559 30.9714 15.8164 30.7681C15.9577 30.2967 15.819 29.9768 15.5361 29.6233C14.6742 28.5423 14.7821 27.691 15.8693 26.6694C18.5654 24.1357 22.9415 23.8072 25.6703 25.8205C27.0156 26.8145 28.2747 27.936 29.4994 29.0776C30.9174 30.398 32.5321 30.9694 34.4617 30.8431C35.9078 30.7479 37.0047 30.0282 38.0256 29.1127C39.4949 27.7967 40.6476 26.2174 41.7915 24.624C42.9293 23.037 44.0479 21.4322 45.5299 20.1219C46.6935 19.0931 47.9729 18.2732 49.4467 17.7689C49.5611 17.7293 49.6947 17.7552 50.0152 17.7428C49.7864 18.0395 49.6978 18.2646 49.5335 18.3538C46.9066 19.7849 45.1456 22.0215 43.6056 24.5125C42.3327 26.5707 40.9921 28.5921 39.1922 30.2544C38.1523 31.2141 37.0388 32.038 35.619 32.331C33.2992 32.81 31.1669 32.4078 29.3362 30.8588C28.2335 29.9239 27.2099 28.8947 26.1389 27.9233C24.5012 26.4373 22.6175 25.7148 20.3739 26.021C19.0862 26.1971 17.9768 26.7516 16.9621 27.5053C16.3016 27.9948 16.2867 28.2522 16.7379 29.0466C16.9933 29.4945 17.2641 29.9086 17.1077 30.4697C17.0001 30.8487 17.3482 30.9057 17.5872 31.0352C18.3977 31.4824 19.2715 31.8504 19.9973 32.4106C20.8363 33.0575 21.6153 33.8144 22.2909 34.6292C23.2402 35.7752 23.1458 37.1913 22.8009 38.5012C22.0533 41.3448 19.6938 42.6206 17.8094 42.7369C16.5573 42.8143 15.3033 42.8441 14.0522 42.8924C13.4917 42.9141 12.9329 42.9253 12.3728 42.9552C10.403 43.0583 9.90386 43.4338 9.55007 45.3198C9.18046 47.2789 8.82525 49.2353 8.25527 51.1545C8.03905 51.8836 8.17903 52.7191 8.15148 53.5072C8.13122 54.1086 8.16736 54.7223 8.06581 55.3103C7.98977 55.7544 7.79863 56.2216 7.21521 56.2918C6.65239 56.3591 6.3356 56.0399 6.13173 55.588C5.74907 54.7433 5.38471 53.8896 5.03458 53.0291C4.86062 52.6008 4.73567 52.1542 4.56274 51.6451C3.97219 52.3887 3.67453 53.2079 3.36438 54.0256C3.29474 54.2064 3.103 54.4437 2.94623 54.4601C2.76886 54.4794 2.48741 54.3246 2.39424 54.1646C2.16549 53.7654 2.00554 53.3242 1.83978 52.8936C0.350654 49.0346 1.33042 44.7488 4.18358 42.0994C5.3672 40.9994 6.78355 40.2944 8.29745 39.8092C10.1571 39.2134 12.0767 38.8824 14.0133 38.617C14.7798 38.5128 15.5267 38.2251 16.2688 37.9727C16.5407 37.8815 16.5558 37.5743 16.3425 37.4148C15.9736 37.1412 15.5686 36.8979 15.1492 36.7091C14.5568 36.442 13.9149 36.2846 13.3382 35.992C12.8481 35.7438 12.3838 35.4138 11.974 35.0444C11.4527 34.5778 11.28 33.9693 11.5246 33.2764C11.6329 32.9698 11.6865 32.6426 11.8222 32.3495C12.0534 31.8455 12.0732 31.3953 11.7397 30.9111C10.5023 29.1177 11.0588 27.4393 12.1935 25.8773C13.3638 24.2704 14.8719 23.0461 16.7018 22.2174C18.0127 21.6241 19.2861 20.9701 20.7061 20.6274C22.4277 20.2108 24.0492 20.4216 25.5391 21.2981C26.8996 22.0968 28.157 23.0651 29.4805 23.9253C30.2198 24.4042 30.9846 24.8489 31.7705 25.2473C32.55 25.6417 33.363 25.6165 34.2132 25.3766C36.5263 24.7239 38.3442 23.3157 40.0702 21.7246C41.0941 20.78 42.1872 19.9113 43.2609 19.0207C43.4254 18.8839 43.6531 18.8254 43.9695 18.867C43.8153 19.0573 43.6784 19.2655 43.5026 19.4339C41.9569 20.9185 40.4545 22.4512 38.8416 23.8598C37.3971 25.1231 35.7377 26.0219 33.8157 26.4524C32.7849 26.6827 31.8463 26.5657 30.9883 26.1225C29.5872 25.4 28.2574 24.54 26.9025 23.7266C26.4254 23.4385 25.9832 23.089 25.4963 22.8158C23.7686 21.8429 21.936 21.692 20.1189 22.4229C18.6158 23.0278 17.1684 23.7858 15.7446 24.5658C14.4952 25.2519 13.5753 26.3148 12.8734 27.5535C12.406 28.3752 12.3066 29.2344 12.7764 30.082C13.3175 31.0594 13.3205 31.9954 12.8231 33.0067C12.368 33.9314 12.5801 34.4348 13.4916 34.9236C13.8152 35.0975 14.191 35.1741 14.5263 35.3289C15.2834 35.6808 16.035 36.0494 16.7846 36.4202C17.8001 36.9215 18.044 38.3018 16.6901 39.0687C15.5652 39.7045 14.3224 39.8623 13.0898 40.0694C10.929 40.4304 8.81466 40.9201 6.86258 41.9648C4.91058 43.0116 3.61234 44.5757 3.05951 46.7242C2.34428 49.494 2.27014 49.9339 2.6334 53.5464L2.62306 53.5468Z" fill="#EADEE3"/>
<path id="Vector_2" d="M111 56.9418C111.334 57.3493 111.759 57.7844 112.085 58.2855C112.492 58.9139 112.287 59.3298 111.605 59.5343C109.99 60.0192 108.498 59.7952 107.114 58.8275C106.657 58.5076 106.207 58.1667 105.714 57.9103C104.353 57.1965 103.83 55.9327 103.46 54.5675C103.018 52.9401 103.247 51.3531 103.814 49.7964C104.179 48.7944 104.616 47.8124 104.912 46.7902C105.306 45.4246 104.554 44.7287 103.131 44.9266C101.188 45.1985 99.2379 45.3194 97.3278 44.6641C95.4766 44.0294 94.1195 42.8909 93.293 41.065C92.72 39.7989 92.0063 38.5859 91.2648 37.407C89.7553 35.0048 90.0315 33.7888 92.5732 32.5142C93.7293 31.9351 94.9575 31.5045 96.1515 30.9965C96.5672 30.821 96.9695 30.617 97.4048 30.4137C97.0307 29.1462 96.2985 28.3688 95.2105 27.922C94.6549 27.6929 94.0819 27.4975 93.5057 27.3251C92.5229 27.0296 91.5619 27.1372 90.6788 27.6539C89.9983 28.053 89.3424 28.4988 88.695 28.9504C87.2127 29.9853 85.5992 30.5716 83.7698 30.663C81.376 30.7824 79.0472 30.6011 76.7579 29.8321C75.0519 29.258 73.4759 28.4573 72.1679 27.2506C70.527 25.7358 69.0194 24.0771 67.4321 22.5022C66.6051 21.6829 65.7542 20.8873 64.8736 20.1281C63.3483 18.8159 61.5075 18.1849 59.5674 17.8249C59.1043 17.7393 58.7098 17.6054 58.0528 17.1668C58.6981 17.0881 59.0514 16.9584 59.3644 17.0209C61.8128 17.5104 64.0816 18.4438 66.0118 20.0489C66.9747 20.8505 67.823 21.7912 68.7227 22.6719C70.3868 24.3039 71.9711 26.0176 73.9134 27.3447C75.928 28.7229 78.1845 29.3379 80.5683 29.6041C81.1673 29.67 81.769 29.7524 82.372 29.7581C84.3156 29.7803 86.1516 29.378 87.7862 28.2627C88.2463 27.9488 88.7301 27.6608 89.1685 27.3208C91.2739 25.6882 93.4703 25.8746 95.7067 26.9874C96.7309 27.4988 97.5543 28.225 98.0633 29.2844C98.55 30.3012 98.4405 30.9537 97.5176 31.563C97.0207 31.8908 96.4427 32.0995 95.8997 32.3587C94.8137 32.877 93.6923 33.3367 92.6464 33.9259C91.5843 34.5262 91.4612 35.0384 92.0887 36.1097C93.0532 37.7542 93.9564 39.4218 94.7647 41.1511C95.4961 42.7135 96.9822 43.3851 98.5707 43.7048C99.9797 43.988 101.394 44.0452 102.851 43.6844C105.138 43.1176 106.78 45.0197 106.034 47.2729C105.758 48.11 105.381 48.9137 105.052 49.732C104.563 50.9501 104.342 52.2014 104.449 53.5248C104.623 55.6576 105.93 56.9637 107.607 58.0173C107.959 58.2378 108.372 58.3647 108.725 58.5831C109.416 59.012 110.093 59.0998 110.892 58.5449C110.482 58.2252 110.095 57.9212 109.706 57.6173C109.339 57.3311 108.948 57.0687 108.616 56.746C108.472 56.6066 108.327 56.2829 108.395 56.1539C108.505 55.9446 108.772 55.7314 109.002 55.6934C109.36 55.634 109.749 55.677 110.111 55.7521C111.035 55.9421 111.822 55.6197 112.809 55.1052C111.321 55.0716 110.169 54.6294 109.164 53.8853C107.557 52.6944 106.673 51.1586 107.123 49.0701C107.249 48.4811 107.302 47.8763 107.439 47.2911C107.807 45.7132 107.328 44.7893 106.118 43.6638C105.388 42.9837 104.685 43.0129 103.857 42.9662C102.142 42.8709 100.44 42.7109 98.8745 41.8643C97.1294 40.921 95.811 38.5859 96.6305 36.2636C97.0561 35.0583 97.8885 34.1935 99.0432 33.6871C99.7174 33.3918 100.446 33.2248 101.154 33.0069C101.33 32.9525 101.518 32.937 101.696 32.8845C103.769 32.2722 104.326 31.0307 103.353 29.0697C102.171 26.6859 100.293 25.0145 97.9252 23.8343C96.0921 22.9193 94.2019 22.4559 92.1328 22.6704C90.7878 22.8094 89.6926 23.5165 88.4976 24.0018C87.8532 24.2628 87.2481 24.6279 86.5893 24.8377C84.6046 25.4674 82.628 25.2331 80.7183 24.5343C78.7351 23.8094 76.9549 22.708 75.3523 21.3284C74.9645 20.9934 74.5766 20.6562 74.1967 20.3105C72.4425 18.7048 70.2907 18.0631 68.0055 17.7247C67.5326 17.6539 67.0679 17.5248 66.6255 17.3327C69.6491 17.1103 72.3701 17.8502 74.8017 19.728C76.1595 20.7773 77.6143 21.7111 79.0762 22.6136C81.1046 23.8649 83.3577 24.2335 85.6633 23.7613C86.8181 23.524 87.8866 22.8739 89.0047 22.4371C89.7759 22.136 90.5557 21.8408 91.3482 21.6072C93.0725 21.0994 94.7604 21.4194 96.3961 21.9942C99.6211 23.1267 102.247 25.0529 103.952 28.0689C104.352 28.7784 104.65 29.6057 104.755 30.4094C104.97 32.0663 104.102 33.2804 102.498 33.7959C101.749 34.0361 100.979 34.215 100.238 34.4714C99.3893 34.7652 98.5856 35.1898 98.1192 35.9845C97.2992 37.3831 97.3234 38.8133 98.6132 40.1926C99.54 41.1841 100.794 41.5892 102.051 41.9445C103.029 42.2215 104.034 42.4022 105.014 42.673C106.349 43.0398 107.403 43.8234 108.075 45.038C108.516 45.8329 108.569 46.7235 108.467 47.6201C108.394 48.265 108.332 48.9094 108.274 49.5558C108.125 51.2122 108.992 52.3075 110.32 53.0847C110.916 53.4324 111.6 53.6255 112.246 53.8822C112.461 53.9671 112.728 53.9713 112.897 54.1077C113.245 54.3883 113.694 54.6817 113.822 55.064C113.979 55.5281 113.431 55.7523 113.078 55.9419C112.396 56.308 111.683 56.6172 111 56.9418Z" fill="#EADEE3"/>
<path id="Vector_3" d="M29.4554 15.861C29.3597 14.6179 29.5857 13.6046 30.6203 12.8812C31.8081 12.0503 33.07 11.3699 34.4551 10.927C34.809 10.8139 35.1582 10.6844 35.5196 10.6042C36.7597 10.3222 37.5339 9.61504 37.912 8.35981C38.2296 7.30576 39.035 6.54767 39.9371 5.93497C41.3439 4.98174 42.8015 5.18431 44.1498 5.98761C45.2225 6.62757 46.1846 7.45821 47.1814 8.2233C47.5506 8.50728 47.8824 8.83827 48.224 9.15646C49.4465 10.296 50.8037 11.3309 51.2533 13.2646C51.5771 12.9062 51.7669 12.6731 51.9804 12.4639C52.3416 12.1103 52.6759 11.7018 53.0986 11.439C54.221 10.7391 54.8869 10.9267 55.7626 12.0962C55.7027 12.1524 55.6305 12.267 55.5846 12.2584C54.1288 11.9439 53.7641 12.0471 53.0658 13.2712C52.7516 13.8218 52.5407 14.4741 52.4593 15.1027C52.3292 16.1309 53.2356 16.8622 54.244 16.5871C54.865 16.4161 55.4968 16.2053 56.0433 15.8776C56.2944 15.7271 56.4275 15.2601 56.4723 14.9187C56.5446 14.3774 56.4983 13.822 56.5028 12.9748C56.8011 13.3505 56.9779 13.4783 57.0216 13.6423C57.1927 14.2653 57.3208 14.9004 57.4654 15.5348C58.9347 15.2895 60.3434 15.1896 61.7764 15.3993C63.1782 15.604 64.5682 15.395 65.9162 15.0115C68.012 14.4169 70.0604 14.7396 72.1141 15.2008C72.9289 15.3826 73.7423 15.5811 74.567 15.7004C76.1707 15.9305 77.7246 15.6758 79.1875 14.9979C80.3169 14.4759 80.726 13.5943 80.4942 12.3647C80.4264 12.0028 80.2967 11.6495 80.1653 11.3025C79.6901 10.0471 79.1516 8.81281 78.7419 7.53831C78.5724 7.0105 78.3508 6.79538 77.8263 6.67481C76.9799 6.47968 76.2679 5.90242 75.3142 5.93098C74.0729 5.96651 72.9322 6.24669 71.8403 6.82531C70.6083 7.47768 69.3679 8.12623 67.9797 8.38077C67.5273 8.46452 67.0305 8.58106 66.602 8.47956C65.3604 8.18579 64.4285 8.72508 63.5497 9.45701C63.0139 9.90437 62.498 10.38 61.9991 10.8694C60.8496 11.9949 59.4714 12.7234 57.72 13.3875C58.0032 12.9976 58.0984 12.7267 58.2793 12.6389C60.0529 11.7979 61.3582 10.4178 62.626 8.97698C63.6616 7.79784 64.9257 7.17322 66.5661 7.38738C67.7526 7.54244 68.8576 7.14144 69.9234 6.6384C71.0971 6.08562 72.2424 5.49459 73.5128 5.13898C75.2422 4.65586 76.7157 5.00074 78.077 6.08934C78.2117 6.19805 78.3602 6.28966 78.537 6.41538C78.8241 4.78673 78.3084 3.49976 77.1565 2.47348C76.8712 2.21939 76.425 2.03366 76.0477 2.02545C75.3076 2.00641 74.5427 2.04425 73.8288 2.22095C72.5733 2.5325 71.3534 2.53199 70.1231 2.15701C69.6368 2.00803 69.1391 1.88435 68.6584 1.71859C67.2374 1.22879 65.8491 1.4274 64.4362 1.79473C62.3919 2.3273 61.2718 3.83901 60.3541 5.55002C59.4733 7.19748 58.4541 8.74672 57.3224 10.2257C57.1194 10.4925 56.8246 10.6882 56.5745 10.9174C56.4998 10.8602 56.4272 10.803 56.3525 10.7458C56.5276 10.3994 56.6878 10.0431 56.882 9.70841C57.7188 8.26355 58.5683 6.82443 59.4114 5.37933C59.691 4.89838 59.9685 4.41544 60.2355 3.92669C61.2737 2.01219 62.9541 1.17266 65.0305 0.71756C66.6365 0.36555 68.0568 0.673128 69.5078 1.1887C70.7825 1.64067 72.0329 2.00245 73.4339 1.65008C74.279 1.43724 75.1955 1.51781 76.0793 1.45053C76.6865 1.40429 77.144 1.66622 77.5835 2.05311C78.8268 3.14006 79.299 4.58819 79.3904 6.14837C79.4749 7.58662 79.8917 8.8857 80.6117 10.0985C81.2254 11.1331 81.4627 12.2382 81.4735 13.4287C81.4827 14.524 81.0408 15.3633 80.1089 15.8467C79.2947 16.2696 78.4061 16.5898 77.5164 16.8271C75.6795 17.3144 73.8134 17.1545 72.0047 16.7107C70.4365 16.326 68.8839 16.2928 67.2985 16.3748C65.2956 16.4791 63.2892 16.5463 61.2834 16.5761C60.5445 16.5881 59.7359 16.6193 59.0792 16.3485C57.9196 15.8714 57.0829 16.4091 56.1872 16.9201C55.7028 17.1956 55.2434 17.5261 54.736 17.7424C52.847 18.5424 51.12 17.4803 50.9475 15.4262C50.9169 15.065 50.9792 14.6939 51.0032 14.2414C48.0376 14.1965 45.1067 14.2974 42.3644 15.7413C41.0145 16.452 39.5985 17.0577 38.1672 17.5914C37.3097 17.9104 36.3744 18.0935 35.4617 18.1661C33.3349 18.3332 31.5231 17.1646 30.5097 14.9524C30.8341 15.147 31.0539 15.2069 31.1568 15.35C31.7505 16.1886 32.6432 16.6181 33.5165 17.0296C34.2316 17.3665 35.0091 17.3862 35.8294 17.2281C38.2842 16.7584 40.4418 15.567 42.6924 14.5812C45.2198 13.4728 47.8653 13.1676 50.5952 13.6524C50.8099 13.6897 51.0401 13.6415 51.3316 13.6302C50.985 13.3412 50.6492 13.174 50.4835 12.9049C49.6546 11.5555 48.3639 10.6858 47.2048 9.68877C46.3971 8.993 45.5078 8.38323 44.6212 7.78786C44.0875 7.43153 43.5133 7.09541 42.9091 6.89507C41.4616 6.41871 40.1011 7.01598 39.3869 8.36497C39.2132 8.69271 39.065 9.0381 38.9313 9.385C38.4875 10.5496 37.6756 11.2996 36.4875 11.6935C35.3014 12.0873 34.1206 12.5098 32.9668 12.9873C32.3716 13.2339 31.7816 13.5633 31.29 13.9737C30.6721 14.4905 30.1561 15.1277 29.4514 15.8632L29.4554 15.861Z" fill="#EADEE3"/>
<path id="Vector_4" d="M50.6871 16.8466C49.7384 17.2727 48.9381 17.2518 48.0879 17.1728C46.1175 16.9921 44.1934 17.3668 42.3569 18.0798C40.4551 18.816 38.5853 19.6318 36.7085 20.4292C35.7264 20.8462 34.7434 21.1886 33.6489 21.1646C32.0837 21.1278 30.9187 20.3505 29.9033 19.263C27.9178 17.1381 27.2001 14.6432 27.8444 11.8078C28.0056 11.1015 28.3043 10.363 28.7379 9.79116C30.1451 7.93904 31.5819 6.10027 33.1219 4.36107C35.3367 1.86055 38.2329 0.700653 41.5275 0.579577C43.2504 0.517157 44.8071 1.03279 46.1 2.27938C47.4853 3.61145 48.7114 5.05738 49.7473 6.67427C50.3489 7.61204 51.0172 8.50581 51.629 9.43697C51.9415 9.91369 52.3545 10.3658 52.3189 11.3199C51.574 10.4809 50.9868 9.86358 50.4518 9.20285C49.9255 8.5542 49.4272 7.87755 48.9632 7.18093C47.9473 5.65232 46.6335 4.4024 45.2956 3.16998C44.3571 2.30529 43.2506 1.91724 41.9841 1.94339C38.8592 2.01027 36.1476 3.06983 34.0665 5.43885C32.5606 7.14981 31.1663 8.96001 29.7524 10.7482C29.5017 11.0665 29.3208 11.4773 29.2243 11.8746C28.4646 14.9941 29.297 17.6689 31.6744 19.4846C32.7051 20.2711 33.8857 20.4326 35.1126 20.0249C35.947 19.7482 36.7803 19.4447 37.5691 19.0621C39.7914 17.9884 42.0907 17.1394 44.4927 16.5889C46.5148 16.1255 48.5343 16.1821 50.6891 16.8466L50.6871 16.8466Z" fill="#EADEE3"/>
<path id="Vector_5" d="M59.7234 13.855C60.5658 12.7683 61.6313 12.1493 62.9312 12.0762C65.1094 11.9527 67.2787 11.813 69.478 12.0201C71.7458 12.2328 73.8801 11.5621 75.8026 10.2866C76.5518 9.78954 77.0225 9.16244 77.0489 8.23768C77.051 8.12991 77.1568 8.0264 77.2323 7.89093C77.7901 8.97952 77.7465 9.67503 77.0664 10.565C76.4611 11.3568 75.6921 11.983 74.7827 12.3557C72.8398 13.1536 70.877 13.654 68.6966 13.3447C66.0725 12.9718 63.4146 13.0082 60.8166 13.7382C60.4703 13.8365 60.0907 13.8201 59.7255 13.857L59.7234 13.855Z" fill="#EADEE3"/>
<path id="Vector_6" d="M69.5024 21.1798C69.804 20.6773 70.24 20.7598 70.639 20.848C71.8464 21.112 72.9558 21.6304 73.7127 22.6181C74.6527 23.8452 75.9236 24.5749 77.233 25.2823C77.5989 25.4794 77.981 25.6656 78.3117 25.9158C79.6216 26.907 81.0633 27.6073 82.8868 28.0049C81.5176 28.3229 80.3955 28.1736 79.354 27.7002C78.0111 27.0894 76.6965 26.407 75.4152 25.6756C74.6125 25.2158 73.8868 24.6059 73.3816 23.8053C72.5454 22.4789 71.3921 21.6308 69.8458 21.3301C69.7331 21.3076 69.6289 21.2391 69.5046 21.1839L69.5024 21.1798Z" fill="#EADEE3"/>
<path id="Vector_7" d="M64.4559 5.48284C64.2341 5.63846 64.0145 5.79814 63.7926 5.95169C62.5278 6.82694 61.3534 7.7919 60.6054 9.1774C60.0585 10.1906 59.1901 10.8745 58.2263 11.444C57.9752 11.5925 57.6644 11.6439 57.2598 11.5704C57.3761 11.4168 57.4707 11.2392 57.6108 11.1136C58.4713 10.3348 59.3232 9.54797 59.8561 8.49181C60.7891 6.64144 62.5007 5.91047 64.458 5.48483L64.4559 5.48284Z" fill="#EADEE3"/>
<path id="Vector_8" d="M30.4866 28.0306C30.8734 28.1254 31.257 28.2431 31.6491 28.3129C32.477 28.4611 33.3032 28.5617 34.0572 28.0293C34.2064 27.9241 34.3938 27.7885 34.5557 27.7988C35.7204 27.8719 36.7094 27.3614 37.7237 26.9184C37.8031 26.8842 37.9506 27.0007 38.1715 27.0916C37.2243 27.8759 36.359 28.5845 35.1116 28.5706C34.8547 28.5681 34.5415 28.663 34.3468 28.8238C33.3554 29.6471 32.3635 29.3292 31.3801 28.8577C31.032 28.6909 30.7355 28.4166 30.4161 28.1907C30.441 28.138 30.4659 28.0852 30.4887 28.0326L30.4866 28.0306Z" fill="#EADEE3"/>
</g>
</svg>
