<svg preserveAspectRatio="none" width="100%" height="100%" overflow="visible" style="display: block;" viewBox="0 0 167.39 95.1285" fill="none" xmlns="http://www.w3.org/2000/svg">
<g id="64a0089e-0531-4a3a-a6c7-2b63873d265f 1">
<path id="Vector" d="M2.97553 77.2925C4.08515 75.0397 4.99053 73.2046 5.89286 71.3725C6.04223 71.0677 6.14892 70.7201 6.36536 70.4732C6.52388 70.2934 6.85615 70.1379 7.06954 70.1806C7.29207 70.2233 7.50851 70.4915 7.64874 70.711C7.74324 70.8634 7.76762 71.1286 7.70971 71.3024C7.00248 73.3357 8.07856 75.0153 8.76445 77.0517C9.79786 74.2624 10.1911 71.6072 10.6545 68.9612C10.9715 67.1505 11.3556 65.3336 11.9165 63.5869C12.6786 61.2244 14.2211 60.133 16.6934 60.1452C19.1595 60.1574 21.6226 60.3769 24.0918 60.4318C28.0182 60.5202 31.4415 59.0112 32.3591 54.4051C32.6548 52.9205 32.0787 51.8383 31.2434 50.8293C29.6948 48.9545 27.8383 47.4608 25.552 46.5341C24.9972 46.3085 24.4485 45.9854 24.0126 45.583C23.7687 45.3574 23.5888 44.8118 23.6894 44.5161C23.9242 43.8302 23.7382 43.3516 23.3419 42.815C22.1348 41.175 22.3421 39.9282 24.0004 38.4863C28.1127 34.9105 34.5722 34.6758 38.4742 37.7943C40.3978 39.3338 42.1872 41.0561 43.9248 42.8059C45.9367 44.83 48.2809 45.7629 51.1281 45.6866C53.262 45.6287 54.9173 44.6319 56.472 43.3424C58.7095 41.489 60.4959 39.2301 62.2701 36.9499C64.0351 34.6789 65.7727 32.3804 68.0285 30.5361C69.7996 29.0881 71.7293 27.9541 73.9272 27.2956C74.0979 27.2438 74.293 27.2895 74.7655 27.2895C74.4118 27.7132 74.2686 28.0394 74.0217 28.1614C70.074 30.1184 67.3548 33.3101 64.9466 36.8889C62.9559 39.8459 60.8678 42.7449 58.1242 45.0892C56.5391 46.4426 54.8533 47.5919 52.7468 47.9425C49.3052 48.5156 46.1897 47.8022 43.5833 45.4184C42.0134 43.9795 40.5654 42.4066 39.0443 40.9159C36.7183 38.6357 33.987 37.4651 30.6672 37.7882C28.762 37.9742 27.0976 38.7271 25.5612 39.7788C24.5613 40.4617 24.5247 40.8397 25.1435 42.0347C25.4941 42.7084 25.8691 43.3333 25.6069 44.1502C25.427 44.702 25.9361 44.8057 26.2806 45.0099C27.4481 45.7141 28.7132 46.3055 29.7497 47.1712C30.9477 48.1711 32.0512 49.3295 32.9993 50.5671C34.3314 52.3078 34.1119 54.3868 33.5297 56.2951C32.2677 60.4379 28.7224 62.1816 25.9422 62.2456C24.0949 62.2883 22.2475 62.2608 20.4033 62.2608C19.5771 62.2608 18.7541 62.2456 17.928 62.2578C15.0228 62.2974 14.2668 62.8217 13.6389 65.5775C12.9834 68.4399 12.3494 71.2993 11.4013 74.0917C11.0416 75.1525 11.2001 76.3902 11.1148 77.5486C11.0508 78.4326 11.069 79.338 10.8861 80.1976C10.749 80.8469 10.4411 81.5237 9.57838 81.5938C8.74616 81.6609 8.29805 81.1731 8.02369 80.4964C7.50851 79.2313 7.02077 77.954 6.55436 76.6676C6.32268 76.0274 6.16416 75.3629 5.93858 74.6038C5.02711 75.6647 4.54241 76.8535 4.03943 78.0394C3.92664 78.3015 3.63094 78.6399 3.39926 78.6551C3.1371 78.6734 2.73166 78.4296 2.60363 78.1887C2.28964 77.5882 2.0793 76.9297 1.85982 76.2865C-0.112501 70.522 1.57327 64.2697 5.92334 60.5324C7.728 58.9807 9.85273 58.0235 12.1086 57.3956C14.8796 56.6243 17.7237 56.2463 20.5892 55.9659C21.7232 55.8561 22.8389 55.4751 23.9455 55.1458C24.3509 55.027 24.3906 54.5758 24.0857 54.3289C23.5584 53.9051 22.9761 53.5241 22.3695 53.2223C21.5129 52.7955 20.577 52.5273 19.7448 52.0639C19.0376 51.6707 18.373 51.1585 17.7908 50.5915C17.05 49.8752 16.8305 48.9698 17.2299 47.9638C17.4067 47.5187 17.5042 47.0401 17.7207 46.6164C18.0895 45.8878 18.1444 45.2263 17.681 44.4947C15.9617 41.7847 16.8763 39.346 18.6352 37.1115C20.449 34.813 22.7383 33.0967 25.4789 31.981C27.442 31.1823 29.3534 30.2922 31.4629 29.8685C34.0205 29.3533 36.3952 29.7557 38.5382 31.1305C40.4953 32.3834 42.2908 33.8802 44.19 35.2215C45.2508 35.9683 46.3513 36.6664 47.4853 37.2974C48.6102 37.9224 49.8082 37.9315 51.0733 37.6267C54.5149 36.7975 57.2707 34.8282 59.9014 32.5846C61.4622 31.2524 63.1206 30.0361 64.7515 28.7863C65.0014 28.5942 65.3398 28.5211 65.8032 28.6003C65.5654 28.8716 65.352 29.1704 65.0837 29.4082C62.7243 31.5055 60.4258 33.6759 57.9718 35.6574C55.7739 37.4346 53.2803 38.6631 50.427 39.1874C48.8967 39.4679 47.5219 39.2423 46.2842 38.5412C44.2631 37.398 42.3548 36.0567 40.4069 34.7825C39.721 34.3313 39.09 33.7918 38.3889 33.3619C35.9014 31.8316 33.2127 31.5055 30.4965 32.4779C28.2499 33.2827 26.0763 34.3161 23.9364 35.383C22.0585 36.3219 20.6441 37.834 19.5406 39.6173C18.8059 40.8001 18.6108 42.059 19.254 43.3333C19.9948 44.8026 19.946 46.1805 19.1565 47.6407C18.434 48.9759 18.7175 49.7288 20.0314 50.5001C20.4978 50.7744 21.0465 50.9086 21.5312 51.1555C22.6256 51.7164 23.7108 52.3017 24.793 52.89C26.2593 53.6857 26.5397 55.7311 24.5034 56.7828C22.8115 57.6547 20.9733 57.8162 19.1473 58.051C15.9465 58.4595 12.8066 59.06 9.87407 60.4866C6.94151 61.9164 4.94175 64.1447 4.00589 67.2754C2.79568 71.3115 2.66155 71.9547 2.99078 77.2925H2.97553Z" fill="#08004c"/>
<path id="Vector_2" d="M162.296 88.4524C162.766 89.0713 163.366 89.7358 163.818 90.4918C164.382 91.4399 164.055 92.0404 163.04 92.3026C160.635 92.9245 158.452 92.5099 156.471 91.007C155.816 90.5101 155.172 89.9827 154.462 89.5773C152.499 88.4494 151.801 86.5594 151.334 84.5291C150.777 82.1087 151.203 79.7858 152.127 77.527C152.721 76.0729 153.42 74.6523 153.913 73.1647C154.572 71.1771 153.505 70.1102 151.398 70.3205C148.524 70.6101 145.646 70.6772 142.872 69.6042C140.183 68.5646 138.251 66.8118 137.138 64.0774C136.367 62.1813 135.385 60.3553 134.361 58.5781C132.276 54.9566 132.751 53.1824 136.565 51.4509C138.299 50.6644 140.132 50.1005 141.918 49.4207C142.54 49.1859 143.143 48.9085 143.796 48.6342C143.317 46.7472 142.284 45.5614 140.708 44.842C139.903 44.4731 139.071 44.153 138.232 43.8665C136.803 43.3757 135.382 43.4793 134.053 44.1896C133.029 44.7383 132.038 45.3571 131.059 45.9851C128.819 47.424 126.411 48.1952 123.713 48.2257C120.183 48.2653 116.765 47.866 113.44 46.6039C110.961 45.662 108.687 44.3938 106.831 42.5435C104.502 40.2206 102.377 37.6935 100.13 35.2852C98.9598 34.0323 97.7526 32.813 96.4997 31.6454C94.3292 29.6274 91.6558 28.594 88.8208 27.9538C88.144 27.8014 87.5709 27.5819 86.629 26.899C87.5831 26.8198 88.1105 26.6491 88.5677 26.7588C92.1435 27.6185 95.4297 29.1213 98.1794 31.5936C99.5511 32.8282 100.746 34.2609 102.02 35.6083C104.377 38.105 106.611 40.7175 109.394 42.7812C112.281 44.9243 115.567 45.9577 119.061 46.4851C119.939 46.6161 120.82 46.7716 121.707 46.8143C124.566 46.9576 127.292 46.4698 129.761 44.9212C130.456 44.4853 131.184 44.089 131.849 43.6135C135.041 41.3302 138.263 41.7295 141.491 43.4946C142.97 44.3054 144.14 45.4212 144.829 47.0094C145.488 48.5336 145.289 49.4877 143.896 50.3321C143.146 50.7864 142.284 51.0607 141.47 51.4113C139.842 52.1124 138.165 52.7251 136.592 53.533C134.995 54.356 134.785 55.1029 135.647 56.7155C136.973 59.1908 138.208 61.6966 139.299 64.2877C140.287 66.6289 142.436 67.7019 144.756 68.2629C146.814 68.7597 148.893 68.9244 151.057 68.4762C154.456 67.7721 156.764 70.665 155.538 73.939C155.084 75.1553 154.483 76.3167 153.953 77.5026C153.163 79.2676 152.767 81.0966 152.849 83.0507C152.984 86.1997 154.834 88.1964 157.242 89.8425C157.748 90.187 158.349 90.3973 158.855 90.7387C159.849 91.4094 160.839 91.5771 162.047 90.8058C161.461 90.312 160.909 89.8425 160.355 89.3731C159.83 88.931 159.269 88.5226 158.8 88.0287C158.596 87.8153 158.401 87.3306 158.507 87.1447C158.681 86.8429 159.086 86.5441 159.428 86.5015C159.958 86.4344 160.528 86.5198 161.056 86.6508C162.406 86.9831 163.583 86.5533 165.064 85.8522C162.876 85.718 161.205 85.0016 159.769 83.8493C157.471 82.0051 156.258 79.6944 157.038 76.646C157.257 75.7863 157.37 74.8992 157.605 74.0457C158.236 71.7441 157.584 70.3571 155.867 68.6317C154.831 67.5892 153.794 67.5922 152.578 67.4764C150.06 67.2386 147.564 66.9063 145.308 65.5711C142.793 64.0835 140.985 60.5717 142.323 57.2002C143.018 55.4504 144.293 54.2249 146.021 53.5452C147.03 53.1489 148.112 52.9446 149.167 52.6642C149.429 52.5941 149.707 52.5819 149.972 52.5148C153.057 51.7314 153.947 49.9358 152.627 46.9941C151.023 43.4184 148.353 40.8516 144.936 38.9799C142.29 37.5288 139.534 36.7393 136.476 36.9374C134.489 37.0655 132.837 38.044 131.05 38.6903C130.087 39.0378 129.176 39.5408 128.194 39.8121C125.237 40.626 122.341 40.1688 119.57 39.0317C116.692 37.852 114.135 36.1296 111.855 34.0079C111.303 33.4927 110.751 32.9745 110.211 32.4441C107.721 29.981 104.59 28.914 101.246 28.2861C100.554 28.155 99.8773 27.9386 99.2372 27.6307C103.7 27.4752 107.663 28.7189 111.135 31.621C113.074 33.2428 115.162 34.6999 117.262 36.1113C120.177 38.0684 123.472 38.7391 126.892 38.1751C128.605 37.8916 130.215 36.9954 131.886 36.4162C133.038 36.0168 134.202 35.6266 135.382 35.3279C137.949 34.6786 140.415 35.2456 142.79 36.1845C147.472 38.0349 151.228 41.0193 153.566 45.5553C154.115 46.6222 154.505 47.8568 154.614 49.0457C154.837 51.4966 153.49 53.2342 151.1 53.9018C149.984 54.2128 148.841 54.4322 147.734 54.7676C146.469 55.1517 145.262 55.7309 144.53 56.874C143.244 58.886 143.198 60.9924 145.018 63.0958C146.326 64.6078 148.149 65.2754 149.978 65.8699C151.401 66.3332 152.871 66.6563 154.297 67.1106C156.242 67.7263 157.748 68.9396 158.669 70.7656C159.272 71.9606 159.3 73.2744 159.099 74.5883C158.955 75.5333 158.827 76.4783 158.705 77.4264C158.391 79.8559 159.605 81.5173 161.516 82.7367C162.373 83.2823 163.37 83.6055 164.305 84.0201C164.616 84.1572 165.01 84.1786 165.25 84.3889C165.747 84.8218 166.39 85.2791 166.558 85.8491C166.762 86.5411 165.942 86.8398 165.412 87.099C164.388 87.5989 163.321 88.0135 162.296 88.4524Z" fill="#08004c"/>
<path id="Vector_3" d="M44.6126 23.3509C44.5425 21.5158 44.9327 20.0373 46.4966 19.0313C48.2921 17.876 50.1882 16.9462 52.2519 16.3731C52.7793 16.2268 53.3006 16.0561 53.8371 15.9585C55.6783 15.6141 56.8581 14.6172 57.4861 12.7912C58.0134 11.2579 59.2419 10.1879 60.6046 9.33739C62.7293 8.01438 64.8632 8.39543 66.802 9.65442C68.3445 10.6573 69.7132 11.9346 71.1368 13.1174C71.6642 13.5564 72.1336 14.0624 72.6183 14.5502C74.3529 16.2969 76.2917 17.8973 76.8434 20.7689C77.3403 20.2598 77.633 19.9275 77.9591 19.6319C78.5109 19.1319 79.0261 18.5497 79.6632 18.1869C81.3551 17.2206 82.3245 17.5345 83.5469 19.3057C83.4554 19.3849 83.3426 19.5495 83.2756 19.5343C81.1508 18.9886 80.6082 19.1197 79.5108 20.8817C79.0169 21.6743 78.6694 22.6223 78.5139 23.543C78.264 25.0489 79.5565 26.1768 81.0563 25.8293C81.98 25.6128 82.9219 25.3385 83.745 24.8873C84.123 24.68 84.3455 24.0002 84.4309 23.5003C84.5681 22.7077 84.5315 21.8877 84.5864 20.6409C85.004 21.2109 85.257 21.4091 85.3119 21.6529C85.5283 22.5797 85.6807 23.5216 85.8576 24.4636C88.0341 24.1862 90.1131 24.1191 92.2104 24.5093C94.262 24.8903 96.3197 24.6617 98.3255 24.174C101.444 23.418 104.441 24.0094 107.437 24.805C108.626 25.119 109.812 25.4574 111.019 25.6799C113.366 26.1097 115.668 25.8232 117.86 24.9086C119.552 24.2045 120.204 22.9302 119.933 21.1073C119.853 20.5708 119.683 20.0434 119.509 19.5252C118.881 17.6504 118.158 15.8031 117.628 13.9039C117.409 13.1174 117.095 12.7882 116.329 12.5809C115.095 12.2456 114.08 11.3554 112.674 11.3432C110.845 11.3249 109.15 11.6725 107.51 12.462C105.66 13.3521 103.797 14.2362 101.74 14.5319C101.069 14.6294 100.331 14.7727 99.7065 14.5989C97.8957 14.0959 96.4934 14.8367 95.1582 15.864C94.3443 16.492 93.5578 17.1626 92.7957 17.8546C91.0398 19.4459 88.97 20.4397 86.3544 21.3176C86.7934 20.7598 86.9489 20.3665 87.2202 20.2476C89.8784 19.1106 91.8782 17.1535 93.8261 15.105C95.4174 13.4283 97.3135 12.5809 99.7156 12.9894C101.453 13.2851 103.102 12.7577 104.7 12.0779C106.459 11.331 108.178 10.5263 110.068 10.0751C112.641 9.46237 114.79 10.0538 116.732 11.7334C116.924 11.9011 117.137 12.0444 117.39 12.2395C117.905 9.85867 117.22 7.93512 115.583 6.3591C115.177 5.9689 114.531 5.67016 113.976 5.63662C112.888 5.56651 111.76 5.5787 110.699 5.79819C108.833 6.18534 107.038 6.11522 105.248 5.49335C104.541 5.24643 103.816 5.03609 103.118 4.76478C101.054 3.96305 98.9992 4.17644 96.8989 4.63675C93.8596 5.30435 92.1251 7.46567 90.6771 9.93183C89.287 12.3065 87.6988 14.5288 85.949 16.6414C85.635 17.0224 85.19 17.2937 84.8089 17.6169C84.7022 17.5285 84.5986 17.44 84.4919 17.3516C84.7693 16.8517 85.0253 16.3365 85.3302 15.8549C86.644 13.7759 87.9762 11.706 89.2992 9.62699C89.7382 8.935 90.1741 8.23996 90.5948 7.53578C92.2318 4.77697 94.7528 3.63687 97.8347 3.08511C100.219 2.65833 102.292 3.1918 104.398 4.03316C106.248 4.77088 108.068 5.37446 110.15 4.93549C111.406 4.67028 112.751 4.84099 114.055 4.79222C114.952 4.75868 115.61 5.17022 116.235 5.76466C118.003 7.43518 118.616 9.59345 118.661 11.895C118.704 14.0167 119.244 15.9524 120.234 17.7784C121.079 19.3362 121.365 20.9762 121.314 22.729C121.265 24.3416 120.567 25.5519 119.167 26.2103C117.945 26.7865 116.619 27.2071 115.296 27.5059C112.565 28.1186 109.827 27.7772 107.19 27.0212C104.904 26.3658 102.621 26.2286 100.283 26.2591C97.3287 26.2987 94.3718 26.2835 91.4179 26.2134C90.3296 26.189 89.1376 26.189 88.1865 25.753C86.5069 24.9849 85.2448 25.7287 83.8974 26.4298C83.1689 26.8078 82.4738 27.2681 81.7148 27.5577C78.8889 28.6277 76.4075 26.9663 76.2703 23.9332C76.2459 23.3997 76.3587 22.8571 76.4197 22.1925C72.0574 21.9578 67.7378 21.9395 63.6194 23.9088C61.5923 24.8782 59.4736 25.689 57.3367 26.3932C56.0564 26.8139 54.6693 27.0303 53.3219 27.0852C50.1821 27.2102 47.5818 25.3872 46.2161 22.0736C46.6825 22.3785 47.0026 22.4791 47.1459 22.6955C47.972 23.9636 49.2615 24.6465 50.5235 25.3019C51.5569 25.8384 52.7001 25.9116 53.9164 25.7256C57.5562 25.1739 60.7997 23.543 64.1682 22.2199C67.9512 20.7323 71.8623 20.4336 75.8527 21.3024C76.1667 21.3694 76.5081 21.3115 76.9379 21.3115C76.4441 20.8665 75.9594 20.6012 75.7308 20.1958C74.5876 18.1625 72.7372 16.809 71.088 15.2757C69.9388 14.2057 68.6646 13.2576 67.3934 12.3309C66.6282 11.7761 65.8021 11.2487 64.9242 10.9195C62.8208 10.1361 60.7844 10.9378 59.6565 12.8827C59.3822 13.3552 59.1444 13.8551 58.9279 14.3581C58.2085 16.0469 56.9709 17.1047 55.1997 17.6169C53.4317 18.129 51.6697 18.6838 49.9443 19.3209C49.0542 19.6501 48.1671 20.1013 47.4202 20.6775C46.4813 21.403 45.6857 22.3114 44.6065 23.354L44.6126 23.3509Z" fill="#08004c"/>
<path id="Vector_4" d="M75.8073 26.0089C74.3867 26.582 73.21 26.5058 71.9632 26.3412C69.0733 25.9632 66.22 26.4052 63.4765 27.3502C60.6354 28.3257 57.8369 29.4201 55.0293 30.487C53.56 31.0449 52.0937 31.493 50.4842 31.3954C48.1826 31.2522 46.5121 30.0419 45.0793 28.3836C42.2779 25.1432 41.3633 21.4302 42.473 17.2935C42.7504 16.2632 43.232 15.1932 43.9027 14.3762C46.0792 11.7302 48.2985 9.1055 50.664 6.63324C54.066 3.0788 58.3948 1.53631 63.2509 1.54545C65.7902 1.55155 68.0521 2.39901 69.8842 4.30731C71.8474 6.34669 73.5697 8.54459 75.0025 10.9833C75.8347 12.3978 76.7675 13.7513 77.615 15.1566C78.0478 15.876 78.6301 16.5649 78.5234 17.9672C77.4747 16.6899 76.6456 15.748 75.8957 14.745C75.158 13.7604 74.4629 12.7361 73.8197 11.6844C72.4113 9.37681 70.5488 7.46241 68.6496 5.5724C67.3175 4.24634 65.7109 3.61227 63.8453 3.57874C59.2422 3.49948 55.1909 4.90479 51.9931 8.27328C49.6794 10.7059 47.5242 13.291 45.3415 15.8425C44.9544 16.2967 44.6648 16.8911 44.5001 17.4703C43.2046 22.0185 44.2776 26.0028 47.6735 28.8104C49.1459 30.0267 50.8744 30.3315 52.7034 29.8011C53.9472 29.4414 55.1909 29.0421 56.3737 28.5238C59.7056 27.0697 63.1381 25.951 66.7047 25.2773C69.7074 24.7103 72.6766 24.9084 75.8103 26.0089H75.8073Z" fill="#08004c"/>
<path id="Vector_5" d="M89.2754 22.1194C90.577 20.5678 92.1805 19.7173 94.0979 19.6837C97.3109 19.6258 100.512 19.5435 103.737 19.9733C107.063 20.4154 110.242 19.5496 113.144 17.7815C114.275 17.0926 115.004 16.1964 115.095 14.8368C115.104 14.6783 115.266 14.5319 115.385 14.3368C116.144 15.9708 116.04 16.992 114.989 18.2632C114.053 19.3941 112.885 20.2721 111.526 20.769C108.621 21.8329 105.703 22.4578 102.512 21.8786C98.6705 21.1805 94.7564 21.083 90.891 22.0097C90.3758 22.1347 89.818 22.0889 89.2784 22.1225L89.2754 22.1194Z" fill="#08004c"/>
<path id="Vector_6" d="M103.253 33.4564C103.726 32.734 104.363 32.8803 104.945 33.0327C106.707 33.49 108.31 34.3161 109.368 35.8128C110.682 37.6724 112.511 38.8186 114.398 39.9343C114.925 40.2452 115.477 40.5409 115.95 40.9281C117.821 42.4614 119.903 43.5741 122.565 44.263C120.531 44.6532 118.888 44.3697 117.382 43.6137C115.441 42.6382 113.545 41.5591 111.7 40.4098C110.545 39.6874 109.511 38.7485 108.813 37.5413C107.658 35.5415 106.009 34.2277 103.75 33.6973C103.585 33.6576 103.436 33.5509 103.256 33.4625L103.253 33.4564Z" fill="#08004c"/>
<path id="Vector_7" d="M96.7163 10.0659C96.381 10.2823 96.0487 10.5048 95.7134 10.7182C93.802 11.9345 92.0187 13.288 90.839 15.2847C89.9763 16.7449 88.6593 17.7021 87.2083 18.4855C86.8303 18.6898 86.37 18.7477 85.7786 18.6166C85.9585 18.3971 86.1078 18.1411 86.3212 17.9643C87.632 16.8668 88.9306 15.7572 89.7751 14.233C91.2535 11.5626 93.8142 10.5841 96.7193 10.0689L96.7163 10.0659Z" fill="#08004c"/>
<path id="Vector_8" d="M45.4389 41.3212C46.0029 41.4827 46.5607 41.6778 47.1338 41.8028C48.344 42.068 49.5542 42.2631 50.6943 41.5224C50.9199 41.376 51.2034 41.187 51.4412 41.2114C53.1514 41.3852 54.6359 40.6901 56.154 40.0957C56.2729 40.05 56.4833 40.2298 56.8033 40.3762C55.3645 41.4766 54.0506 42.4704 52.2155 42.379C51.8375 42.3607 51.3711 42.4826 51.0754 42.7082C49.5695 43.8635 48.1276 43.3392 46.707 42.5893C46.204 42.3241 45.7834 41.9034 45.3261 41.5528C45.3657 41.4766 45.4054 41.4004 45.4419 41.3242L45.4389 41.3212Z" fill="#08004c"/>
</g>
</svg>
