<svg width="203" height="131" viewBox="0 0 203 131" fill="none" xmlns="http://www.w3.org/2000/svg">
<rect width="203" height="131" fill="#08004c"/>
<g id="Frame 7">
<rect width="1442" height="5454" transform="translate(-619.5 -507)" fill="white"/>
<g id="Frame 33">
<g id="Frame 32">
<g id="Frame 31">
<g id="Frame 30">
<g id="3dcd479a-39b3-4e66-98b8-c8a7caa84349 1">
<path id="Vector" d="M80.0601 68.5477C79.8903 76.11 79.0046 81.6871 77.5838 87.1419C76.2982 92.0745 74.6984 96.9376 73.0001 101.748C71.6377 105.607 69.2546 108.95 66.7801 112.177C64.764 114.805 61.8494 115.172 58.8563 114.652C54.6707 113.923 50.6877 112.528 46.8929 110.559C44.6285 109.385 42.2562 108.408 39.8986 107.425C34.7561 105.283 29.7907 102.805 25.1303 99.7426C22.2504 97.8507 19.449 95.8346 16.518 94.0303C10.3528 90.2355 8.84434 84.4958 9.53829 77.7974C9.72821 75.962 9.97292 74.1231 10.3436 72.317C10.9408 69.406 12.2191 66.8183 14.3576 64.6981C14.7941 64.2653 15.2232 63.8143 15.5884 63.3212C18.0994 59.9281 21.4669 58.6498 25.6544 58.6133C29.1826 58.5822 32.4003 59.3438 35.6126 60.6604C37.7127 61.5206 39.9406 62.0885 42.1485 62.6437C42.5612 62.7478 43.299 62.2949 43.6222 61.8876C44.8859 60.3007 46.1588 58.6991 47.2198 56.9752C50.7681 51.2136 55.9563 48.4999 62.631 48.2551C66.1738 48.1255 69.4536 48.7336 72.4851 50.6657C74.2565 51.7943 75.6627 53.1804 76.5246 55.0979C78.716 59.9774 80.2884 64.9976 80.0638 68.5477H80.0601ZM77.7573 72.1581C77.7774 66.7106 76.6598 62.4592 74.7751 58.2645C72.9983 54.309 69.8572 52.2636 66.0131 51.8856C59.7383 51.2684 54.0936 52.9576 50.317 58.6188C49.4861 59.8642 48.5255 61.0293 47.5741 62.1889C44.6339 65.7646 41.7741 66.3782 37.5374 64.4881C36.2554 63.9165 34.8931 63.5056 33.5453 63.0947C27.0624 61.1151 25.4626 61.2503 19.3157 64.0188C16.423 65.3209 14.2882 67.3991 13.2783 70.363C11.6658 75.0946 11.1088 79.9577 12.252 84.9177C12.8346 87.4433 14.1458 89.4612 16.2733 90.9331C18.2328 92.29 20.2288 93.5957 22.1828 94.958C28.0668 99.0615 34.3489 102.429 40.9542 105.218C43.2241 106.176 45.4977 107.148 47.68 108.286C51.2192 110.132 54.8642 111.562 58.8106 112.336C61.9736 112.955 64.3147 112.163 66.0953 109.463C68.4328 105.924 70.8087 102.42 72.0578 98.3C73.1809 94.5965 74.5158 90.9477 75.438 87.1967C76.7182 81.9812 77.5363 76.6688 77.7591 72.1563L77.7573 72.1581Z" fill="#021436"/>
<path id="Vector_2" d="M161.861 60.3098C162.005 62.2766 161.331 64.4571 160.413 66.5864C158.426 71.1939 155.323 75.0654 152.186 78.8949C146.844 85.4125 140.704 91.1614 134.51 96.8463C132.361 98.8204 130.233 100.829 127.958 102.65C126.522 103.797 124.87 104.699 123.242 105.574C121.027 106.764 118.567 106.653 116.237 106.215C115.043 105.99 113.847 105.07 112.93 104.175C106.416 97.8196 101.518 90.2538 96.907 82.4833C94.8434 79.0063 94.0198 75.111 93.2236 71.2158C92.747 68.8837 92.2648 66.5499 91.9124 64.1977C90.6341 55.6749 94.0454 48.0141 102.665 44.5461C104.707 43.7244 106.871 43.8522 108.925 44.3781C112.601 45.3168 116.109 46.7266 119.323 48.8012C121.595 50.2676 123.944 51.2756 126.791 50.5506C128.226 50.1854 129.787 50.3461 131.256 50.0758C132.801 49.791 134.335 49.36 135.818 48.8395C137.583 48.2186 139.346 47.8114 141.238 47.7986C144.963 47.773 148.647 48.1054 152.266 48.9509C153.541 49.2486 154.806 49.7362 155.971 50.3388C159.83 52.3367 161.945 55.4631 161.857 60.3116L161.861 60.3098ZM106.106 46.1331C105.654 46.1988 104.533 46.1495 103.585 46.533C96.3646 49.4531 93.1049 55.5982 94.06 63.2664C94.3522 65.6185 94.9256 67.9396 95.4187 70.2643C96.3738 74.7622 97.5261 79.1761 100.17 83.0659C104.438 89.3443 108.62 95.6538 113.911 101.191C116.458 103.857 119.254 104.242 122.234 102.787C124.117 101.868 125.9 100.639 127.514 99.2952C130.365 96.9212 133.078 94.3828 135.801 91.8608C142.293 85.8453 148.499 79.5578 153.776 72.4229C156.2 69.1467 158.468 65.7573 159.24 61.6539C159.445 60.5655 159.439 59.373 159.24 58.2827C158.652 55.0924 156.521 53.2388 153.559 52.238C149.651 50.9159 145.588 50.8775 141.534 50.9323C140.233 50.9506 138.789 51.0528 137.667 51.6226C135.071 52.943 132.308 53.2991 129.508 53.6223C128.279 53.7647 127.028 53.7574 125.817 53.9839C122.883 54.5354 120.647 53.4689 118.839 51.2227C118.346 50.6109 117.884 49.8384 117.225 49.517C113.892 47.899 110.507 46.3833 106.104 46.1349L106.106 46.1331Z" fill="#021436"/>
<g id="Group 3">
<path id="Vector_3" d="M107.056 31.4196C105.642 31.8761 104.167 32.1975 102.83 32.8184C99.7876 34.2319 96.7598 35.6983 93.8214 37.3145C90.1161 39.3525 86.2355 40.1341 82.0827 39.389C80.8793 39.1735 79.7105 38.7334 78.5509 38.3262C77.9738 38.1235 77.4095 37.8222 76.9128 37.4642C76.0125 36.8196 74.6684 37.0223 74.053 35.8061C73.2367 34.1954 73.1618 32.3874 73.6476 30.879C75.5669 24.9329 76.858 18.7604 79.8931 13.1942C81.7065 9.86874 84.4513 7.34312 86.966 4.63854C88.4214 3.0735 90.5033 2.25537 92.6892 2.16588C101.126 1.82439 109.187 3.18672 116.651 7.41252C119.704 9.14192 121.95 11.463 123.247 14.7319C123.996 16.6183 124.834 18.4664 125.654 20.3237C125.981 21.0633 126.349 21.465 127.184 20.7181C128.979 19.1147 131.28 19.3375 133.26 19.8306C136.93 20.7437 139.79 22.9607 141.023 26.7263C141.335 27.6795 141.647 27.5207 142.292 27.2431C145.944 25.678 149.602 24.1276 153.264 22.5881C158.01 20.5939 162.912 18.9211 168.067 18.8864C173.553 18.8517 178.794 20.1483 182.788 24.365C185.388 27.1098 188.007 29.8545 190.407 32.7728C191.964 34.6665 193.118 36.8872 194.499 38.9288C195.487 40.3898 196.437 41.9019 197.607 43.2058C199.95 45.8154 200.82 48.8158 200.5 52.2436C200.345 53.9109 199.675 55.2531 198.358 56.3379C193.507 60.3354 188.288 60.5107 182.78 57.9376C182.141 57.6381 181.548 57.2236 180.89 56.977C178.381 56.0402 176.668 54.2231 175.037 52.1705C169.477 45.1726 162.687 39.8127 154.033 37.13C149.723 35.7951 145.318 35.9284 140.911 36.6096C140.661 36.6479 140.429 36.805 140.188 36.9072C140.347 37.1118 140.464 37.3948 140.672 37.5081C141.898 38.171 143.158 38.77 144.383 39.4329C148.295 41.5458 152.723 42.132 156.805 43.6404C161.851 45.5049 166.129 48.7373 167.824 54.2889C168.282 55.7918 168.328 57.4171 168.657 58.9676C168.834 59.8058 169.11 60.655 169.513 61.4074C170.998 64.1777 172.954 66.5809 175.677 68.2062C179.824 70.6826 181.705 74.4902 182.404 79.0757C182.897 82.3008 183.465 85.5167 183.938 88.7454C184.36 91.6106 183.949 94.4412 182.808 97.0509C178.982 105.793 176.758 115.083 173.418 123.985C172.773 125.704 171.858 127.336 170.921 128.921C170.291 129.986 169.654 129.966 168.858 129.004C167.913 127.862 166.964 126.71 166.182 125.459C165.908 125.021 165.989 124.241 166.14 123.68C166.579 122.066 167.033 120.442 167.665 118.899C169.84 113.6 172.053 108.317 174.336 103.063C175.328 100.78 176.336 98.5465 176.08 95.9625C176.02 95.3635 176.208 94.7389 176.276 94.1253C176.363 93.3382 176.59 92.5347 176.502 91.7677C176.102 88.2724 175.403 84.8245 175.32 81.2744C175.293 80.1312 174.272 78.8328 173.379 77.927C171.527 76.0461 169.462 74.3733 167.472 72.6311C166.957 72.1819 166.392 71.7892 165.85 71.371C165.514 71.981 165.163 72.5854 164.845 73.2045C161.863 79.0173 157.829 84.0082 153.092 88.4806C148.269 93.0369 143.483 97.6316 138.762 102.294C134.456 106.545 129.635 110.139 124.642 113.494C120.783 116.087 114.288 115.242 110.838 111.911C109.441 110.563 108.294 108.958 106.904 107.603C102.288 103.097 97.6491 98.6159 92.9449 94.2038C91.1297 92.5018 90.2093 90.3305 89.2304 88.161C88.9273 87.4889 88.8908 86.5649 87.8498 87.635C87.4955 88.0003 86.6646 88.1939 86.1606 88.0569C85.211 87.7994 85.0284 88.3436 84.959 88.9554C84.1354 96.1524 80.9048 102.422 77.4515 108.611C76.8087 109.763 76.2408 110.963 75.7276 112.177C74.652 114.727 73.2476 117.066 71.447 119.16C69.5186 121.407 67.0934 122.227 64.124 121.989C58.3642 121.531 53.1139 119.69 48.154 116.79C42.7248 113.616 36.9358 111.228 31.0792 108.938C25.6609 106.819 20.3942 104.283 15.1548 101.739C11.4495 99.9399 8.39247 97.2006 5.80293 94.0139C1.40365 88.6011 0.116191 82.3592 1.31234 75.5804C2.45736 69.0938 5.03594 63.2664 9.58314 58.3978C13.1369 54.5939 17.6768 52.7293 22.6915 52.0956C28.6723 51.3396 34.2494 52.6818 39.2806 56.0932C40.59 56.9807 40.5735 56.9478 41.2784 55.6257C43.5155 51.4236 46.5342 47.8826 50.3527 45.0338C50.9189 44.6119 51.527 44.2467 52.1041 43.8376C53.0865 43.14 53.0409 43.0944 52.1388 42.4589C47.2446 39.0019 41.7295 38.8978 36.1286 39.5899C33.7819 39.8803 31.47 40.5523 29.1854 41.2024C27.3282 41.732 25.9951 42.9026 25.2208 44.7945C24.5889 46.3322 23.6667 47.7621 22.7755 49.1792C22.361 49.8385 21.7894 50.4575 21.152 50.8977C20.533 51.325 19.7313 51.7468 19.0245 51.7213C18.1224 51.6902 18.3251 50.7059 18.148 50.0448C18.0201 49.5718 17.5855 49.1719 17.2531 48.7683C16.4112 47.742 15.5329 46.7467 14.7001 45.7131C13.6117 44.3617 13.7487 43.907 15.248 43.1272C16.2579 42.6031 17.2166 41.9786 18.1753 41.3631C21.3712 39.3123 24.4903 37.1319 27.7592 35.2089C33.3236 31.9345 39.2678 31.6716 45.4202 33.2786C50.1537 34.5149 54.5603 36.5238 58.85 38.7992C60.6762 39.7689 62.3544 40.4263 64.5915 40.041C67.2924 39.5753 70.05 40.1633 72.5026 41.5951C73.7225 42.3073 75.0391 42.9355 76.0782 43.8632C79.9844 47.3494 84.4111 47.1613 89.0222 45.914C90.7425 45.4483 92.1852 44.4786 93.6754 43.4888C97.0045 41.2755 99.9136 38.7535 102.279 35.4737C103.467 33.8246 105.409 32.7162 107.008 31.3629C107.37 31.1858 107.73 31.0087 108.091 30.8315C108.287 30.7293 108.482 30.627 108.677 30.5247C108.502 30.6489 108.325 30.7731 108.15 30.8954C107.784 31.0671 107.417 31.2388 107.052 31.4104L107.056 31.4196ZM186.694 30.9028C186.712 30.8845 186.729 30.8681 186.747 30.8498C186.915 31.2041 187.085 31.5583 187.253 31.9126C188.162 35.9065 190.403 39.0128 193.626 41.4618C193.812 41.6334 193.999 41.8051 194.187 41.9767C194.528 42.5155 194.87 43.0524 195.211 43.5911C195.394 43.7682 195.575 43.9454 195.757 44.1225C196.008 44.7617 196.223 45.4173 196.515 46.0364C198.33 49.8896 197.815 53.0526 194.868 56.0877C194.444 56.5241 194.037 56.977 193.623 57.4208C193.56 57.5395 193.498 57.66 193.434 57.7787C193.476 57.6418 193.517 57.503 193.559 57.366C195.752 57.1834 197.061 55.5891 198.515 54.2396C198.694 54.0752 198.781 53.7903 198.864 53.5456C200.054 49.9955 198.864 46.4637 195.714 44.1645C195.527 43.9929 195.341 43.8212 195.155 43.6495C194.813 43.1108 194.472 42.5739 194.128 42.0352C193.946 41.858 193.763 41.6809 193.581 41.5056C193.551 41.2481 193.601 40.9449 193.48 40.7422C192.116 38.4102 190.788 36.0544 189.311 33.7973C188.818 33.0449 187.923 32.5554 187.213 31.9455C187.039 31.5985 186.866 31.2497 186.692 30.9028H186.694ZM135.703 34.0146C137.049 33.642 138.397 33.275 139.741 32.8933C139.902 32.8476 140.042 32.7344 140.19 32.6522C140.029 32.5901 139.872 32.5134 139.708 32.4696C137.927 32.0003 137.005 32.3765 135.763 34.0767C135.579 34.2575 135.396 34.4401 135.212 34.6209C134.357 35.3696 133.508 36.122 132.644 36.8579C132.533 36.9529 132.347 36.9602 132.195 37.0077C132.148 36.847 132.018 36.6552 132.064 36.5292C132.334 35.7878 132.61 35.0464 132.947 34.3342C134.03 32.0459 135.789 30.3202 137.657 28.6712C139.262 27.2559 139.29 26.5729 137.951 24.9074C136.761 23.4227 135.256 22.4 133.444 21.7809C130.146 20.6524 128.104 21.6586 127.308 25.0078C126.516 28.3443 125.593 31.6661 125.579 35.145C125.575 36.0526 125.228 36.5895 124.315 35.7787C123.798 35.3185 123.572 35.5011 123.563 36.0909C123.535 37.8788 124.178 39.4749 125.621 40.4592C127.116 41.48 128.881 41.3011 130.387 40.3624C132.602 38.9818 134.145 36.9748 135.144 34.5588C135.329 34.3762 135.515 34.1935 135.7 34.0127L135.703 34.0146ZM122.984 33.0029C120.533 34.9386 119.536 37.6797 120.425 40.4501C120.615 41.0436 121.2 41.6206 121.751 41.9713C125.119 44.1152 128.859 44.4987 132.712 43.9965C133.404 43.907 134.355 43.4322 134.618 42.8697C135.318 41.3741 135.714 39.736 136.213 38.1472C136.258 37.9993 136.16 37.8076 136.129 37.6359C135.963 37.7309 135.743 37.7875 135.637 37.9281C134.474 39.4858 133.362 41.0673 131.644 42.1174C128.479 44.0495 123.444 43.8431 122.189 38.3152C122.005 37.4989 122.109 36.5822 122.239 35.7367C122.383 34.7998 122.708 33.8904 122.955 32.97C123.046 32.8586 123.135 32.7472 123.227 32.6376C123.146 32.76 123.068 32.8823 122.987 33.0047L122.984 33.0029ZM112.848 8.06994C112.83 7.99872 112.825 7.92202 112.79 7.85993C112.77 7.82341 112.706 7.8088 112.662 7.78323C112.744 7.85993 112.827 7.93663 112.909 8.01151C113.555 8.72554 114.094 9.60759 114.872 10.1244C117.195 11.6712 118.464 13.9411 119.642 16.3517C120.568 18.2455 121.682 20.0497 122.724 21.885C123.117 22.5753 123.533 23.2529 123.954 23.9267C124.253 24.4088 124.574 24.8763 124.887 25.3511C125.115 24.7832 125.425 24.2335 125.546 23.6437C125.626 23.2492 125.539 22.747 125.352 22.3818C123.908 19.5548 122.429 16.7462 120.944 13.9411C119.209 10.665 116.245 9.06704 112.85 8.06812L112.848 8.06994ZM119.801 33.5361C115.584 33.7881 112.1 35.8627 108.663 38.0377C108.489 38.1472 108.446 38.4613 108.34 38.6805C108.597 38.728 108.855 38.7919 109.114 38.8193C110.955 39.0037 112.806 39.1151 114.634 39.3836C115.67 39.5351 116.841 40.408 117.648 40.1159C118.886 39.6703 117.839 38.1162 118.281 37.1191C118.807 35.9284 119.277 34.7103 119.77 33.5051C119.854 33.4905 119.949 33.4941 120.014 33.4539C120.053 33.4302 120.044 33.3316 120.056 33.2677C119.972 33.3571 119.888 33.4485 119.803 33.5379L119.801 33.5361ZM80.472 36.1914C80.2931 36.0453 80.1305 35.8188 79.9297 35.775C79.7434 35.733 79.5133 35.8846 79.3014 35.9522C79.4548 36.0124 79.6046 36.1056 79.7635 36.1275C80.0082 36.1603 80.2584 36.1457 80.5067 36.1512C80.6729 36.321 80.8099 36.5895 81.0089 36.6479C85.2165 37.8715 89.2103 37.32 92.9851 35.1249C98.0418 32.1829 103.455 30.0426 108.929 28.0411C110.087 27.6174 111.254 27.1901 112.45 26.9071C115.564 26.1693 118.555 25.8844 120.825 28.9396C121.485 29.8271 122.571 30.4005 123.49 31.0835C123.59 31.1584 124.025 31.0215 124.041 30.932C124.237 29.8929 124.516 28.841 124.483 27.8019C124.467 27.3216 123.798 26.8742 123.457 26.3884C121.888 24.155 120.029 22.0604 118.837 19.6388C117.049 16.0084 114.748 12.9239 111.724 10.2431C108.013 6.95414 104.094 4.60202 98.8562 5.36901C94.8679 5.95339 91.4401 7.45269 88.7008 10.4951C85.9999 13.4937 84.7818 17.1717 83.7939 20.9336C82.9976 23.9632 81.7796 26.7591 80.0502 29.3541C79.5115 30.1631 78.9819 30.9813 78.5217 31.8359C78.182 32.4641 78.2897 33.1179 79.044 33.3352C80.8866 33.8666 82.6616 34.4985 84.707 34.2282C87.5887 33.8484 90.1033 32.6632 92.6363 31.4159C95.6458 29.933 98.6316 28.4009 101.685 27.0166C104.57 25.7073 107.503 24.4892 110.465 23.3643C114.899 21.6805 118.76 22.7379 122.036 26.0907C122.184 26.2423 122.206 26.5163 122.286 26.7336C122.049 26.7463 121.769 26.8468 121.579 26.7573C120.71 26.3482 119.746 26.025 119.036 25.4151C117.072 23.7295 114.85 23.629 112.553 24.2335C110.77 24.7028 108.986 25.2799 107.326 26.067C102.543 28.3333 97.7514 30.596 93.1019 33.1179C89.119 35.2783 85.0631 36.7155 80.4757 36.1932L80.472 36.1914ZM64.5933 118.971C66.6405 119.157 68.1818 118.322 69.4309 116.752C70.9813 114.803 72.3948 112.8 73.023 110.335C73.1965 109.655 73.5051 109.009 73.7736 108.357C76.7703 101.107 79.7726 93.8587 82.7602 86.6051C82.8808 86.3129 82.9885 85.9148 82.8899 85.6482C82.0097 83.2887 82.7712 80.9384 82.8315 78.5808C82.9465 73.9953 82.952 69.4061 82.9483 64.8168C82.9483 63.1495 82.5228 61.4366 82.7858 59.8259C83.0342 58.301 82.5521 57.282 81.6956 56.2228C80.64 54.9153 79.5115 53.6041 79.38 51.8436C79.2485 50.0887 78.3062 48.803 77.0169 47.868C74.9515 46.3705 72.8313 44.8749 70.5394 43.7901C69.0072 43.0633 67.1043 42.6433 65.4243 42.7784C57.0877 43.4505 50.1062 46.7285 45.3855 53.9657C44.613 55.149 43.8515 56.3415 43.037 57.4938C42.1988 58.6772 41.3898 58.869 40.1133 58.2389C39.7189 58.0453 39.3701 57.7641 38.9939 57.5322C33.9974 54.4624 28.5937 53.2534 22.812 54.2998C17.6987 55.2239 13.2994 57.5176 10.0908 61.7616C6.93882 65.929 4.98115 70.6369 4.12467 75.7539C3.06913 82.0633 4.18676 87.9455 8.61891 92.7831C10.4506 94.7809 12.547 96.6564 14.8353 98.0936C20.6827 101.768 27.109 104.281 33.5281 106.788C37.3868 108.297 41.2036 109.925 44.9673 111.657C47.4491 112.798 49.7958 114.233 52.2173 115.508C56.0961 117.55 60.2562 118.598 64.5952 118.974L64.5933 118.971ZM90.1691 76.53C90.1271 76.53 90.0869 76.5337 90.0449 76.5355C90.0449 77.9508 90.1654 79.3789 90.0175 80.7777C89.7655 83.1645 90.0047 85.3085 91.9478 87.0068C92.3952 87.3976 92.7038 87.993 92.9613 88.5481C93.8087 90.3725 95.1746 91.7166 96.7653 92.8817C97.4062 93.351 98.0418 93.8368 98.6134 94.3846C103.4 98.9665 108.201 103.534 112.934 108.171C115.995 111.169 120.217 111.556 123.705 109.016C129.067 105.11 134.271 101.061 138.895 96.2309C142.984 91.9576 147.566 88.161 151.894 84.1142C156.522 79.7879 160.366 74.8737 163.03 69.081C164.793 65.2478 165.844 61.2905 165.452 57.0227C165.269 55.0431 164.814 53.1439 163.52 51.6208C159.865 47.3256 155.386 44.6831 149.544 44.6758C144.31 44.6704 139.144 45.2127 134.054 46.3468C129.428 47.3768 125.095 46.7394 121.006 44.4695C116.873 42.1758 112.489 41.1367 107.781 41.3942C105.84 41.5001 103.831 41.3011 101.97 41.7375C95.2112 43.3226 90.8722 47.9502 87.5978 53.7648C87.428 54.0661 87.4426 54.7235 87.6544 54.9518C89.3875 56.8163 89.245 59.2543 89.4386 61.453C89.8805 66.4622 89.9499 71.5025 90.1691 76.53ZM174.082 24.7887C169.966 24.8763 166 25.6032 162.073 26.6952C155.461 28.5324 148.987 30.8936 142.173 31.9729C141.92 32.0131 141.678 32.1226 141.43 32.1993C141.662 32.2669 141.899 32.4057 142.128 32.3911C143.092 32.329 144.06 32.2724 145.013 32.1245C149.422 31.436 153.775 31.2936 158.026 33.012C159.164 33.4722 160.377 33.7461 161.558 34.0949C164.99 35.1048 168.237 36.5658 170.771 39.106C173.447 41.785 175.943 44.6594 178.354 47.5831C180.604 50.3115 182.695 53.1439 185.657 55.202C188.37 57.0884 189.344 57.198 191.941 55.1947C192.834 54.5062 193.604 53.6168 194.287 52.7092C195.124 51.5989 195.288 50.337 194.886 48.9436C194.282 46.8399 193.182 45.0246 191.637 43.56C188.022 40.1305 185.662 35.9704 183.951 31.3483C183.374 29.7888 182.479 28.3424 181.666 26.8797C181.226 26.0889 180.587 25.5575 179.574 25.4698C177.738 25.311 175.912 25.0224 174.082 24.7887ZM182.223 90.7816C181.376 85.723 180.609 80.7595 179.683 75.8269C179.334 73.9752 178.297 72.3699 176.796 71.1738C173.752 68.7505 170.591 66.4495 168.852 62.7898C168.792 62.6619 168.564 62.6126 168.414 62.5268C168.354 62.6693 168.27 62.8044 168.237 62.9523C167.946 64.2416 167.884 65.6368 167.327 66.7964C166.526 68.471 167.282 69.5065 168.447 70.31C171.038 72.0942 172.879 74.6107 175.078 76.7729C177.227 78.8876 177.601 81.5155 177.565 84.3278C177.552 85.3669 177.645 86.4133 177.747 87.4488C177.877 88.7581 178.211 90.0639 178.195 91.3678C178.173 93.0314 177.696 94.7006 177.762 96.3551C177.877 99.224 176.853 101.693 175.633 104.168C172.778 109.951 170.686 116.04 168.461 122.079C167.819 123.825 168.198 125.043 169.188 126.383C169.76 127.156 170.16 127.039 170.501 126.317C170.989 125.286 171.433 124.226 171.803 123.147C172.545 120.981 173.202 118.786 173.934 116.618C176.213 109.865 178.062 102.968 180.859 96.3825C181.599 94.6403 181.783 92.6607 182.225 90.7816H182.223ZM38.5355 34.0091C35.4584 33.7443 32.5365 34.4857 29.9013 35.9759C26.3019 38.0121 22.7664 40.1853 19.3551 42.5209C16.1282 44.7288 16.214 44.8548 18.9442 47.6379C19.0683 47.7639 19.2053 47.8771 19.3204 48.0105C19.8773 48.6515 20.4069 48.8797 20.9238 47.963C21.6579 46.6591 22.5655 45.4264 23.1134 44.0495C24.2292 41.2517 26.3019 39.6447 29.0886 38.9106C34.0577 37.6012 39.0888 36.7118 44.2314 37.7509C46.2036 38.1491 48.123 38.812 50.0752 39.3178C51.2001 39.61 52.1698 39.999 52.9514 40.9979C53.8061 42.0918 55.0113 42.5666 56.4577 41.858C57.1608 41.5129 57.9625 41.3741 58.7039 41.1002C58.9833 40.9979 59.2207 40.7806 59.4782 40.6162C59.2517 40.4847 59.0363 40.3295 58.7989 40.2273C55.3236 38.7316 51.9032 37.0789 48.3494 35.8006C45.2139 34.6738 41.9614 33.7845 38.5355 34.0054V34.0091ZM176.542 23.9121C176.63 23.9176 176.719 23.9358 176.807 23.9249C177.152 23.8847 177.497 23.8372 177.842 23.7916C177.579 23.5797 177.349 23.3003 177.052 23.167C173.549 21.6075 169.97 20.7656 166.047 21.1783C161.6 21.6458 157.479 23.0848 153.366 24.6481C149.337 26.1784 145.307 27.7051 141.302 29.2975C140.546 29.5989 139.914 30.2088 139.226 30.6781C139.995 30.6489 140.802 30.7567 141.529 30.5649C146.711 29.2026 151.876 27.7654 157.053 26.3775C163.436 24.6681 169.853 23.1944 176.544 23.9121H176.542ZM153.269 33.7132C152.539 33.8082 152.294 33.8411 152.048 33.8721C152.289 34.0694 152.502 34.3634 152.778 34.4474C154.537 34.9916 156.387 35.3112 158.065 36.0343C165.832 39.3854 172.327 44.3745 177.355 51.2428C178.167 52.3531 179.334 53.2169 180.392 54.1318C180.686 54.3857 181.175 54.4149 181.577 54.5464C181.378 54.2286 181.214 53.8853 180.976 53.5986C179.796 52.1723 178.602 50.7589 177.408 49.3436C175.362 46.9202 173.348 44.4695 171.257 42.0863C169.552 40.1433 167.57 38.4102 165.158 37.5227C161.126 36.0398 156.973 34.8802 153.271 33.7114L153.269 33.7132ZM76.4782 30.081C76.6772 29.8417 76.7996 29.7157 76.8964 29.5751C78.6842 26.9509 80.4008 24.2993 81.1678 21.1436C81.5604 19.5238 82.0462 17.9204 82.6068 16.3499C84.1883 11.925 86.6409 8.14117 90.7589 5.63381C91.3543 5.2704 91.9368 4.8869 92.5249 4.51253C91.7798 4.63124 90.9635 4.59654 90.3079 4.90516C89.4532 5.31058 88.6643 5.9187 87.9649 6.56699C87.1285 7.34312 86.4674 8.30735 85.6401 9.09443C82.8315 11.7734 80.9925 15.0588 79.7069 18.66C78.5838 21.8029 77.6013 24.9969 76.5695 28.1726C76.4362 28.5853 76.3522 29.02 76.2992 29.4509C76.2773 29.6281 76.3996 29.8216 76.4782 30.081ZM118.168 30.8352C118.802 31.005 118.897 31.0653 118.972 31.0452C119.359 30.9393 119.741 30.8133 120.124 30.6946C119.746 30.4152 119.361 29.8874 118.99 29.8965C117.25 29.9367 115.416 29.8162 113.791 30.3184C109.079 31.7738 105.073 34.4602 101.714 38.0851C101.535 38.2787 101.356 38.4741 101.197 38.686C100.909 39.0731 100.987 39.3434 101.497 39.347C103.102 39.3598 104.55 39.2229 105.776 37.824C108.25 35.0025 111.335 32.9536 114.877 31.6789C116.094 31.2406 117.39 31.0306 118.168 30.8352ZM143.669 42.5209V42.4461C144.197 42.4461 144.725 42.4625 145.249 42.4388C145.477 42.4278 145.703 42.3328 145.93 42.2744C145.734 42.1082 145.561 41.8398 145.34 41.7905C143.437 41.3778 141.604 40.8463 140.181 39.3945C139.573 38.7736 138.912 38.202 138.276 37.6085C138.123 38.4814 138.01 39.3653 137.801 40.2254C137.659 40.8171 137.433 41.3997 137.157 41.9439C136.777 42.6926 136.83 43.0597 137.791 43.0505C139.23 43.0378 139.293 42.9903 138.903 41.6663C138.853 41.4983 138.768 41.3339 138.755 41.1623C138.7 40.4957 138.669 39.8255 138.627 39.1589C139.073 39.6611 139.529 40.1542 139.96 40.6692C140.128 40.8682 140.32 41.1002 140.365 41.3412C140.585 42.5118 141.403 42.5976 142.354 42.5246C142.791 42.4899 143.231 42.5191 143.671 42.5191L143.669 42.5209ZM85.4758 51.0547C86.7669 51.3286 87.9959 50.6274 88.6515 48.9144C88.741 48.6807 88.8104 48.4378 88.8889 48.1986C88.6497 48.1602 88.3959 48.0488 88.1749 48.0963C85.8757 48.5894 83.6058 49.2431 81.2062 48.5894C80.5853 48.4195 80.8848 48.9455 80.9907 49.2303C81.7084 51.1771 83.4195 50.8922 85.4758 51.0529V51.0547ZM87.4481 59.6725C87.2472 58.8744 87.1741 57.8664 86.7413 57.0464C86.2501 56.1151 86.0912 56.6593 86.1204 57.3386C86.1259 57.4555 85.9268 57.6819 85.8081 57.6911C84.0094 57.8426 84.0879 59.1502 84.1865 60.3902C84.3381 62.3022 84.5627 64.2087 84.78 66.1134C84.8001 66.2906 84.9845 66.4495 85.0923 66.6156C85.1507 66.4531 85.2457 66.2961 85.2621 66.1299C85.4685 64.0389 85.6456 61.9461 85.8848 59.8588C85.9141 59.6067 86.2647 59.3894 86.4674 59.1575C86.5934 59.3693 86.7486 59.5702 86.8381 59.7967C86.9623 60.1126 87.039 60.4486 87.1358 60.7755C87.2216 60.4669 87.3093 60.1582 87.4462 59.6707L87.4481 59.6725ZM84.8914 82.0725C84.6138 83.7252 84.8549 84.6218 85.7314 85.2427C86.0382 85.4601 86.4564 85.6774 86.7943 85.639C87.0006 85.6153 87.2508 85.1222 87.3056 84.8099C87.3787 84.3972 87.3312 83.9443 87.2454 83.528C86.7505 81.1521 86.23 78.7835 85.715 76.4113C85.6785 76.2433 85.6219 76.0808 85.5744 75.9146C85.4904 76.0917 85.3498 76.2634 85.3333 76.446C85.158 78.5297 85.0028 80.6152 84.8914 82.0725ZM87.4261 71.665C87.4261 71.665 87.417 71.665 87.4134 71.665C87.4134 74.4043 87.4061 77.1436 87.4225 79.8829C87.4243 80.2225 87.5595 80.5604 87.6325 80.9001C87.7293 80.5933 87.9119 80.2846 87.9101 79.9778C87.879 74.4116 87.8279 68.8454 87.7695 63.2792C87.7676 63.0783 87.6398 62.8793 87.5722 62.6802C87.5229 62.9359 87.4335 63.1897 87.4316 63.4454C87.4207 66.1847 87.4243 68.9239 87.4243 71.6632L87.4261 71.665ZM83.6587 53.1037C83.8103 53.0927 83.5711 53.111 83.3318 53.1274C83.3903 53.3539 83.4341 53.584 83.5108 53.8031C83.5674 53.9638 83.6752 54.1044 83.75 54.2597C84.1007 54.9883 84.601 55.3462 85.3534 54.8039C85.7132 54.5446 85.9999 54.1811 86.3195 53.8652C85.8209 53.6497 85.3315 53.4123 84.822 53.2297C84.5846 53.1457 84.3107 53.1676 83.6569 53.1037H83.6587ZM93.5165 3.99207C93.5384 4.03407 93.5512 4.09982 93.5822 4.11077C93.6516 4.13269 93.7301 4.12721 93.805 4.13269C93.7831 4.0706 93.7721 3.96833 93.7338 3.95737C93.6699 3.93911 93.5895 3.97746 93.5165 3.99207Z" fill="#021436"/>
<path id="S" d="M47.1576 78.8454C47.1576 79.72 47.3709 80.4774 47.7976 81.1174C48.2456 81.736 48.8109 82.28 49.4936 82.7494C50.1762 83.2187 50.9016 83.688 51.6696 84.1574C52.4589 84.6054 53.2162 85.0854 53.9416 85.5974C54.6882 86.1094 55.2962 86.7174 55.7656 87.4214C56.2562 88.1254 56.5016 88.9894 56.5016 90.0134C56.5016 91.0374 56.2456 91.9654 55.7336 92.7974C55.2216 93.608 54.4749 94.2587 53.4936 94.7494C52.5336 95.24 51.3389 95.4854 49.9096 95.4854C49.3976 95.4854 48.8856 95.4427 48.3736 95.3574C47.8829 95.2934 47.3816 95.176 46.8696 95.0054C46.3789 94.8347 45.8882 94.6214 45.3976 94.3654C45.2909 94.3014 45.2162 94.2267 45.1736 94.1414C45.1522 94.0347 45.1309 93.9067 45.1096 93.7574L44.6936 89.4054C44.6722 89.2987 44.7149 89.2454 44.8216 89.2454C44.9496 89.224 45.0242 89.256 45.0456 89.3414C45.1949 89.9814 45.4082 90.632 45.6856 91.2934C45.9629 91.9547 46.3256 92.5627 46.7736 93.1174C47.2216 93.672 47.7656 94.12 48.4056 94.4614C49.0456 94.8027 49.7922 94.9734 50.6456 94.9734C51.2642 94.9734 51.8616 94.856 52.4376 94.6214C53.0349 94.3867 53.5149 94.0027 53.8776 93.4694C54.2616 92.936 54.4536 92.2107 54.4536 91.2934C54.4536 90.248 54.2189 89.384 53.7496 88.7014C53.3016 87.9974 52.7256 87.3894 52.0216 86.8774C51.3176 86.3654 50.5709 85.8854 49.7816 85.4374C49.0349 84.968 48.3096 84.488 47.6056 83.9974C46.9229 83.5067 46.3576 82.9307 45.9096 82.2694C45.4829 81.5867 45.2696 80.744 45.2696 79.7414C45.2696 78.6107 45.5576 77.6827 46.1336 76.9574C46.7096 76.2107 47.4562 75.656 48.3736 75.2934C49.2909 74.9307 50.2402 74.7494 51.2216 74.7494C51.8189 74.7494 52.4376 74.8134 53.0776 74.9414C53.7176 75.048 54.3469 75.24 54.9656 75.5174C55.1362 75.5814 55.2536 75.6667 55.3176 75.7734C55.4029 75.8587 55.4456 75.9547 55.4456 76.0614L55.6696 79.7094C55.6696 79.7947 55.6162 79.848 55.5096 79.8694C55.4029 79.8694 55.3282 79.8267 55.2856 79.7414C55.2429 79.3147 55.1256 78.8454 54.9336 78.3334C54.7416 77.8 54.4642 77.2987 54.1016 76.8294C53.7389 76.36 53.2802 75.976 52.7256 75.6774C52.1709 75.3787 51.4989 75.2294 50.7096 75.2294C49.8776 75.2294 49.1949 75.4107 48.6616 75.7734C48.1496 76.1147 47.7656 76.5627 47.5096 77.1174C47.2749 77.6507 47.1576 78.2267 47.1576 78.8454Z" fill="#021436"/>
<path id="K" d="M117.872 83.5094V68.6934C117.872 68.0747 117.808 67.616 117.68 67.3174C117.552 66.9974 117.285 66.784 116.88 66.6774C116.496 66.5494 115.92 66.4854 115.152 66.4854C115.109 66.4854 115.088 66.4214 115.088 66.2934C115.088 66.1654 115.109 66.1014 115.152 66.1014C115.664 66.1014 116.24 66.1227 116.88 66.1654C117.52 66.1867 118.192 66.1974 118.896 66.1974C119.664 66.1974 120.357 66.1867 120.976 66.1654C121.616 66.1227 122.181 66.1014 122.672 66.1014C122.736 66.1014 122.768 66.1654 122.768 66.2934C122.768 66.4214 122.736 66.4854 122.672 66.4854C121.904 66.4854 121.328 66.5494 120.944 66.6774C120.56 66.8054 120.293 67.0294 120.144 67.3494C120.016 67.6694 119.952 68.1387 119.952 68.7574V83.5094C119.952 84.128 120.016 84.5974 120.144 84.9174C120.272 85.2374 120.528 85.4507 120.912 85.5574C121.317 85.664 121.904 85.7174 122.672 85.7174C122.736 85.7174 122.768 85.7814 122.768 85.9094C122.768 86.0374 122.736 86.1014 122.672 86.1014C122.16 86.1014 121.595 86.0907 120.976 86.0694C120.357 86.048 119.664 86.0374 118.896 86.0374C118.192 86.0374 117.509 86.048 116.848 86.0694C116.208 86.0907 115.632 86.1014 115.12 86.1014C115.077 86.1014 115.056 86.0374 115.056 85.9094C115.056 85.7814 115.077 85.7174 115.12 85.7174C115.888 85.7174 116.475 85.664 116.88 85.5574C117.285 85.4507 117.552 85.2374 117.68 84.9174C117.808 84.5974 117.872 84.128 117.872 83.5094ZM125.904 81.4614L120.816 75.0614L122.416 73.7814L127.088 79.7334C128.048 80.992 128.859 82.0054 129.52 82.7734C130.203 83.5414 130.768 84.1387 131.216 84.5654C131.664 84.9707 132.059 85.2587 132.4 85.4294C132.763 85.5787 133.104 85.664 133.424 85.6854C133.744 85.7067 134.107 85.7174 134.512 85.7174C134.576 85.7174 134.608 85.7814 134.608 85.9094C134.608 86.0374 134.576 86.1014 134.512 86.1014C133.552 86.1014 132.784 86.1014 132.208 86.1014C131.632 86.1014 131.205 86.1014 130.928 86.1014C130.736 86.1014 130.576 86.1014 130.448 86.1014C130.341 86.1227 130.224 86.1334 130.096 86.1334C129.797 86.1334 129.552 86.08 129.36 85.9734C129.189 85.8667 128.987 85.6534 128.752 85.3334C128.517 85.0134 128.176 84.544 127.728 83.9254C127.301 83.3067 126.693 82.4854 125.904 81.4614ZM118.544 76.9174L126.8 68.6934C127.589 67.8827 127.92 67.3174 127.792 66.9974C127.685 66.656 127.077 66.4854 125.968 66.4854C125.925 66.4854 125.904 66.4214 125.904 66.2934C125.904 66.1654 125.925 66.1014 125.968 66.1014C126.501 66.1014 127.035 66.1227 127.568 66.1654C128.101 66.1867 128.805 66.1974 129.68 66.1974C130.512 66.1974 131.173 66.1867 131.664 66.1654C132.155 66.1227 132.624 66.1014 133.072 66.1014C133.136 66.1014 133.168 66.1654 133.168 66.2934C133.168 66.4214 133.136 66.4854 133.072 66.4854C132.304 66.4854 131.419 66.6667 130.416 67.0294C129.413 67.3707 128.453 67.9894 127.536 68.8854L119.344 76.9174H118.544Z" fill="#021436"/>
</g>
</g>
</g>
</g>
</g>
</g>
</g>
</svg>
