<svg preserveAspectRatio="none" width="100%" height="100%" overflow="visible" style="display: block;" viewBox="0 0 348 108" fill="none" xmlns="http://www.w3.org/2000/svg">
<path id="Ellipse 2" d="M174 1C221.977 1 265.372 7.03664 296.74 16.7715C312.43 21.6407 325.054 27.4182 333.734 33.7871C342.435 40.1711 347 47.0135 347 54C347 60.9865 342.435 67.8289 333.734 74.2129C325.054 80.5818 312.43 86.3593 296.74 91.2285C265.372 100.963 221.977 107 174 107C126.023 107 82.6276 100.963 51.2598 91.2285C35.5699 86.3593 22.9457 80.5818 14.2656 74.2129C5.56492 67.8289 1 60.9865 1 54C1 47.0135 5.56492 40.1711 14.2656 33.7871C22.9457 27.4182 35.5699 21.6407 51.2598 16.7715C82.6276 7.03664 126.023 1 174 1Z" stroke="#EADEE3" stroke-width="2"/>
</svg>
