<svg preserveAspectRatio="none" width="100%" height="100%" overflow="visible" style="display: block;" viewBox="0 0 100.998 88.1834" fill="none" xmlns="http://www.w3.org/2000/svg">
<g id="Group 1">
<path id="Vector 35" d="M64.0516 27.4197C65.4488 26.8884 68.2948 26.4515 69.8614 26.4192C69.8901 26.4179 69.9188 26.4167 69.9475 26.4154C70.3186 26.4005 70.6702 26.3893 71.0828 26.3846C72.058 26.3885 73.4027 26.3505 76.12 26.7972C76.9108 26.9146 77.6997 27.0628 78.4791 27.2396C86.8403 29.1649 94.7796 34.3051 98.7279 42.1624C98.778 42.2604 98.8283 42.3603 98.8783 42.4618C99.875 44.4101 100.633 47.0545 100.813 48.7547C100.89 49.3751 100.931 49.9417 100.951 50.4669C100.998 51.7426 101.002 52.6641 100.996 53.5119C101.044 60.2146 100.271 67.0556 97.4973 73.2804C96.6254 75.2198 95.551 77.0735 94.254 78.7674C93.0601 80.3287 91.6741 81.7518 90.1274 82.9732C89.2404 83.6949 88.3373 84.3219 87.4707 84.8467C86.25 85.5866 85.0995 86.1288 84.1225 86.5129C81.77 87.4583 78.9296 87.9811 76.8134 88.1031C76.5571 88.1199 76.3129 88.1323 76.0827 88.1412C76.002 88.1444 75.9225 88.1471 75.8444 88.1495C74.1663 88.2301 72.4847 88.1641 70.8191 87.9808C70.7086 87.9605 70.5972 87.9392 70.4837 87.9169C69.0847 87.6316 67.3421 87.3681 64.7026 86.5847C63.5524 86.237 62.2355 85.7815 60.7376 85.1166C59.7719 84.6843 59.3075 84.4014 58.9269 84.173C58.8157 84.1055 58.7117 84.0416 58.6059 83.9779C58.2437 83.7594 57.8383 83.5658 57.3693 83.3266C56.7589 83.0138 56.0305 82.6226 55.1627 81.963C52.4283 79.8339 51.3655 78.7351 50.5078 77.9559C50.2619 77.7219 50.0404 77.503 49.8253 77.2718C49.1263 76.5292 48.2538 75.3438 47.6867 74.4041C47.2202 73.6606 46.2969 72.1874 45.6845 71.0075C45.4479 70.5605 45.167 69.9563 44.8615 69.2085C44.5531 68.4546 44.2206 67.5464 43.9046 66.5806C43.2776 64.6421 43.0247 63.3903 42.8296 62.4019C42.7796 62.141 42.7357 61.9013 42.6954 61.6739C42.6409 61.3649 42.5932 61.0783 42.5476 60.7908C42.4032 59.8825 42.2601 58.7463 42.1703 57.5887C42.0595 56.2047 42.0334 54.7878 42.056 53.7093C42.1857 50.917 42.6787 48.1177 43.6397 45.47C44.1298 44.1084 44.8008 42.881 45.4063 42.0577C46.0124 41.2328 46.4761 40.8627 46.6293 40.9601C46.7869 41.0608 46.6278 41.6175 46.283 42.5339C45.9373 43.4512 45.4563 44.666 45.0224 45.9552C44.1407 48.5514 43.7303 51.2969 43.672 54.0499C43.6142 56.7495 43.8837 59.4585 44.3548 62.1367C44.4711 62.7967 44.6011 63.431 44.7507 64.0694C45.2853 66.3523 46.0631 68.5768 47.1038 70.6694C47.2111 70.8855 47.3207 71.0991 47.4324 71.3102C48.3917 73.0248 49.5596 74.5993 50.4447 75.648C51.1715 76.5139 51.7261 77.1319 52.2118 77.6497C52.5486 78.0068 52.8497 78.3095 53.1776 78.6047C53.353 78.7623 53.5949 78.9741 53.8913 79.2209C55.0953 80.2456 57.3015 81.7997 59.4743 82.951C60.4354 83.4717 61.5732 84.0309 62.6968 84.5017C64.2985 85.1796 65.8557 85.6625 66.6554 85.8449C68.0593 86.1729 69.6812 86.4935 71.1305 86.6748C72.5145 86.8526 73.7235 86.9087 74.422 86.8823C74.9579 86.862 75.4604 86.851 76.0172 86.8314C76.3098 86.8209 76.6261 86.8071 76.9858 86.7833C77.7033 86.7343 78.5965 86.6526 79.7812 86.4242C81.1494 86.1552 82.1055 85.8869 82.9046 85.6378C84.0309 85.2761 84.867 84.9556 86.0265 84.3121C87.312 83.5952 88.5721 82.7111 89.5198 81.9692C89.9532 81.633 90.4334 81.2195 90.905 80.7712C91.5347 80.1746 92.156 79.5073 92.7034 78.8792C93.1528 78.3643 93.528 77.9274 93.8459 77.5397C93.9457 77.4176 94.0409 77.2987 94.1318 77.1816C94.4466 76.7243 94.7363 76.272 95.0237 75.7892C95.0661 75.707 95.1058 75.6272 95.1491 75.5398C95.3616 75.1099 95.6316 74.5392 95.9361 73.8788C96.4324 72.8016 96.8507 71.8519 97.2444 70.8392C97.5542 70.0365 97.8407 69.2139 98.1125 68.2116C98.291 67.5527 98.4708 66.7665 98.6202 65.9996C98.8438 64.8629 99.0105 63.7193 99.1361 62.9248C99.1836 62.6265 99.2412 62.3608 99.2939 62.1196C99.2942 62.1186 99.2945 62.1175 99.2948 62.1164C99.2984 62.0996 99.302 62.0828 99.3056 62.066C99.5286 60.1273 99.6369 58.1612 99.6549 56.2121C99.6525 56.0402 99.6495 55.8657 99.6459 55.6919C99.6284 54.8757 99.5934 54.0708 99.5447 53.5356C99.4986 53.0133 99.4471 51.898 99.3457 50.5614C99.3325 50.3876 99.3168 50.2123 99.2985 50.0366C99.2017 49.0849 99.0167 48.1078 98.808 47.3295C98.6864 46.8722 98.5909 46.4378 98.4757 45.9893C98.3681 45.5712 98.2443 45.145 98.0628 44.6958C97.9717 44.4705 97.8632 44.2315 97.7419 43.9793C97.6351 43.7573 97.5182 43.5248 97.3944 43.2821C97.2795 43.0569 97.0422 42.5445 96.6939 41.9091C96.4792 41.5168 96.2202 41.0751 95.9299 40.6263C95.1276 39.4573 94.2181 38.3667 93.2211 37.3533C93.0013 37.155 92.8006 36.9926 92.6316 36.8749C92.5104 36.7906 92.4008 36.7256 92.288 36.6596C92.1342 36.5696 91.9759 36.4788 91.7719 36.3388C91.6126 36.2294 91.4364 36.0876 91.3286 35.9799C91.2784 35.9297 91.2433 35.887 91.2113 35.8483C91.1747 35.804 91.1418 35.7645 91.0945 35.7248C91.0603 35.6961 91.0203 35.6716 90.9712 35.6414C90.8925 35.5932 90.7914 35.5315 90.6518 35.4186C90.1325 34.9986 89.528 34.5343 88.9179 34.1048C88.2387 33.6253 87.5538 33.1899 86.992 32.8672C86.3648 32.5046 85.4686 31.9873 84.539 31.5225C83.8926 31.1974 83.2304 30.8955 82.6537 30.6608C82.0883 30.4301 81.4846 30.2273 80.8957 30.0488C80.189 29.8341 79.5019 29.6542 78.924 29.4818C78.8071 29.4469 78.6673 29.3825 78.4903 29.3035C78.3648 29.2475 78.2199 29.184 78.0528 29.1193C77.3014 28.9489 76.5417 28.8046 75.7811 28.6889C75.7538 28.6887 75.7255 28.6884 75.6973 28.6883C75.6968 28.6883 75.6964 28.6883 75.6959 28.6884C75.0541 28.686 74.1912 28.695 72.9897 28.556C72.6846 28.5214 72.4923 28.4807 72.3182 28.4446C72.1475 28.4094 71.9943 28.3789 71.7696 28.3708C71.514 28.3618 71.2145 28.3809 70.8858 28.4084C70.4245 28.4468 69.916 28.5021 69.4002 28.5131C69.3649 28.5139 69.327 28.5147 69.2875 28.5157C68.9126 28.5253 68.3622 28.5501 67.8065 28.5663C66.1858 28.7787 64.5831 29.1491 63.0443 29.6919C62.8089 29.7749 62.575 29.862 62.3426 29.953C59.9942 30.8747 57.712 31.9621 55.5721 33.2787C54.4249 33.9821 53.3387 34.6781 52.511 35.1745C51.6831 35.6702 51.1688 35.9122 51.0465 35.7761C50.9262 35.6438 51.2101 35.1378 51.8926 34.4092C52.5737 33.6814 53.6114 32.8098 54.7859 32.0421C56.6988 30.788 58.7231 29.7182 60.802 28.7923C60.9106 28.7415 61.0184 28.6917 61.1273 28.6421C61.3229 28.553 61.5119 28.4665 61.7016 28.3798C62.3101 28.1023 62.9018 27.8502 63.5022 27.6211C63.6839 27.5518 63.867 27.4846 64.0516 27.4197Z" fill="#08004c"/>
<path id="Vector 25" d="M5.20425 37.8729C5.43085 37.2585 5.9551 36.2582 6.38176 35.5C6.50296 35.2827 6.62349 35.0879 6.73034 34.9243C6.73987 34.9097 6.74945 34.895 6.75905 34.8804C6.88387 34.6917 7.00446 34.5148 7.15135 34.3139C7.50746 33.8445 7.99111 33.1779 9.25205 32.1528C9.60885 31.8439 9.97677 31.555 10.3557 31.2814C13.846 28.807 17.841 27.5582 21.7288 26.4659C22.4614 26.2615 23.2021 26.1023 23.9456 25.9806C24.0069 25.969 24.0693 25.9575 24.1324 25.9461C25.3499 25.7185 26.8749 25.5852 27.8303 25.592C29.0454 25.5959 29.864 25.6647 30.5341 25.728C34.0853 25.9763 37.5668 26.6863 40.9363 27.7649C41.2215 27.8572 41.5034 27.9568 41.7824 28.0637C42.9276 28.5019 44.0205 29.0626 45.0507 29.7104C45.9996 30.3068 46.8971 30.9774 47.7477 31.6933C48.2537 32.0984 48.7228 32.4972 49.1488 32.8765C49.7472 33.4095 50.2607 33.9038 50.6683 34.3261C51.5444 35.2321 52.4414 36.3141 53.1397 37.1982C53.2257 37.3068 53.3087 37.4123 53.3884 37.5142C53.5075 37.6662 53.6193 37.81 53.7226 37.9431C54.1313 38.4365 54.5351 38.9328 54.936 39.4305C55.1277 39.6688 55.3111 39.9048 55.4942 40.1491C55.526 40.205 55.5575 40.2615 55.5892 40.3189C55.9825 41.0388 56.5519 41.8617 57.305 43.2423C57.6309 43.8444 57.9869 44.5529 58.3527 45.4111C58.587 45.964 58.6626 46.2651 58.7262 46.5121C58.7445 46.5843 58.7613 46.6518 58.7796 46.7192C58.8438 46.9541 58.9544 47.1795 59.0832 47.4537C59.2489 47.8067 59.4434 48.2346 59.5818 48.8365C60.0089 50.7521 60.2534 51.5728 60.4695 52.1882C60.53 52.3656 60.585 52.5296 60.6334 52.6999C60.6462 52.7447 60.6587 52.7904 60.6709 52.8363C60.8211 53.3984 60.9078 54.1541 60.9255 54.7337C60.9473 55.2341 61.0455 56.2239 61.094 56.9758C61.1141 57.2601 61.114 57.6446 61.1032 58.0958C61.0921 58.5628 61.0692 59.1014 61.052 59.6767C61.0265 60.5121 60.9907 61.1199 60.9615 61.6024C60.9347 61.996 60.8882 62.3 60.8425 62.5751C60.8123 62.7545 60.7798 62.9246 60.7455 63.0927C60.6384 63.6196 60.4698 64.2629 60.2767 64.8955C60.0441 65.6607 59.7775 66.4122 59.5693 66.9885C58.9596 68.4454 58.2618 69.8595 57.506 71.235C57.1174 71.9422 56.6662 72.5764 56.2636 72.9984C55.8601 73.4218 55.5434 73.5988 55.3853 73.5047C55.2275 73.4085 55.2385 73.049 55.4005 72.498C55.562 71.948 55.8576 71.2525 56.2094 70.5522C56.9181 69.1425 57.5619 67.7014 58.1183 66.2352C58.7056 64.661 59.2611 62.9987 59.4339 61.4598C59.4535 61.2446 59.4726 61.029 59.4908 60.8141C59.6046 59.4719 59.6838 58.1354 59.6695 56.8115C59.668 56.6754 59.6655 56.539 59.6619 56.4033C59.5834 55.2946 59.4114 54.216 59.2453 53.4788C59.2217 53.3713 59.1988 53.2684 59.1769 53.1713C59.0678 52.6842 59.0041 52.3035 58.945 51.9705C58.895 51.6893 58.8507 51.4474 58.789 51.204C58.7551 51.0703 58.7088 50.8958 58.6499 50.6813C58.4136 49.808 57.961 48.3444 57.495 47.0351C57.2907 46.4521 57.0462 45.7762 56.7858 45.1404C56.4149 44.2281 56.0102 43.4063 55.7609 43.0142C55.3281 42.3275 54.8369 41.5377 54.3646 40.863C54.207 40.6371 54.0565 40.4289 53.9095 40.2346C53.631 39.8663 53.3899 39.5616 53.2124 39.3707C52.8872 39.0213 52.6455 38.6958 52.2812 38.2157C52.235 38.1548 52.1867 38.0915 52.136 38.0253C51.909 37.7293 51.6353 37.3785 51.2701 36.9425C50.7545 36.3278 50.3946 35.8891 50.0852 35.5192C49.6488 35 49.3137 34.6131 48.746 34.1089C48.1152 33.5494 47.4486 32.9823 46.9321 32.5283C46.6976 32.3214 46.4186 32.0957 46.1236 31.8695C45.7329 31.5694 45.3129 31.2688 44.9309 30.9927C44.6158 30.7647 44.3629 30.5647 44.1349 30.3912C44.0637 30.3371 43.995 30.2857 43.9278 30.2372C43.659 30.0819 43.3866 29.9339 43.1103 29.7938C43.0631 29.7761 43.0132 29.758 42.9611 29.7393C42.6995 29.6457 42.3773 29.5366 41.986 29.3925C41.4874 29.2096 41.0427 29.0391 40.5854 28.8788C40.4737 28.8398 40.3603 28.8004 40.2442 28.7607C39.7867 28.6043 39.3007 28.4475 38.7405 28.3072C38.3581 28.2113 37.9171 28.1174 37.4785 28.0317C36.827 27.9039 36.1838 27.7962 35.7393 27.6999C35.5736 27.6639 35.4318 27.6155 35.2937 27.5685C35.2931 27.5683 35.2925 27.568 35.2919 27.5678C35.2825 27.5646 35.273 27.5614 35.2636 27.5583C34.1704 27.3847 33.0698 27.2552 31.9685 27.1748C31.8727 27.1719 31.7755 27.1692 31.6799 27.1668C31.2116 27.1551 30.7568 27.1544 30.46 27.1779C30.1386 27.2025 29.3346 27.1934 28.4919 27.2294C27.9403 27.2518 27.3714 27.2927 26.911 27.3469C26.6412 27.3784 26.3845 27.3763 26.1187 27.3784C25.8711 27.3803 25.6169 27.3857 25.3431 27.4271C25.2061 27.4478 25.0597 27.4778 24.9033 27.5117C24.7658 27.5415 24.6214 27.5742 24.4698 27.606C24.3283 27.6358 24.0118 27.6779 23.6066 27.7484C23.3574 27.7916 23.0733 27.8463 22.7798 27.9133C22.5878 27.9671 22.3972 28.0239 22.2085 28.0835C21.6164 28.2701 21.0279 28.4589 20.4429 28.654C20.2831 28.7258 20.1532 28.7951 20.0507 28.8638C19.9779 28.9128 19.9175 28.9629 19.8571 29.0139C19.7751 29.0832 19.6902 29.155 19.5651 29.2316C19.4669 29.2917 19.3465 29.3431 19.26 29.361C19.2196 29.3694 19.1868 29.3705 19.157 29.3716C19.1228 29.3729 19.0923 29.3741 19.0585 29.3859C19.0342 29.3945 19.011 29.4098 18.9825 29.4286C18.9367 29.4586 18.8783 29.4971 18.7808 29.5318C18.4166 29.6614 18.0013 29.8056 17.5999 29.952C17.1517 30.1153 16.719 30.2825 16.3798 30.43C16.0008 30.5943 15.4508 30.8055 14.9103 31.0353C14.5329 31.1953 14.1593 31.3644 13.8472 31.5225C13.5405 31.6775 13.2363 31.8643 12.9484 32.0514C12.6019 32.2761 12.2787 32.5019 11.9906 32.6696C11.9319 32.7038 11.8468 32.7279 11.7403 32.7595C11.6649 32.7819 11.5784 32.8083 11.4838 32.8442C11.137 33.0946 10.803 33.3549 10.4816 33.6292C10.4728 33.6418 10.4637 33.6547 10.4548 33.6677C10.4546 33.668 10.4545 33.6682 10.4544 33.6684C10.252 33.964 9.99052 34.3616 9.50626 34.7907C9.38311 34.9007 9.29094 34.9569 9.20711 35.0092C9.12518 35.0605 9.052 35.1073 8.97333 35.1983C8.88414 35.3017 8.8013 35.4423 8.71766 35.5961C8.59951 35.8128 8.47992 36.0559 8.31978 36.2758C8.30883 36.2909 8.29706 36.3071 8.28495 36.324C8.25459 36.3665 8.22079 36.4147 8.18435 36.4671C8.07222 36.6329 7.93515 36.8288 7.78676 37.0119C7.32972 37.8432 6.88049 38.686 6.45173 39.5308C5.73879 40.9394 5.06645 42.3651 4.52006 43.8287C4.25572 44.5372 3.98086 45.2049 3.7488 45.6891C3.51256 46.1759 3.34206 46.4536 3.1613 46.4583C2.9797 46.4674 2.80105 46.1031 2.78326 45.5C2.7605 44.9015 2.89188 44.1191 3.13349 43.3546C3.52849 42.1054 4.00358 40.9004 4.51337 39.7169C4.53824 39.6537 4.56433 39.5885 4.58962 39.5258C4.77509 39.0655 4.93548 38.6134 5.09185 38.1792C5.12835 38.0783 5.167 37.9736 5.20425 37.8729ZM3.36707 46.0912C3.30453 46.7818 3.03563 48.0899 2.90896 48.8203C2.90659 48.8338 2.90423 48.8472 2.90187 48.8607C2.87119 49.0329 2.84606 49.1955 2.81705 49.3901C2.75039 49.8467 2.65564 50.4696 2.45934 51.7669C2.42044 52.1492 2.38365 52.5299 2.3485 52.9088C2.2648 53.8113 2.192 54.7165 2.12887 55.6229L2.13083 55.5662C2.09353 58.8228 2.00053 62.0652 2.38778 65.2071C2.39573 65.2576 2.40389 65.3084 2.41238 65.3603C2.56982 66.3642 2.86393 67.5718 3.07742 68.3142C3.27035 69.0089 3.45757 69.5247 3.62821 69.9474C3.6958 70.1124 3.75599 70.2602 3.81508 70.4041C4.89159 72.756 5.97728 75.1263 7.89408 76.6766C8.4392 77.1246 8.98535 77.5699 9.53485 78.0093C10.3446 78.6568 11.1621 79.2919 11.9942 79.9021C12.7602 80.4638 13.5387 81.0058 14.3342 81.5148C14.8061 81.7979 15.262 82.0519 15.6883 82.2764C16.2876 82.5922 16.8286 82.8492 17.2741 83.0585C17.9725 83.3881 18.7379 83.722 19.4505 83.9723C19.847 84.112 20.2248 84.243 20.5622 84.3568C20.7204 84.4102 20.8699 84.4599 21.0084 84.5052C21.7877 84.729 22.571 84.9358 23.3572 85.1217C23.4076 85.1419 23.4586 85.1625 23.5103 85.1834C24.1566 85.4415 24.9843 85.6432 26.2958 85.8754C26.8673 85.9748 27.5306 86.0778 28.3137 86.1716C28.8177 86.231 29.0743 86.2879 29.2853 86.3352C29.3473 86.3489 29.4053 86.3615 29.4642 86.3724C29.6671 86.4095 29.8829 86.396 30.1383 86.3757C30.4684 86.3488 30.862 86.3117 31.3807 86.3447C32.1776 86.3939 32.7609 86.3511 33.2049 86.2852C33.2074 86.2849 33.2149 86.2842 33.2174 86.2839C33.6957 86.2235 34.0191 86.1323 34.297 86.0524C34.4568 86.0064 34.5913 85.9648 34.7413 85.9276C35.2131 85.8109 35.8991 85.698 36.4229 85.6143C36.8414 85.5504 37.6417 85.2969 38.2335 85.0635C38.4594 84.9755 38.7684 84.8763 39.129 84.7527C39.5043 84.6241 39.9373 84.468 40.3853 84.2745C41.5232 83.7797 42.1054 83.4796 42.5781 83.2401C42.7112 83.1717 42.8354 83.107 42.9596 83.0412C43.3508 82.834 43.8323 82.5752 44.3149 82.2979C44.8884 81.9692 45.4637 81.6121 45.8844 81.3257C47.0238 80.6478 48.1216 79.9052 49.1663 79.0892C49.7027 78.6711 50.2444 78.3015 50.6932 78.0704C51.1393 77.8421 51.4604 77.7726 51.5899 77.9046C51.7189 78.0357 51.6452 78.3613 51.3719 78.8017C51.0963 79.2441 50.6375 79.7618 50.0928 80.2246C48.9956 81.1577 47.8328 82.013 46.6166 82.7853C45.1341 83.7265 43.5783 84.5424 41.9605 85.2259C40.8281 85.7038 39.6773 86.1182 38.496 86.4707C38.3741 86.507 38.2573 86.541 38.1328 86.5766C37.1521 86.9129 36.1605 87.1887 35.4392 87.344C34.8502 87.4718 34.4023 87.5166 34.0228 87.547C33.7816 87.566 33.5559 87.58 33.3441 87.6004L33.3649 87.5981C33.3485 87.6001 33.3321 87.6022 33.3157 87.6043C33.1905 87.6203 33.0172 87.6423 32.8106 87.6644C31.9635 87.7625 30.5188 87.8169 29.2252 87.6714C28.651 87.6107 27.9906 87.5028 27.3672 87.3797C26.4744 87.205 25.6587 87.0005 25.2395 86.9321C24.5033 86.8134 23.6752 86.6001 22.9517 86.3942C22.2608 86.1984 21.6629 86.0114 21.3122 85.9417C20.893 85.858 20.5491 85.7396 20.0412 85.5572C19.7682 85.4589 19.4476 85.3418 19.0438 85.1982C18.9237 85.1555 18.7963 85.1092 18.6609 85.0586C17.9696 84.7985 17.5056 84.5613 17.1159 84.3565C16.5692 84.0651 16.1687 83.8335 15.5458 83.5355C14.8538 83.2032 14.1573 82.8071 13.6394 82.452C13.403 82.2902 13.1297 82.1106 12.8488 81.921C12.4759 81.6696 12.0881 81.3995 11.7489 81.1341C11.469 80.9151 11.2542 80.7127 11.0655 80.5333C11.0066 80.4773 10.95 80.4234 10.8948 80.3718C10.6692 80.2039 10.444 80.0346 10.2196 79.8648C10.1799 79.8417 10.1379 79.8177 10.0943 79.7926C9.87519 79.6664 9.606 79.5102 9.29248 79.2914C8.79641 78.9451 8.39356 78.6006 7.97049 78.2364C7.72148 78.022 7.46548 77.8006 7.1795 77.5676C7.08202 77.4882 6.98343 77.4065 6.88174 77.3206C6.59798 77.0816 6.28197 76.7985 5.98792 76.499C5.54974 76.0554 5.16334 75.5757 4.93421 75.2216C4.84743 75.0879 4.79099 74.9634 4.73636 74.8394C4.73615 74.8388 4.73594 74.8383 4.73573 74.8377C4.73205 74.8293 4.72832 74.8209 4.72464 74.8125C4.15272 73.9667 3.66268 73.0852 3.19742 72.2019C3.15383 72.1277 3.10907 72.0505 3.06594 71.9759C2.85383 71.609 2.65228 71.2505 2.5037 71.0268C2.44193 70.9333 2.3573 70.7858 2.25475 70.5957C2.07993 70.2712 1.8755 69.8308 1.6919 69.3669C1.49714 68.8783 1.32516 68.3644 1.19107 67.9448C1.11226 67.6988 1.07697 67.4554 1.04566 67.2075C1.01617 66.9746 0.990176 66.7382 0.935637 66.4825C0.908592 66.3558 0.87391 66.2194 0.838132 66.0726C0.806795 65.9443 0.774713 65.8089 0.74626 65.6649C0.719985 65.532 0.686564 65.2304 0.654062 64.8472C0.633669 64.6086 0.613689 64.3396 0.593963 64.0577C0.503089 63.3157 0.436309 62.5731 0.385729 61.8318C0.357604 61.6785 0.32513 61.5459 0.286649 61.4407C0.259047 61.3652 0.227322 61.3011 0.195001 61.236C0.15102 61.147 0.105687 61.0547 0.0678348 60.9258C0.0382323 60.8246 0.0240173 60.7063 0.0323475 60.6257C0.0362305 60.5883 0.0448562 60.5593 0.0526632 60.533C0.0616072 60.5029 0.0695731 60.476 0.0684006 60.4434C0.0675391 60.42 0.0598986 60.3957 0.0506559 60.3658C0.0358944 60.3179 0.0168744 60.2567 0.0139309 60.1621C0.00292884 59.8097 0.00132297 59.4087 0.00225757 59.0188C0.00319122 58.583 0.0069847 58.16 0.00106166 57.8222C-0.00569059 57.4445 0.020874 56.9059 0.0493451 56.3689C0.0641072 56.0884 0.0792007 55.8108 0.0899505 55.5522C0.0903135 55.5408 0.0909299 55.5067 0.0919263 55.4953C0.100569 55.4064 0.108641 55.3203 0.115893 55.2378C0.14367 54.9223 0.152764 54.5884 0.162808 54.2698C0.175178 53.8825 0.18931 53.5133 0.239297 53.201C0.249427 53.1378 0.284093 53.0634 0.327997 52.9665C0.359076 52.8982 0.394718 52.82 0.429285 52.7308C0.466074 52.3341 0.507028 51.9351 0.552146 51.5352C0.549873 51.5207 0.547584 51.5059 0.545218 51.491C0.545153 51.4907 0.545087 51.4905 0.545021 51.4903C0.491683 51.1554 0.420632 50.6889 0.57261 50.0691C0.611482 49.9103 0.65855 49.8144 0.700945 49.7283C0.74251 49.6445 0.780136 49.567 0.801707 49.4511C0.82634 49.3185 0.829128 49.1642 0.834097 48.9883C0.840586 48.7446 0.849272 48.4729 0.920458 48.2099C0.925303 48.192 0.930563 48.1728 0.93596 48.1529C0.987525 47.9608 1.06426 47.6822 1.17561 47.4044C1.33808 46.5625 1.52445 45.7188 1.74276 44.8848C2.09552 43.5645 2.49376 42.2504 3.16117 40.9766C3.16353 40.9722 3.17029 40.9588 3.17281 40.9545C3.21309 40.8858 3.25333 40.8182 3.29522 40.7494C3.64755 40.1226 4.29877 39.5305 4.80766 39.3638C5.3159 39.1745 5.63713 39.2108 5.72825 39.3633C5.82052 39.5217 5.65751 39.8028 5.38035 40.1638C5.09247 40.5315 4.86402 40.9023 4.56708 41.4772C4.53406 41.5393 4.50151 41.602 4.4682 41.667L4.48208 41.6407C4.09055 42.4954 3.81355 43.4685 3.57958 44.4464C3.5685 44.5026 3.55732 44.5595 3.54666 44.6141C3.46461 45.0318 3.42541 45.421 3.39033 45.818C3.38256 45.9081 3.37492 45.9991 3.36707 46.0912Z" fill="#08004c"/>
<path id="Vector 26" d="M15.616 34.6756C16.1043 34.3242 17.1664 33.9027 17.7598 33.711C17.7704 33.7074 17.7811 33.7038 17.7918 33.7002C17.9305 33.6539 18.0625 33.6077 18.22 33.5544C18.5836 33.4341 19.0926 33.2576 20.1596 33.0326C20.4581 32.9524 20.7785 32.8734 21.0796 32.8055C21.226 32.7724 21.3744 32.7402 21.5247 32.709C24.7434 32.0481 28.0086 32.0197 31.2114 32.324C31.2541 32.3266 31.2974 32.3293 31.3408 32.3321C32.1831 32.3837 33.2279 32.4883 33.8809 32.616C34.4812 32.7323 34.9478 32.8417 35.3471 32.9572C35.3648 32.9607 35.4159 32.9767 35.4331 32.9821C35.5648 33.0385 35.6895 33.0941 35.8091 33.1489C38.32 34.2069 40.5745 35.6127 42.751 37.139C43.4311 37.6203 44.0986 38.1176 44.7535 38.6312C45.3565 39.1041 45.9497 39.5929 46.5286 40.097C46.8763 40.3788 47.2054 40.6502 47.5068 40.907C47.9305 41.2679 48.2996 41.6002 48.5913 41.8892C49.2956 42.5834 50.0115 43.4547 50.5076 44.1281C50.5891 44.2379 50.665 44.3421 50.7346 44.4386C51.1479 44.961 51.5399 45.4977 51.9093 46.0578C51.927 46.0994 51.9445 46.1414 51.962 46.1841C51.9696 46.2026 51.9774 46.2211 51.9853 46.2398C52.2365 46.8243 52.5002 47.4745 52.831 48.4701C52.9819 48.9311 53.1364 49.4465 53.2969 50.0766C53.3983 50.477 53.4126 50.6976 53.4232 50.8708C53.4264 50.9225 53.4294 50.9712 53.4341 51.0202C53.4504 51.1898 53.5151 51.3531 53.59 51.5469C53.688 51.8016 53.8029 52.1041 53.8469 52.5324C53.9816 53.8915 54.1539 54.4558 54.2944 54.8965C54.3347 55.0255 54.3703 55.1398 54.3982 55.2604C54.489 55.652 54.5303 56.2203 54.5341 56.6539C54.5382 56.9956 54.6431 57.6708 54.728 58.1846C54.7606 58.3788 54.7807 58.6436 54.7998 58.9556C54.8197 59.2793 54.8385 59.6524 54.8699 60.054C54.9474 61.0661 54.9551 61.6121 54.9615 62.0494C54.9629 62.1742 54.9634 62.2879 54.9632 62.4059C54.9628 62.7758 54.9474 63.2307 54.9156 63.6952C54.8785 64.2503 54.8154 64.8162 54.7603 65.2489C54.5622 66.2458 54.277 67.2423 53.8305 68.1966C53.8242 68.2123 53.8006 68.2567 53.7927 68.2717C53.7386 68.3606 53.6843 68.4509 53.6299 68.5419C53.3502 69.0112 53.0141 69.4417 52.6964 69.7136C52.3787 69.9865 52.1107 70.0813 51.9535 69.9855C51.796 69.889 51.7586 69.6113 51.835 69.2102C51.9124 68.8088 52.094 68.3153 52.3526 67.8237C52.4031 67.7282 52.454 67.6324 52.5057 67.5362L52.4739 67.5992C52.8216 66.7421 53.0361 65.8094 53.1764 64.861C53.3641 63.5781 53.4184 62.2658 53.4133 60.9468C53.4091 60.0244 53.3685 59.0978 53.3002 58.1719C53.2932 58.0765 53.2859 57.9811 53.2782 57.8858C53.164 57.1125 53.0286 56.3439 52.9387 55.8031C52.8646 55.3552 52.838 55.0264 52.8135 54.7427C52.7966 54.5483 52.7809 54.378 52.7489 54.2044C52.7319 54.1117 52.707 53.9858 52.6764 53.8354C52.5517 53.2155 52.32 52.1721 52.1311 51.2155C52.05 50.7983 51.9597 50.2961 51.864 49.8269C51.7278 49.1526 51.573 48.5368 51.45 48.2461C51.2657 47.8064 51.0715 47.2876 50.8716 46.9288C50.8309 46.8577 50.7902 46.7876 50.7498 46.7188C50.475 46.2509 50.2131 45.8532 50.0294 45.6527C49.8098 45.4137 49.6564 45.1845 49.4189 44.8491C49.2529 44.6157 49.0475 44.3331 48.7407 43.9673C48.3862 43.5458 48.1394 43.243 47.9265 42.9861C47.6269 42.6264 47.3948 42.3577 46.9882 42.0219C46.5363 41.6493 46.0665 41.2607 45.7155 40.9324C45.5554 40.7825 45.3658 40.6205 45.1651 40.4531C44.9002 40.2319 44.6183 40.0033 44.3701 39.7829C44.1666 39.6019 44.009 39.4333 43.8704 39.2861C43.8271 39.2401 43.7854 39.1961 43.7444 39.1543C43.5706 39.0218 43.3951 38.8905 43.2197 38.7619C43.188 38.7456 43.1546 38.7288 43.1194 38.7111C42.9421 38.6216 42.7254 38.5138 42.4734 38.3597C42.0724 38.1144 41.7448 37.8659 41.3979 37.6099C41.1234 37.408 40.841 37.2042 40.4953 36.9949C40.264 36.8549 39.9843 36.7006 39.7146 36.5569C39.3067 36.3386 38.9023 36.1336 38.6362 35.9715C38.5341 35.9093 38.4556 35.8409 38.3782 35.7736C38.3778 35.7733 38.3775 35.7729 38.3772 35.7726C38.3719 35.768 38.3666 35.7635 38.3614 35.7589C37.6786 35.4101 36.9844 35.0849 36.2833 34.7967C36.223 34.7764 36.1572 34.7539 36.0942 34.7328C35.7896 34.6309 35.4884 34.5394 35.2907 34.5049C35.2059 34.4893 35.0776 34.4552 34.9277 34.4147L35.0099 34.4384C34.7725 34.4037 34.4198 34.3541 34.0618 34.3133C33.6834 34.2697 33.2864 34.2335 32.9645 34.2174C32.773 34.2075 32.5971 34.1643 32.417 34.1212C32.2479 34.0808 32.0729 34.0404 31.8783 34.0283C31.7783 34.022 31.6762 34.0226 31.5631 34.0235C31.4639 34.0243 31.3564 34.0253 31.2491 34.0231C31.1483 34.0209 30.9225 33.9915 30.6338 33.9581C30.4529 33.9373 30.2536 33.9154 30.0381 33.8964C29.4711 33.8853 28.9067 33.8856 28.3421 33.8974C28.2232 33.9175 28.1216 33.9442 28.0415 33.9785C27.9839 34.0031 27.9349 34.0326 27.8846 34.0628C27.8163 34.1038 27.7443 34.1465 27.6479 34.1813C27.5725 34.2086 27.4829 34.2207 27.4222 34.2113C27.3939 34.2069 27.372 34.198 27.3521 34.1899C27.3294 34.1806 27.309 34.1724 27.2844 34.1733C27.2666 34.174 27.2483 34.1814 27.2258 34.1905C27.1894 34.205 27.144 34.2237 27.0728 34.2266C26.8075 34.2375 26.5065 34.2449 26.2101 34.2565C25.8829 34.2691 25.5614 34.2869 25.3078 34.3138C25.0226 34.3437 24.6154 34.3572 24.2076 34.3811C23.9228 34.3975 23.6381 34.4186 23.3958 34.4478C23.1583 34.4763 22.9145 34.5308 22.6804 34.5868C22.4205 34.6489 22.173 34.7128 21.9516 34.7434C21.9324 34.7461 21.9134 34.7486 21.8947 34.7507C21.8462 34.7563 21.7815 34.7415 21.7006 34.7233C21.6432 34.7104 21.5774 34.6959 21.5042 34.6856C21.2165 34.7505 20.9102 34.8238 20.6255 34.8963C20.616 34.9028 20.6062 34.9093 20.5964 34.916C20.5962 34.9161 20.5961 34.9163 20.596 34.9164C20.3737 35.0675 20.0878 35.2711 19.6155 35.3414C19.4979 35.3587 19.4136 35.3499 19.3386 35.3418C19.265 35.3339 19.1992 35.327 19.1144 35.3494C19.0175 35.375 18.9162 35.4291 18.7988 35.4918C18.6347 35.5795 18.4673 35.6744 18.2634 35.7209C18.2498 35.724 18.2352 35.7273 18.22 35.7308C18.0755 35.764 17.8677 35.813 17.6423 35.84C17.0471 36.0715 16.4629 36.3292 15.8951 36.6171C14.9466 37.0979 14.0525 37.6594 13.2132 38.3241C12.8065 38.6438 12.3845 38.9324 12.0065 39.099C11.6325 39.2717 11.2867 39.2787 11.2232 39.099C11.1507 38.9347 11.1581 38.7347 11.3374 38.3776C11.5116 38.0297 11.8445 37.5907 12.2617 37.2097C12.9415 36.586 13.6824 36.0134 14.4615 35.5096C14.5024 35.4806 14.5419 35.4528 14.5812 35.4255C14.8782 35.2203 15.1507 35.0122 15.4236 34.8131C15.4865 34.7672 15.5506 34.7213 15.616 34.6756ZM8.6525 47.4255C8.58461 47.9952 8.31422 49.063 8.19174 49.6623C8.18945 49.6733 8.18716 49.6843 8.18488 49.6952C8.15492 49.837 8.13047 49.972 8.10309 50.1303C8.03983 50.5082 7.94813 51.0182 7.77501 52.0911C7.74344 52.4055 7.71509 52.7187 7.68939 53.0355C7.56433 54.6188 7.50531 56.2282 7.6169 57.7599C7.76012 59.6497 7.84748 61.4814 8.09855 63.2905C8.10594 63.3331 8.11358 63.3766 8.12129 63.42C8.26761 64.264 8.50448 65.2924 8.64799 65.9367C8.82728 66.758 8.97688 67.3094 9.10599 67.7603C9.41035 68.6666 9.78123 69.5476 10.2279 70.3913C11.0601 71.9603 11.9475 73.4885 13.0256 74.8559C13.5499 75.5208 14.1193 76.1457 14.7397 76.7108C15.3109 77.2315 15.924 77.7016 16.5756 78.1124C16.9625 78.3378 17.3454 78.529 17.7043 78.6899C18.2098 78.9168 18.6714 79.0867 19.0548 79.2267C19.3478 79.3336 19.6564 79.4414 19.9706 79.5432C20.6457 79.7626 21.3302 79.9723 21.8837 80.1284C22.0164 80.1659 22.146 80.2016 22.2609 80.2325C22.9191 80.3788 23.5853 80.5064 24.2487 80.6131C24.2914 80.6281 24.3345 80.6435 24.3786 80.6591C24.9279 80.8519 25.6334 80.9697 26.7393 81.0831C27.2223 81.1315 27.7835 81.1774 28.4429 81.2138C28.8672 81.2366 29.0866 81.2777 29.2643 81.3118C29.3168 81.3217 29.3661 81.3308 29.4162 81.3382C29.5887 81.3633 29.7682 81.3379 29.9816 81.305C30.2581 81.2621 30.5868 81.2075 31.0246 81.2264C32.4254 81.2785 33.0272 81.0731 33.4698 80.934C33.5998 80.8916 33.7172 80.8521 33.8386 80.819C34.0231 80.7689 34.2452 80.7234 34.4752 80.6805C34.7441 80.6302 35.0129 80.5888 35.2514 80.5559C35.6026 80.509 36.2789 80.2987 36.778 80.1075C36.9687 80.0352 37.2279 79.959 37.5361 79.8629C37.853 79.7642 38.2183 79.6453 38.6003 79.4924C39.5631 79.1043 40.0601 78.8691 40.4589 78.6823C40.5731 78.6282 40.6784 78.5776 40.7825 78.5266C41.1165 78.3632 41.5234 78.162 41.9334 77.9443C42.4223 77.6855 42.9078 77.4051 43.2648 77.1757C44.2332 76.6489 45.1669 76.0628 46.0521 75.4075C46.507 75.0716 46.9714 74.7824 47.3622 74.6131C47.7519 74.4448 48.0409 74.4107 48.1684 74.5446C48.2965 74.6766 48.2519 74.9697 48.0304 75.3539C47.8087 75.7382 47.4214 76.1796 46.9539 76.5625C46.0135 77.334 45.0125 78.0303 43.9658 78.6485C42.6918 79.4011 41.3497 80.0384 39.9714 80.5609C39.0101 80.9255 38.0238 81.2423 37.0363 81.5126C36.9347 81.5404 36.8324 81.5679 36.7296 81.5951C36.0472 81.8211 35.3589 82.0226 34.8037 82.1648C34.6899 82.1939 34.5818 82.2201 34.4806 82.2433C33.9811 82.3574 33.6084 82.3926 33.2902 82.419C33.0717 82.4368 32.8777 82.4497 32.6837 82.4751C32.5795 82.4887 32.4377 82.5079 32.2653 82.5289C31.5642 82.6185 30.3663 82.7124 29.2768 82.6491C28.7946 82.6233 28.2358 82.5629 27.707 82.4901C26.9501 82.3872 26.2535 82.2585 25.8983 82.2292C25.2725 82.1788 24.5651 82.0471 23.9456 81.913C23.3543 81.7859 22.839 81.658 22.5409 81.6226C22.1823 81.5797 21.8863 81.4948 21.4519 81.3612C21.1463 81.2669 20.7789 81.1506 20.2745 80.9954C20.014 80.9149 19.7789 80.8348 19.5839 80.7635C19.3356 80.6734 19.1354 80.5904 18.946 80.5091C18.4676 80.3007 18.111 80.1306 17.563 79.9187C16.953 79.6818 16.3389 79.3656 15.894 79.0584C15.6911 78.9192 15.4571 78.7619 15.2203 78.591C14.9051 78.3641 14.5853 78.1126 14.3141 77.8571C14.0912 77.6472 13.9296 77.45 13.7901 77.274C13.7466 77.219 13.7053 77.1662 13.665 77.1154C13.4917 76.9472 13.3222 76.7756 13.1562 76.6007C13.1252 76.5762 13.0925 76.5506 13.0586 76.5236C12.8882 76.3885 12.6802 76.2185 12.4524 75.9813C12.0922 75.6055 11.827 75.2329 11.5607 74.8358C11.3537 74.5265 11.1455 74.2005 10.8956 73.8371C10.7248 73.5888 10.5272 73.3094 10.3356 73.0294C10.051 72.6141 9.78012 72.1974 9.61941 71.8934C9.55888 71.779 9.52354 71.6725 9.4886 71.5663C9.48847 71.5658 9.48835 71.5654 9.48823 71.5649C9.48586 71.5577 9.48345 71.5505 9.48108 71.5433C9.3708 71.3591 9.26239 71.1761 9.15386 70.9912C8.83234 70.4431 8.53927 69.8783 8.2741 69.3011C8.23958 69.2357 8.20487 69.1686 8.17111 69.1024C8.00604 68.7795 7.85594 68.4598 7.74156 68.256C7.61712 68.037 7.38632 67.4508 7.18038 66.8229C7.04426 66.4118 6.91689 65.9836 6.81129 65.6337C6.74954 65.4297 6.72796 65.2266 6.7084 65.0194C6.69014 64.8257 6.67326 64.6268 6.6272 64.4155C6.60405 64.3093 6.57329 64.196 6.54127 64.0755C6.51294 63.9685 6.48353 63.8554 6.45763 63.7368C6.43364 63.6268 6.40475 63.376 6.37341 63.0552C6.3541 62.8576 6.33358 62.6314 6.3121 62.3972C6.21632 61.7798 6.13508 61.1614 6.06268 60.5461C6.03011 60.4204 5.99329 60.3102 5.95139 60.2251C5.92133 60.1639 5.88749 60.1129 5.85293 60.0606C5.80584 59.9888 5.75715 59.9136 5.71447 59.8096C5.68114 59.7285 5.6621 59.6304 5.66701 59.5627C5.66932 59.5313 5.6767 59.5067 5.68337 59.4845C5.69101 59.459 5.69781 59.4363 5.69524 59.4096C5.69336 59.3904 5.68469 59.371 5.67416 59.3471C5.65739 59.3095 5.63552 59.2583 5.62815 59.1802C5.60091 58.892 5.57796 58.5593 5.55462 58.2414C5.54746 58.1443 5.54031 58.0491 5.53301 57.9569C5.51159 57.691 5.49571 57.4272 5.4802 57.2142C5.45555 56.8807 5.46542 56.4156 5.48869 55.9468C5.50461 55.6227 5.52613 55.3002 5.53991 55.02C5.55317 54.7516 5.54896 54.462 5.54749 54.1923C5.54595 53.8616 5.5488 53.5482 5.59046 53.2793C5.59893 53.2247 5.6316 53.1609 5.67291 53.0795C5.70218 53.022 5.73581 52.9557 5.76824 52.8798C5.79589 52.5388 5.82889 52.2014 5.86736 51.8638C5.86486 51.8515 5.86234 51.8388 5.85974 51.8261C5.85967 51.8258 5.8596 51.8256 5.85954 51.8254C5.80127 51.5382 5.72366 51.1407 5.87077 50.6153C5.90823 50.482 5.95465 50.4015 5.99649 50.3291C6.03763 50.258 6.07454 50.1946 6.09549 50.0971C6.11928 49.9862 6.12212 49.8513 6.12635 49.704C6.13223 49.4972 6.14098 49.2651 6.21239 49.0443C6.21726 49.0292 6.22256 49.013 6.228 48.9962C6.27956 48.8359 6.35766 48.5987 6.46928 48.372C6.63594 47.6625 6.83067 46.957 7.06126 46.2598C7.44707 45.1017 7.92419 43.9506 8.60018 42.8831C8.92785 42.3649 9.36693 41.9256 9.76612 41.6995C10.1644 41.4729 10.467 41.4645 10.5785 41.6043C10.6951 41.7445 10.6335 42.0121 10.4869 42.3692C10.3366 42.7284 10.1095 43.169 9.86054 43.6306C9.45166 44.3846 9.13704 45.2194 8.87863 46.0732C8.86729 46.1185 8.8559 46.164 8.84448 46.2095C8.75893 46.55 8.7153 46.8739 8.67755 47.2006C8.66903 47.2752 8.6608 47.3502 8.6525 47.4255Z" fill="#08004c"/>
<path id="Vector 27" d="M19.0641 20.5303C18.6438 19.9971 18.0126 18.865 17.6662 18.2435C17.6598 18.2322 17.6534 18.2208 17.647 18.2094C17.5648 18.0621 17.4842 17.924 17.3897 17.7626C17.1641 17.378 16.8612 16.8566 16.2624 15.7544C16.0725 15.4433 15.8827 15.1325 15.6933 14.8235C15.6815 14.8043 15.6699 14.7853 15.6582 14.7664C14.9275 13.5771 14.2036 12.4299 13.397 11.297C12.8357 10.4516 12.1469 9.62806 11.8249 8.29506C11.6698 7.55199 12.0129 6.96621 12.233 6.63747C12.474 6.28631 12.7072 6.02919 12.927 5.77444C13.5222 5.09138 14.1645 4.46228 14.8443 3.87821C14.8825 3.84342 14.9227 3.80712 14.9624 3.77155C15.3724 3.40412 15.8492 3.00845 16.3379 2.66359C16.7417 2.37894 17.1257 2.11444 17.4365 1.91677C18.1771 1.44384 18.7411 1.124 19.2003 0.878658C19.2818 0.833591 19.3611 0.794945 19.4385 0.760639C21.092 0.090622 22.503 0.189013 23.9396 0.0444692C25.2223 -0.0522768 26.4335 0.0895052 27.6272 0.186759C28.1378 0.232067 28.6476 0.280836 29.1569 0.330891C30.1401 0.427795 31.123 0.529463 32.1052 0.635099C32.7527 0.704948 33.4003 0.776913 34.0483 0.855539C34.3073 0.887045 34.5665 0.919884 34.8241 0.953888C35.3547 1.00768 35.8591 1.06219 36.3197 1.11053C36.8568 1.16738 37.3281 1.20886 37.7336 1.23221C37.8235 1.23773 37.9083 1.243 37.9884 1.24819C39.1179 1.32032 40.4341 1.42332 41.2641 1.31706C41.3987 1.29943 41.507 1.27816 41.6337 1.24631C41.6992 1.22821 41.7816 1.19951 41.9228 1.17724C42.2862 1.14236 42.4328 1.24306 42.5693 1.2988C42.7001 1.36296 42.7978 1.42699 42.8895 1.49063C43.0712 1.61861 43.2205 1.74552 43.3647 1.8736C43.6505 2.12936 43.9078 2.3894 44.1595 2.65194C44.1899 2.69533 44.2222 2.74156 44.2523 2.78588C44.4758 3.11267 44.7478 3.45631 45.0971 3.87962C45.3437 4.17902 45.6409 4.50953 46.0104 4.89017C46.3659 5.27798 46.789 5.59619 47.3131 6.30607C47.34 6.34712 47.3669 6.38855 47.3938 6.43032C47.664 6.85335 47.7617 7.08294 47.8465 7.26913C47.8713 7.32389 47.8945 7.37487 47.9196 7.42521C48.0057 7.5975 48.1397 7.74938 48.3005 7.91096C48.3933 8.00378 48.4949 8.09951 48.6025 8.19806C48.6605 8.2565 48.8102 8.36801 48.9266 8.62744C49.0433 8.89093 49.0142 9.18694 48.9494 9.3808C48.7687 9.8798 48.5552 10.1186 48.3835 10.3716C47.7808 11.176 47.4951 11.5987 47.2735 11.9633C47.189 12.0989 47.1112 12.2221 47.0256 12.3414C46.7469 12.7301 46.2852 13.2255 45.9214 13.5848C45.6723 13.8313 45.266 14.3435 44.9363 14.7966C44.8842 14.8682 44.8357 14.9361 44.7884 15.0031C44.657 15.19 44.4622 15.4294 44.2415 15.7133C44.0127 16.0076 43.7578 16.3489 43.519 16.7356C43.2321 17.2006 43.0257 17.5779 42.8534 17.8912C42.6654 18.2351 42.5231 18.5008 42.3973 18.7351C42.3286 18.8631 42.2646 18.9824 42.2007 19.1017C41.9987 19.4793 41.7413 19.9461 41.4752 20.4184C41.1572 20.9837 40.8258 21.5553 40.5747 21.9933C40.5385 22.0485 40.5023 22.1035 40.4657 22.1588C39.7805 23.1948 39.0621 24.1968 38.3406 25.1883C37.95 25.7245 37.5176 26.1968 37.1379 26.5012C36.7578 26.8059 36.462 26.9182 36.3106 26.8129C36.1598 26.7067 36.1642 26.3901 36.3208 25.9287C36.4772 25.4678 36.7734 24.9012 37.1373 24.352C37.8101 23.3365 38.4732 22.3195 39.1007 21.2911C39.1573 21.1984 39.2134 21.1058 39.2693 21.0131C40.0432 19.7343 40.763 18.4245 41.5441 17.1065C41.6018 17.0098 41.6594 16.9143 41.7183 16.8178C42.3165 15.8164 43.0511 14.8527 43.7889 13.9799C43.8111 13.9534 43.8335 13.9268 43.8561 13.8999C43.9092 13.8369 43.9644 13.7717 44.0178 13.7088C44.601 12.9422 45.1864 12.195 45.6011 11.675C45.9442 11.246 46.214 10.9548 46.4421 10.7033C46.5986 10.5307 46.7352 10.3774 46.858 10.2135C46.9229 10.1267 47.0123 10.004 47.1122 9.8598C47.1624 9.78717 47.2178 9.70533 47.2704 9.62361C47.383 9.44969 47.506 9.23949 47.5615 9.09106C47.5923 9.02282 47.5753 8.97361 47.5839 9.09311C47.5994 9.23359 47.7211 9.32611 47.5627 9.16192C47.2201 8.78607 46.9685 8.39561 46.7457 8.02882C46.5588 7.7189 46.3743 7.38151 46.1864 7.05691C46.1344 6.95586 46.0258 6.81226 45.9094 6.67156C45.3914 6.06733 44.839 5.4405 44.564 5.14983C44.4244 5.00649 44.284 4.85236 44.1456 4.69161C43.8038 4.2946 43.4563 3.87351 43.1317 3.50433C42.7056 3.01573 42.2993 2.61752 42.082 2.51528C42.0085 2.45973 41.8353 2.47319 42.1065 2.48042C42.1051 2.47817 41.9537 2.52073 41.8084 2.55172C41.6573 2.58403 41.4954 2.60753 41.3223 2.62335C40.9307 2.6587 40.4758 2.66128 39.8725 2.64572C39.1754 2.62521 38.6965 2.56498 38.2861 2.51412C38.0534 2.48435 37.8434 2.45566 37.6275 2.4305C37.3162 2.39417 37.0047 2.35965 36.6214 2.331C35.8999 2.27506 35.171 2.18986 34.5978 2.09809C34.3875 2.06379 34.1516 2.03267 33.9039 2.00266C33.8455 1.99558 33.7851 1.9884 33.724 1.9812C33.3107 1.93254 32.8725 1.88433 32.4759 1.82316C32.1483 1.77268 31.8799 1.70791 31.6422 1.65097C31.5677 1.63317 31.497 1.61627 31.4278 1.60072C31.1651 1.57383 30.9023 1.54775 30.6394 1.52264C30.5962 1.52414 30.5509 1.52605 30.5036 1.52799C30.266 1.53774 29.9743 1.55006 29.6157 1.53672C29.0484 1.51575 28.5555 1.45187 28.0351 1.38764C27.8737 1.36773 27.708 1.34772 27.5393 1.32944C27.2824 1.30172 27.0142 1.27685 26.7233 1.26061C26.3939 1.24234 26.0171 1.23341 25.6509 1.23376C25.1041 1.2324 24.5854 1.26274 24.2245 1.27864C24.1647 1.28094 24.1084 1.2801 24.0537 1.27763C23.98 1.27489 23.9106 1.26865 23.8411 1.26243C23.8405 1.26234 23.84 1.26226 23.8394 1.26217C23.831 1.26141 23.8225 1.2607 23.8141 1.25995C22.8863 1.36375 21.9575 1.45246 21.0994 1.63764C21.0263 1.6579 20.9529 1.67917 20.882 1.70104C20.5315 1.80681 20.2298 1.943 20.0848 2.06055C20.0538 2.08479 20.015 2.11357 19.9741 2.14637C19.7067 2.34222 19.2595 2.64597 18.8004 2.9833C18.4279 3.2559 18.042 3.54883 17.7309 3.79601C17.6017 3.89868 17.4667 3.98317 17.3275 4.06372C17.2754 4.09326 17.222 4.12326 17.1676 4.1545C16.9949 4.25327 16.8165 4.36124 16.6428 4.50794C16.5563 4.58101 16.4672 4.66644 16.3731 4.7589C16.2908 4.83982 16.204 4.92681 16.1117 5.01554C16.0261 5.0979 15.8193 5.26349 15.5615 5.48628C15.4024 5.62375 15.2239 5.78312 15.0423 5.95651C14.7642 6.25504 14.497 6.56237 14.2432 6.87798C14.0776 7.08377 13.9171 7.28328 13.7892 7.46674C13.7344 7.57622 13.7065 7.66914 13.7058 7.73877C13.7053 7.78867 13.7172 7.83013 13.7346 7.86418C13.7582 7.9095 13.793 7.94559 13.8285 7.9391C13.8567 7.93483 13.8688 7.89046 13.8538 7.86873C13.8493 7.86166 13.8426 7.85691 13.8358 7.85346C13.8342 7.85861 13.8325 7.8636 13.8309 7.86849C13.825 7.8866 13.8201 7.90359 13.8251 7.92163C13.8287 7.93467 13.8392 7.94692 13.8522 7.96159C13.8731 7.98533 13.9002 8.01571 13.9207 8.07209C13.9962 8.28253 14.1257 8.55634 14.2857 8.83436C14.4629 9.14365 14.6716 9.4576 14.8516 9.70563C14.9281 9.81095 15.0147 9.93696 15.1084 10.0773C15.2566 10.2991 15.4368 10.576 15.6073 10.8497C15.8006 11.1589 15.9877 11.4689 16.1525 11.7319C16.3132 11.9882 16.4977 12.2467 16.6726 12.4949C16.8837 12.7947 17.0835 13.0834 17.2211 13.3485C17.2483 13.4012 17.2656 13.4823 17.2837 13.5786C17.2935 13.6288 17.3047 13.6849 17.3194 13.7463C17.3245 13.7688 17.3302 13.7921 17.3364 13.816C17.5338 14.1379 17.7284 14.4611 17.9209 14.7847C17.931 14.7941 17.9414 14.8039 17.9519 14.8137C17.9521 14.8138 17.9523 14.814 17.9525 14.8141C18.1882 15.0326 18.5108 15.3331 18.752 15.8795C18.8138 16.0192 18.8324 16.1171 18.8499 16.2067C18.8672 16.2947 18.882 16.3723 18.9333 16.4697C18.9919 16.5806 19.0826 16.6969 19.182 16.8248C19.3214 17.0037 19.4771 17.204 19.5805 17.4358C19.5876 17.4516 19.5952 17.4687 19.6031 17.4864C19.6785 17.6543 19.79 17.9028 19.8739 18.1659C20.2675 18.8608 20.6589 19.5565 21.0513 20.2498C21.2806 20.6549 21.5122 21.0624 21.7429 21.4635C22.1713 22.2075 22.6062 22.9461 23.0558 23.6703C23.3927 24.2144 23.6717 24.7597 23.8299 25.2071C23.837 25.2266 23.8434 25.2455 23.8493 25.2638C23.9901 25.6844 23.9916 25.9716 23.8536 26.0755C23.7126 26.177 23.4383 26.0849 23.0819 25.8214C23.0664 25.8101 23.0503 25.7981 23.0338 25.7852C22.6517 25.4924 22.2151 25.0181 21.8354 24.4814C21.3285 23.7657 20.8407 23.0414 20.3628 22.3119C20.2573 22.1508 20.1503 21.9862 20.0452 21.8238C20.0131 21.7783 19.9809 21.7322 19.9487 21.6858C19.7126 21.3453 19.4711 21.0427 19.2301 20.7398C19.175 20.6705 19.1189 20.5996 19.0641 20.5303Z" fill="#08004c"/>
<path id="Vector 28" d="M29.2496 25.4336C29.1098 25.323 29.0275 25.0338 28.9813 24.8731C28.9804 24.8702 28.9796 24.8674 28.9787 24.8645C28.9681 24.8273 28.955 24.7929 28.9394 24.7521C28.9019 24.6546 28.8524 24.5256 28.79 24.2348C28.7553 24.1575 28.721 24.0791 28.6883 24.0014C28.5531 23.6808 28.4267 23.3558 28.3067 23.0285L28.3138 23.0446C28.1133 22.5252 27.9067 21.9665 27.7355 21.3923C27.7305 21.3811 27.7257 21.3702 27.7206 21.3588C27.623 21.1392 27.5076 20.8631 27.4744 20.6772C27.432 20.441 27.4154 20.2764 27.4043 20.1431C27.2689 19.5736 27.1492 19.0106 27.0206 18.4504C26.984 18.2902 26.9461 18.1284 26.9068 17.9657C26.8532 17.7435 26.7955 17.5158 26.7363 17.296C26.6809 17.0904 26.6241 16.8877 26.5649 16.6832C26.5153 16.5687 26.4641 16.4617 26.4164 16.3607C26.3502 16.2221 26.2903 16.0939 26.2545 15.9889C26.1668 15.7301 26.123 15.4275 26.09 15.1996C26.0846 15.162 26.0797 15.1277 26.0749 15.0955C26.0193 14.9234 25.963 14.7512 25.9065 14.5784C25.9106 14.5649 25.9149 14.5512 25.9194 14.5373C25.9755 14.3653 25.9283 14.181 25.855 13.8919C25.823 13.7656 25.7863 13.6205 25.7507 13.4463C25.7279 13.3348 25.7509 13.2686 25.7697 13.2145C25.7752 13.1986 25.7804 13.1837 25.7839 13.169C25.7959 13.1184 25.7596 13.0781 25.7168 13.0299C25.6612 12.9675 25.5942 12.892 25.6077 12.7676C25.6509 12.3727 25.5229 12.2344 25.4258 12.1292C25.3973 12.0982 25.3716 12.0704 25.3537 12.04C25.2957 11.9415 25.2905 11.7803 25.3067 11.6551C25.3197 11.556 25.2407 11.3801 25.1637 11.2531C25.1345 11.2048 25.1171 11.1341 25.0966 11.0505C25.0753 10.9638 25.0511 10.8648 25.0068 10.7621C24.8948 10.5029 24.8377 10.3653 24.7918 10.2539C24.7787 10.2224 24.7666 10.1929 24.7544 10.1635C24.7157 10.0708 24.6739 9.95298 24.632 9.83498C24.5818 9.69363 24.5305 9.54886 24.4828 9.44208C24.4356 9.14558 24.3937 8.84747 24.352 8.55024C24.3306 8.39713 24.377 8.23471 24.4845 8.0974C24.5921 7.96008 24.7511 7.8594 24.9305 7.8167C25.1099 7.774 25.2972 7.7923 25.4551 7.86639C25.6129 7.94054 25.7276 8.06455 25.7775 8.21077C25.8776 8.50463 25.978 8.79941 26.0724 9.09479C26.1877 9.45529 26.294 9.81615 26.382 10.1833C26.4435 10.4395 26.5008 10.697 26.5547 10.9548C26.5603 10.9813 26.5657 11.0078 26.5712 11.0343C26.6674 11.2398 26.7592 11.4439 26.8102 11.5921C26.8521 11.7136 26.8507 11.8107 26.8495 11.8936C26.8487 11.9507 26.8479 12.001 26.8615 12.0484C26.8688 12.0738 26.88 12.1081 26.8936 12.1501C26.9493 12.3209 27.0436 12.6095 27.0664 12.8884C27.0766 13.0129 27.0725 13.1589 27.0694 13.3009C27.0644 13.502 27.0603 13.6907 27.097 13.7756C27.1613 13.9245 27.1841 14.1095 27.2042 14.2724C27.2236 14.4285 27.2402 14.5627 27.2891 14.6312C27.3474 14.7124 27.3516 14.7904 27.3591 14.9105C27.3643 14.9937 27.3702 15.0933 27.3964 15.2271C27.4268 15.3817 27.4288 15.4932 27.4313 15.5909C27.4344 15.7268 27.4367 15.8285 27.5153 15.9618C27.6019 16.1073 27.6751 16.2682 27.695 16.4024C27.7043 16.4643 27.7239 16.5321 27.7442 16.6018C27.7713 16.6952 27.8002 16.7944 27.8076 16.8875C27.8141 16.9657 27.7963 17.037 27.7802 17.0991C27.7753 17.1186 27.7705 17.1371 27.7667 17.1549C27.7829 17.2127 27.8002 17.2737 27.8172 17.332C27.8254 17.34 27.8343 17.3484 27.8435 17.357C27.8896 17.4002 27.9465 17.4545 27.9882 17.5294C28.0536 17.6457 28.066 17.7645 28.078 17.8849C28.0863 17.9652 28.0952 18.0488 28.1191 18.1342C28.1239 18.1514 28.1293 18.1688 28.1354 18.1862C28.1611 18.2601 28.1986 18.3365 28.2375 18.4174C28.2942 18.5335 28.3514 18.6505 28.3634 18.7366C28.3682 18.7695 28.3551 18.8039 28.3419 18.8372C28.3418 18.8374 28.3417 18.8376 28.3416 18.8377C28.3408 18.84 28.3399 18.8422 28.339 18.8445C28.4179 19.044 28.4998 19.2412 28.585 19.438C28.5961 19.4535 28.6072 19.4692 28.6185 19.4854C28.673 19.5635 28.7255 19.6366 28.7798 19.679C28.8379 19.723 28.9106 19.8627 28.9883 20.0061C29.0395 20.1014 29.0928 20.198 29.1448 20.2728C29.1756 20.3178 29.1707 20.3707 29.1666 20.4271C29.1628 20.48 29.1583 20.532 29.1832 20.5806C29.1955 20.6045 29.2149 20.6277 29.2355 20.6521C29.2539 20.6743 29.2733 20.6974 29.2898 20.7228C29.3048 20.7459 29.3164 20.8089 29.3313 20.8878C29.3409 20.9375 29.3514 20.9924 29.3657 21.0506C29.4388 21.188 29.513 21.3251 29.588 21.4633C29.6198 21.4849 29.6554 21.5003 29.6955 21.5071C29.7242 21.512 29.7563 21.5128 29.7892 21.5136C29.8338 21.5146 29.8801 21.5159 29.9216 21.5273C29.9541 21.5363 29.9739 21.5551 29.971 21.575C29.9697 21.5844 29.9635 21.5938 29.958 21.6024C29.9516 21.6122 29.946 21.621 29.949 21.6272C29.9513 21.6317 29.9597 21.6336 29.9701 21.6359C29.9865 21.6397 30.0078 21.6447 30.0167 21.663C30.0498 21.7308 30.0803 21.8119 30.1104 21.8921C30.1439 21.9812 30.1772 22.0696 30.2124 22.1357C30.2207 22.1512 30.2283 22.1686 30.2355 22.1878C30.2367 22.1915 30.2421 22.2019 30.2432 22.2056C30.2691 22.2785 30.2866 22.3721 30.3041 22.4658C30.3202 22.5497 30.3356 22.6319 30.3563 22.6995C30.3771 22.7671 30.4184 22.828 30.4581 22.8861C30.5065 22.9576 30.553 23.026 30.5583 23.097C30.5595 23.1115 30.5405 23.1387 30.5167 23.1724C30.4998 23.1963 30.4806 23.2237 30.4642 23.2524C30.4979 23.3323 30.5311 23.414 30.5629 23.495C30.5676 23.4964 30.5724 23.4978 30.5773 23.4991C30.5774 23.4991 30.5775 23.4992 30.5776 23.4992C30.6868 23.529 30.8383 23.5746 30.8244 23.7294C30.821 23.7692 30.7981 23.8027 30.7774 23.8329C30.7571 23.8625 30.7389 23.8889 30.7434 23.9143C30.7485 23.9431 30.7793 23.9687 30.8123 23.9953C30.8587 24.033 30.91 24.0735 30.906 24.1402C30.9057 24.1447 30.9053 24.1496 30.905 24.1546C30.9023 24.2024 30.8973 24.2708 30.8645 24.3541C30.9206 24.5318 30.9743 24.7115 31.0262 24.8921C31.1128 25.1936 31.1929 25.4936 31.2739 25.7993C31.313 25.948 31.2885 26.1138 31.2027 26.2657C31.1158 26.4149 30.9773 26.5441 30.8042 26.5986C30.6348 26.6612 30.4539 26.6766 30.2887 26.6299C30.1237 26.5829 29.992 26.484 29.9169 26.3525C29.7954 26.1393 29.6728 25.9261 29.5515 25.7101C29.543 25.6994 29.535 25.6896 29.527 25.6791C29.4671 25.6007 29.3866 25.5396 29.3049 25.4759C29.2865 25.462 29.2679 25.448 29.2496 25.4336Z" fill="#08004c"/>
<path id="Vector 29" d="M30.9643 24.446C30.9158 24.2765 31.0206 23.9985 31.0794 23.8441C31.0804 23.8413 31.0814 23.8386 31.0824 23.8359C31.096 23.8006 31.1059 23.7659 31.1176 23.7246C31.1461 23.6239 31.1826 23.4957 31.3077 23.2305C31.3259 23.151 31.3455 23.0708 31.3668 22.9882C31.3671 22.9873 31.3673 22.9863 31.3676 22.9854C31.6012 22.0899 31.9351 21.2512 32.2889 20.4222C32.2919 20.4113 32.295 20.4001 32.2981 20.3889C32.3582 20.1707 32.4334 19.9027 32.5181 19.7455C32.6254 19.5465 32.7085 19.414 32.7779 19.3068C33.0676 18.6534 33.355 18.002 33.6121 17.3402C33.6927 17.1329 33.7701 16.9249 33.844 16.7147C33.9118 16.5221 33.9774 16.3285 34.0414 16.1331C34.0634 16.0149 34.0806 15.9001 34.0965 15.7942C34.1183 15.6468 34.1393 15.5118 34.1677 15.4081C34.2378 15.1535 34.3689 14.887 34.4676 14.6871C34.4836 14.6547 34.4985 14.6247 34.5126 14.5956C34.5346 14.5207 34.5561 14.4466 34.5773 14.3733C34.6055 14.2765 34.6325 14.1833 34.6604 14.0878C34.6713 14.0792 34.6825 14.0706 34.694 14.062C34.8369 13.9546 34.8999 13.7831 35.0033 13.5099C35.0484 13.3908 35.1008 13.2537 35.1706 13.0957C35.2157 12.9937 35.2727 12.9538 35.3186 12.9227C35.3322 12.9134 35.3447 12.9051 35.3561 12.8953C35.395 12.8619 35.3889 12.8084 35.3816 12.7458C35.3717 12.6656 35.3617 12.5649 35.4442 12.4759C35.7089 12.1882 35.6866 12.0076 35.671 11.8664C35.6662 11.8257 35.6619 11.7889 35.6659 11.7537C35.6781 11.6411 35.7691 11.5144 35.8579 11.4249C35.9275 11.3556 35.9703 11.1723 35.987 11.0262C35.993 10.9716 36.0229 10.9048 36.0572 10.8293C36.0938 10.7486 36.1353 10.6581 36.1639 10.5518C36.235 10.2858 36.277 10.1443 36.3092 10.0329C36.3184 10.0012 36.327 9.97181 36.3356 9.94202C36.3589 9.86024 36.3914 9.76427 36.4236 9.66755C36.4282 9.65385 36.4327 9.6403 36.4372 9.62692C36.4805 9.49569 36.522 9.36296 36.5408 9.26306C36.6518 9.05146 36.7357 8.89689 36.7653 8.79249C36.7709 8.76799 36.7761 8.74511 36.7807 8.72312C36.8017 8.62838 36.8799 8.53508 37.007 8.43133C37.1342 8.3303 37.3018 8.24771 37.4847 8.22299C37.6673 8.19858 37.8526 8.23146 38.0001 8.33587C38.1472 8.43766 38.2415 8.62159 38.2432 8.81536C38.2438 8.85768 38.2435 8.89914 38.2428 8.93926C38.2311 9.34221 38.1131 9.66138 38.0255 9.92871C37.976 10.0715 37.9244 10.2079 37.8697 10.3431C37.7817 10.5605 37.6909 10.7656 37.5957 10.967C37.4877 11.1952 37.3788 11.4191 37.2683 11.6443C37.2567 11.6681 37.2456 11.6905 37.2342 11.7135C37.1894 11.9238 37.1433 12.1318 37.0981 12.2736C37.061 12.3902 37.0042 12.4616 36.9549 12.5247C36.9213 12.5673 36.8919 12.6045 36.8754 12.6491C36.8664 12.6733 36.8557 12.7059 36.843 12.7452C36.7899 12.9078 36.702 13.183 36.5631 13.4116C36.5017 13.5121 36.4157 13.6242 36.3333 13.7331C36.2166 13.8861 36.1082 14.031 36.0906 14.1195C36.0607 14.2721 35.9772 14.4294 35.9033 14.5703C35.8544 14.6632 35.81 14.7481 35.7884 14.8199C35.7795 14.8496 35.7747 14.8767 35.7757 14.9007C35.7796 14.9963 35.7385 15.0648 35.6794 15.1619C35.6382 15.2299 35.587 15.3154 35.5355 15.4348C35.4753 15.5749 35.4152 15.6654 35.3635 15.744C35.2906 15.8553 35.237 15.9358 35.228 16.0868C35.2192 16.2517 35.191 16.42 35.1332 16.5381C35.1068 16.592 35.0852 16.6578 35.0632 16.7249C35.0341 16.814 35.003 16.909 34.957 16.9883C34.9191 17.0537 34.8649 17.1 34.8169 17.1411C34.8019 17.1539 34.7876 17.1662 34.7745 17.1785C34.7553 17.2347 34.7363 17.2907 34.7177 17.3472C34.72 17.3582 34.7226 17.3698 34.7254 17.382C34.7391 17.4429 34.7558 17.5179 34.7485 17.6004C34.7367 17.7312 34.6811 17.8306 34.6225 17.935C34.5768 18.0164 34.5292 18.1013 34.4995 18.2069C34.4792 18.2789 34.4654 18.3643 34.4518 18.4487C34.4316 18.5742 34.4119 18.698 34.3715 18.7751C34.3564 18.804 34.3262 18.823 34.2962 18.8417C34.296 18.8418 34.2959 18.8419 34.2957 18.8419C34.2937 18.8432 34.2917 18.8445 34.2896 18.8458C34.2387 19.0494 34.1899 19.2537 34.1425 19.4585C34.1423 19.4775 34.1419 19.4967 34.1415 19.5156C34.1396 19.608 34.1375 19.6988 34.1558 19.7638C34.1757 19.8342 34.1502 19.9872 34.1241 20.1476C34.1071 20.2524 34.0891 20.3622 34.0835 20.4532C34.0803 20.5062 34.0429 20.5465 34.0045 20.5874C33.9688 20.6257 33.9321 20.6649 33.9213 20.7169C33.9159 20.743 33.9164 20.7731 33.9167 20.8057C33.917 20.8342 33.9174 20.8644 33.9139 20.8947C33.9107 20.9228 33.8799 20.9777 33.8408 21.0478C33.8164 21.0918 33.7889 21.1417 33.7626 21.1944C33.7305 21.3444 33.6974 21.497 33.6644 21.6477C33.6743 21.6845 33.6913 21.7189 33.7172 21.7499C33.7358 21.7721 33.7596 21.7934 33.784 21.8152C33.8171 21.8449 33.8514 21.8755 33.8755 21.9105C33.8944 21.9376 33.8969 21.9649 33.8818 21.9775C33.8747 21.9835 33.8639 21.9864 33.8541 21.9891C33.8429 21.9921 33.833 21.9949 33.8313 22.0014C33.83 22.0061 33.8352 22.0129 33.8415 22.0213C33.8515 22.0347 33.8644 22.052 33.8594 22.0708C33.8407 22.1406 33.8117 22.2178 33.7832 22.294C33.7518 22.378 33.7215 22.4599 33.7068 22.5288C33.6906 22.605 33.6347 22.7048 33.5795 22.8044C33.5415 22.8722 33.5026 22.9444 33.478 23.0057C33.4539 23.0653 33.4494 23.1354 33.4458 23.202C33.4416 23.2811 33.4378 23.3584 33.3997 23.4141C33.392 23.4254 33.3608 23.4336 33.3219 23.4439C33.2957 23.4508 33.2659 23.4587 33.2374 23.469C33.2359 23.4696 33.2344 23.4702 33.2329 23.4708C33.2113 23.5542 33.1896 23.6339 33.167 23.7134C33.1699 23.7173 33.1729 23.7212 33.176 23.7252C33.176 23.7253 33.1761 23.7254 33.1762 23.7254C33.2448 23.8171 33.3411 23.9324 33.2373 24.0459C33.2111 24.074 33.1729 24.0858 33.1385 24.0965C33.1047 24.107 33.0745 24.116 33.0631 24.138C33.0499 24.1641 33.0598 24.201 33.0706 24.2405C33.0858 24.2963 33.1036 24.3556 33.061 24.4049C33.0581 24.4082 33.0549 24.4117 33.0517 24.4153C33.0213 24.4508 32.9777 24.4981 32.9023 24.5435C32.844 24.7102 32.7824 24.8812 32.721 25.0476C32.619 25.3239 32.5128 25.605 32.4147 25.8782C32.3665 26.0124 32.2587 26.1232 32.1092 26.1941C31.9593 26.2661 31.7821 26.2812 31.6015 26.283C31.4199 26.2674 31.2539 26.1666 31.1386 26.0326C31.0234 25.8962 30.9682 25.7345 30.9799 25.5805C30.9988 25.3319 31.0219 25.0847 31.0475 24.8443C31.0467 24.8312 31.0461 24.818 31.0457 24.8048C31.0429 24.7056 31.0136 24.6085 30.9841 24.5131C30.9773 24.491 30.9706 24.4686 30.9643 24.446Z" fill="#08004c"/>
<path id="Vector 30" d="M16.293 7.53089C16.5659 7.43182 17.1034 7.44338 17.3981 7.45002C17.4035 7.45011 17.4089 7.45019 17.4144 7.45027C17.4846 7.45182 17.5524 7.45007 17.6284 7.44808C17.813 7.44322 18.0635 7.43652 18.5864 7.46994C18.7358 7.46166 18.891 7.45413 19.0404 7.44801C20.6775 7.38096 22.3182 7.39342 23.9592 7.43201C23.9799 7.43096 24.0009 7.42989 24.0222 7.42881C24.4327 7.40792 24.9429 7.38324 25.2636 7.40697C25.6721 7.43706 25.9495 7.46822 26.1773 7.49549C26.8309 7.5162 27.4845 7.53746 28.1378 7.55627C28.7878 7.57497 29.4376 7.59137 30.0869 7.60169C30.4947 7.60818 30.9032 7.61221 31.3113 7.61299C31.686 7.6137 32.0635 7.61265 32.4385 7.61013C32.658 7.59281 32.866 7.57219 33.0591 7.55333C33.3307 7.52683 33.5718 7.5038 33.7721 7.49798C34.253 7.48384 34.7978 7.5252 35.202 7.55717C35.2682 7.56238 35.3303 7.56734 35.3876 7.57172C35.7111 7.56656 36.0295 7.56117 36.3535 7.55639C36.3747 7.56414 36.396 7.57219 36.4176 7.58045C36.6908 7.68366 37.0264 7.69122 37.5579 7.70605C37.7864 7.71246 38.0583 7.72057 38.3716 7.73881C38.5759 7.75067 38.6776 7.79273 38.7623 7.82709C38.787 7.83719 38.8101 7.84664 38.8334 7.85446C38.9121 7.88121 39.0027 7.85919 39.104 7.83307C39.2375 7.79928 39.3972 7.75878 39.6053 7.81054C39.6272 7.81606 39.6487 7.82132 39.6697 7.82631C40.2866 7.97074 40.5706 7.8985 40.7892 7.8431C40.8569 7.82642 40.9168 7.81136 40.9769 7.80456C41.1764 7.78275 41.4543 7.83287 41.6631 7.89235C41.8287 7.93926 42.1679 7.92811 42.4277 7.90445C42.5242 7.89527 42.6574 7.90612 42.8111 7.91974C42.97 7.93379 43.1554 7.9514 43.3534 7.95252C43.5856 7.95386 43.7639 7.95573 43.9066 7.95559L43.8872 7.95399C44.0642 7.9504 44.1941 7.94931 44.3118 7.94913C44.3745 7.94906 44.4308 7.94913 44.49 7.94945C44.673 7.95006 44.9012 7.95994 45.1339 7.97517C45.4111 7.99291 45.697 8.01956 45.9195 8.03743C46.4314 8.1474 46.9768 8.3171 47.4513 8.51469L47.2824 8.47585C47.3084 8.48116 47.341 8.48646 47.3757 8.49149C47.6129 8.52434 47.8922 8.62003 48.079 8.77142C48.269 8.92237 48.3623 9.11109 48.3443 9.29448C48.3261 9.47814 48.2025 9.64415 48.0055 9.76641C47.8059 9.88751 47.5578 9.95999 47.2559 9.95196C47.2094 9.95033 47.1612 9.94813 47.1082 9.94407C47.079 9.93869 46.994 9.92301 46.9665 9.91149C46.4967 9.77322 46.0615 9.6902 45.5829 9.63007C44.9982 9.55663 44.3936 9.51645 43.7815 9.47573C43.7773 9.47517 43.7645 9.47465 43.7603 9.47398C43.7175 9.47 43.6748 9.46583 43.6322 9.46154C43.1578 9.4122 42.7089 9.36128 42.2486 9.31673C42.2027 9.3122 42.1526 9.30733 42.107 9.30289C41.7175 9.31803 41.3273 9.33432 41.0527 9.33267C40.8253 9.33126 40.6646 9.29821 40.5227 9.26986C40.4272 9.25048 40.3404 9.23335 40.2537 9.23098C40.2076 9.22973 40.1432 9.22932 40.0649 9.22887C39.9427 9.22832 39.7851 9.22775 39.6072 9.22348C39.3361 9.21703 39.0219 9.20201 38.7253 9.16366C38.5063 9.13554 38.2588 9.08773 38.017 9.04244C37.6749 8.97776 37.3528 8.91857 37.1909 8.92893C36.9046 8.94704 36.5776 8.91555 36.289 8.88837C36.0119 8.86238 35.7713 8.84033 35.6342 8.86806C35.4694 8.90119 35.3298 8.88328 35.122 8.85704C34.977 8.83885 34.8011 8.81676 34.5606 8.80513C34.2821 8.79173 34.0874 8.76317 33.919 8.73893C33.6856 8.70493 33.5075 8.67953 33.2433 8.71924C32.9497 8.76337 32.6436 8.79086 32.4017 8.77425C32.2916 8.76668 32.1669 8.76755 32.0355 8.7686C31.862 8.76998 31.6806 8.77162 31.5138 8.75417C31.3774 8.73979 31.264 8.70378 31.1633 8.67198C31.1318 8.66205 31.1022 8.65259 31.0732 8.64427C30.9643 8.64464 30.8551 8.6453 30.7454 8.64644C30.7276 8.65221 30.7091 8.65861 30.6898 8.66521C30.5928 8.69836 30.4734 8.73907 30.3248 8.75967C30.0914 8.79227 29.8844 8.77316 29.668 8.75316C29.4985 8.73761 29.3233 8.72155 29.1215 8.72945C28.9833 8.73484 28.8283 8.75094 28.6728 8.76709C28.4861 8.78652 28.3024 8.80599 28.1543 8.8067C28.1199 8.80687 28.0874 8.806 28.0574 8.80385C27.9982 8.79961 27.9469 8.77785 27.8962 8.75622C27.896 8.75609 27.8958 8.75595 27.8956 8.75582C27.8921 8.75435 27.8887 8.75292 27.8852 8.75146C27.5004 8.77418 27.1159 8.79969 26.7312 8.82712C26.6979 8.83355 26.6644 8.83991 26.6311 8.84619C26.4684 8.87685 26.3103 8.90684 26.2078 8.94688C26.0967 8.99027 25.8153 9.02032 25.5194 9.05263C25.325 9.07379 25.1252 9.09584 24.9613 9.12287C24.8657 9.13865 24.7741 9.11791 24.68 9.09655C24.5923 9.07663 24.5015 9.05623 24.4037 9.06461C24.3547 9.06882 24.302 9.0799 24.2458 9.09176C24.1965 9.10219 24.1437 9.11328 24.0887 9.12074C24.0375 9.12765 23.9228 9.11834 23.7765 9.10664C23.6855 9.09943 23.5821 9.09134 23.4741 9.08542C23.1896 9.10859 22.9048 9.13153 22.6199 9.15382C22.5611 9.17608 22.5109 9.20413 22.471 9.23933C22.4423 9.26459 22.4182 9.29444 22.3935 9.32496C22.3599 9.36649 22.3251 9.40942 22.2766 9.44436C22.2386 9.47166 22.1932 9.48358 22.1622 9.47384C22.1478 9.46929 22.1365 9.46019 22.1262 9.45195C22.1145 9.44252 22.1041 9.43414 22.0917 9.43481C22.0828 9.43532 22.0736 9.4426 22.0623 9.45142C22.0442 9.46551 22.0208 9.48369 21.9843 9.48558C21.8481 9.4926 21.6964 9.49238 21.5439 9.49235C21.3757 9.49226 21.2126 9.49228 21.0814 9.5023C20.9362 9.51347 20.7252 9.49548 20.5167 9.47765C20.3705 9.46524 20.2226 9.45306 20.0986 9.45055C19.9749 9.44818 19.8472 9.46752 19.7254 9.48633C19.5764 9.50901 19.4349 9.5309 19.3131 9.51316C19.2881 9.50957 19.2562 9.48283 19.2164 9.44937C19.1882 9.42566 19.1558 9.39856 19.1193 9.37385C18.967 9.38009 18.8086 9.38549 18.6562 9.38973C18.651 9.39375 18.6456 9.39785 18.6402 9.40203C18.6401 9.40213 18.64 9.40222 18.64 9.40232C18.5145 9.4968 18.3502 9.62575 18.1002 9.56362C18.0375 9.54779 17.9975 9.51532 17.9615 9.4861C17.9258 9.45742 17.8928 9.4318 17.8471 9.42808C17.7952 9.42388 17.7354 9.44502 17.6711 9.468C17.5805 9.50026 17.4752 9.53651 17.3718 9.51157C17.3647 9.50987 17.3571 9.50799 17.3491 9.50613C17.2732 9.48849 17.1575 9.46257 17.046 9.40508C16.7147 9.40307 16.384 9.39839 16.0531 9.39196C16.0228 9.39135 15.9928 9.39072 15.9632 9.39005C15.4383 9.37958 14.9229 9.36447 14.3985 9.34961C14.1296 9.34167 13.8689 9.26823 13.6748 9.14061C13.4798 9.01288 13.361 8.84254 13.361 8.66085C13.3531 8.48071 13.4479 8.30192 13.6321 8.15765C13.8135 8.01369 14.0664 7.91749 14.3333 7.88568C14.7674 7.83424 15.2014 7.78264 15.6381 7.73341C15.6621 7.72857 15.6832 7.72398 15.7057 7.71956C15.7659 7.70765 15.8258 7.69237 15.8861 7.67493C15.9844 7.64465 16.0895 7.60743 16.1857 7.5706C16.221 7.55729 16.2567 7.54394 16.293 7.53089Z" fill="#08004c"/>
<path id="Vector 31" d="M42.2529 2.51641C42.2906 2.61892 42.1898 2.71042 42.1341 2.76057C42.1331 2.76152 42.1321 2.76247 42.1311 2.76342C42.1179 2.77535 42.1085 2.78753 42.0973 2.80249C42.0705 2.83797 42.0337 2.8869 41.9186 2.96145C41.8997 2.99395 41.8813 3.02379 41.8612 3.05437C41.6439 3.38316 41.3647 3.66697 41.0711 3.94002C41.0686 3.94433 41.0662 3.94873 41.0637 3.95317C41.0152 4.03895 40.9546 4.14543 40.8848 4.18989C40.7959 4.24678 40.7276 4.27892 40.6699 4.30484C40.4335 4.51905 40.2022 4.73429 39.9945 4.97037C39.9299 5.04371 39.8678 5.11888 39.8068 5.1987C39.7523 5.26992 39.6982 5.34423 39.6444 5.42055C39.6343 5.44989 39.6256 5.4789 39.6177 5.507C39.6047 5.5368 39.5245 5.5908 39.5044 5.61638C39.4973 5.6338 39.4899 5.65193 39.4833 5.66915C39.4624 5.72269 39.4447 5.77154 39.4208 5.80339C39.3645 5.87898 39.2608 5.93268 39.1827 5.97616C39.17 5.98317 39.1579 5.98996 39.1468 5.99652C39.1065 6.05333 39.0667 6.11227 39.0274 6.17218C39.0189 6.17067 39.0102 6.16886 39.0014 6.16702C38.8902 6.14448 38.8391 6.2004 38.7599 6.28995C38.7252 6.32919 38.6852 6.37482 38.6326 6.42349C38.5981 6.45546 38.5544 6.44751 38.5179 6.44178C38.5073 6.44006 38.4973 6.43848 38.4884 6.43805C38.4581 6.43674 38.4646 6.46808 38.4719 6.5056C38.4813 6.55439 38.4934 6.61221 38.4297 6.62081C38.2269 6.64822 38.2525 6.76046 38.2725 6.84423C38.2784 6.86889 38.2835 6.89141 38.2824 6.90856C38.2788 6.96417 38.2119 6.99248 38.146 7.00081C38.0934 7.00781 38.071 7.08994 38.0682 7.16397C38.0672 7.19187 38.048 7.21563 38.0258 7.24305C38.003 7.27128 37.9756 7.30495 37.9618 7.35181C37.9344 7.44285 37.9164 7.50014 37.9015 7.5449L37.9118 7.53199C37.9078 7.54576 37.9042 7.55807 37.901 7.56958C37.8971 7.58324 37.8931 7.59629 37.8897 7.60902C37.8785 7.64974 37.8599 7.69579 37.8417 7.74219C37.8198 7.79778 37.7989 7.85359 37.7913 7.90118C37.707 7.97858 37.6225 8.05165 37.5375 8.13104C37.4938 8.17154 37.3931 8.17621 37.2539 8.14162C37.1146 8.10691 36.9499 8.03482 36.7934 7.93715C36.637 7.83948 36.4993 7.72395 36.4082 7.61228C36.3171 7.50078 36.2817 7.40132 36.3074 7.3347C36.3591 7.20067 36.4169 7.06483 36.4811 6.93674C36.5449 6.80926 36.6149 6.6889 36.6947 6.57799C36.6975 6.57589 36.7028 6.56634 36.7057 6.5643C36.7236 6.5404 36.7419 6.51703 36.7607 6.49422C36.8319 6.40759 36.9063 6.3245 36.9845 6.24291C36.9925 6.23458 37.0005 6.22635 37.0087 6.21792C37.0344 6.11611 37.0633 6.01752 37.0956 5.95645C37.1216 5.90673 37.1667 5.89105 37.2047 5.87841C37.2308 5.8698 37.2544 5.86158 37.2666 5.84412C37.2733 5.83471 37.2813 5.82101 37.2909 5.80459C37.3308 5.73687 37.3992 5.62202 37.5125 5.56053C37.5626 5.53334 37.6331 5.51227 37.7004 5.49272C37.7967 5.46459 37.8865 5.43944 37.903 5.39928C37.9311 5.32945 38.004 5.28451 38.0684 5.2461C38.13 5.20908 38.1843 5.17741 38.1871 5.13094C38.1904 5.07539 38.2266 5.06029 38.2801 5.03888C38.3176 5.02365 38.3632 5.00545 38.414 4.96809C38.473 4.92461 38.5289 4.909 38.5765 4.89607C38.6436 4.87797 38.6938 4.8654 38.7227 4.78706C38.7405 4.74017 38.7638 4.69615 38.7922 4.66101L38.6881 4.76144C38.6986 4.73276 38.714 4.70884 38.7354 4.69301C38.7563 4.67743 38.7729 4.65371 38.7894 4.62973C38.8113 4.59793 38.8363 4.56179 38.8722 4.54294C38.9021 4.52696 38.9464 4.52798 38.9857 4.52859C38.998 4.52878 39.0098 4.5289 39.0205 4.52849C39.0359 4.50748 39.0498 4.488 39.0642 4.46709C39.0621 4.46037 39.0596 4.4531 39.057 4.44556C39.0441 4.40775 39.0286 4.36091 39.033 4.32129C39.0393 4.25949 39.0839 4.23309 39.1312 4.20479C39.1675 4.18357 39.2055 4.16104 39.2284 4.11928C39.2443 4.09045 39.2533 4.05321 39.2629 4.01545C39.277 3.9595 39.2911 3.90381 39.3233 3.88222C39.3354 3.87404 39.3606 3.87758 39.3856 3.88112C39.3857 3.88115 39.3859 3.88119 39.386 3.88123C39.3877 3.88147 39.3894 3.88168 39.3911 3.88192C39.43 3.79848 39.4663 3.71527 39.5023 3.6302C39.5021 3.62054 39.5019 3.61085 39.5019 3.60127C39.5015 3.55445 39.5011 3.50885 39.4841 3.46731C39.4659 3.42211 39.4839 3.3552 39.503 3.28408C39.5156 3.23749 39.5284 3.18955 39.5316 3.14522C39.5334 3.11933 39.5645 3.11521 39.5966 3.11095C39.6265 3.10698 39.6572 3.10286 39.6656 3.08086C39.6698 3.06984 39.669 3.05421 39.668 3.03753C39.6672 3.02285 39.6663 3.00731 39.6688 2.99342C39.6711 2.98051 39.6966 2.96589 39.7292 2.94691C39.7493 2.93516 39.7722 2.92177 39.794 2.90628C39.8197 2.84342 39.846 2.78064 39.8728 2.71854C39.8638 2.69565 39.8488 2.67089 39.8262 2.644C39.8099 2.6247 39.7892 2.60358 39.768 2.58197C39.7392 2.55258 39.7094 2.52217 39.6884 2.49385C39.672 2.47173 39.6695 2.45708 39.6824 2.45723C39.6885 2.45731 39.6977 2.46052 39.7061 2.46343C39.7158 2.46675 39.7243 2.4697 39.7258 2.46716C39.7268 2.46531 39.7222 2.4596 39.7168 2.45266C39.708 2.44156 39.6968 2.42721 39.701 2.41989C39.7168 2.39256 39.7411 2.36653 39.7654 2.34051C39.7923 2.31151 39.8185 2.2833 39.831 2.25542C39.8449 2.22442 39.8936 2.1983 39.9419 2.17244C39.9757 2.15428 40.0089 2.13682 40.0313 2.11639C40.0533 2.09648 40.0578 2.06382 40.062 2.03235C40.067 1.99461 40.0715 1.95848 40.1062 1.94717C40.1132 1.94494 40.1405 1.95449 40.1746 1.96641C40.1988 1.97486 40.2265 1.98448 40.2529 1.99204C40.2727 1.96202 40.2926 1.93386 40.3146 1.90431C40.3121 1.90115 40.3096 1.89793 40.307 1.89466C40.307 1.8946 40.3069 1.89453 40.3069 1.89446C40.2487 1.82056 40.1683 1.72084 40.2598 1.71375C40.2833 1.71169 40.3168 1.72274 40.347 1.73266C40.3767 1.74242 40.4033 1.75115 40.4137 1.7455C40.4256 1.73907 40.4176 1.71729 40.4089 1.69371C40.3965 1.66077 40.383 1.62348 40.4209 1.61904C40.4235 1.61875 40.4263 1.61845 40.4292 1.6181C40.4563 1.61477 40.4962 1.61002 40.5623 1.62263C40.6176 1.56738 40.6738 1.51542 40.7326 1.46213C40.8295 1.37502 40.9293 1.29087 41.0246 1.20923C41.0709 1.16991 41.1686 1.17018 41.3063 1.20085C41.442 1.23593 41.6079 1.29364 41.7726 1.36878C41.9384 1.44124 42.08 1.55214 42.1738 1.6651C42.2649 1.78305 42.3047 1.8842 42.2863 1.95457C42.2565 2.06792 42.2251 2.17996 42.1942 2.28527C42.1943 2.29213 42.1943 2.29898 42.1942 2.30571C42.1931 2.35518 42.2165 2.41347 42.2382 2.47456C42.2432 2.48849 42.2481 2.50266 42.2529 2.51641Z" fill="#08004c"/>
<path id="Vector 32" d="M32.3251 1.68466C32.4325 1.6657 32.4997 1.77608 32.5387 1.83866C32.5394 1.83978 32.5401 1.8409 32.5409 1.84203C32.5495 1.85626 32.5598 1.86749 32.5722 1.88074C32.6022 1.91281 32.6415 1.95493 32.6944 2.07961C32.7213 2.1018 32.748 2.12514 32.7745 2.14976C33.0549 2.41073 33.2866 2.72638 33.5055 3.05066C33.5094 3.05366 33.5133 3.05672 33.5173 3.05981C33.5938 3.11943 33.688 3.19288 33.7205 3.26697C33.7613 3.36068 33.7845 3.43382 33.7999 3.49266C33.9731 3.75154 34.1511 4.00531 34.3538 4.23284C34.3863 4.26939 34.4198 4.30552 34.4543 4.34115C34.4564 4.34228 34.4608 4.34828 34.4629 4.34946C34.4957 4.38469 34.5275 4.41772 34.5614 4.45157C34.6245 4.51465 34.6895 4.57631 34.7562 4.63702C34.806 4.66091 34.8568 4.68092 34.9043 4.70028C34.9702 4.72646 35.0296 4.75113 35.069 4.78031C35.1635 4.85028 35.2307 4.96991 35.2789 5.05826C35.2866 5.07254 35.2943 5.08646 35.3013 5.09895C35.3623 5.14862 35.4237 5.1982 35.4848 5.24774C35.4828 5.2564 35.4806 5.26529 35.4784 5.27434C35.45 5.38745 35.5039 5.44706 35.5873 5.54081C35.6235 5.58152 35.6652 5.62858 35.7076 5.68852C35.735 5.72715 35.7218 5.77015 35.7112 5.80542C35.708 5.81576 35.7051 5.82544 35.7034 5.8341C35.6978 5.86379 35.7302 5.86207 35.7682 5.85982C35.804 5.85783 35.8448 5.85514 35.8644 5.87818C35.8718 5.88686 35.8761 5.89929 35.876 5.91695C35.8743 6.12063 35.9889 6.11096 36.0746 6.1028C36.0999 6.10052 36.1227 6.09842 36.1396 6.102C36.1945 6.11386 36.2127 6.18368 36.2118 6.25042C36.2109 6.30317 36.2891 6.33758 36.3623 6.35179C36.3898 6.35695 36.4106 6.37958 36.4345 6.40579C36.4595 6.43319 36.4883 6.4649 36.5331 6.48641C36.6464 6.54094 36.7051 6.57191 36.7521 6.59679C36.7657 6.604 36.778 6.61056 36.7905 6.61713C36.8303 6.63792 36.8747 6.66825 36.9194 6.69893C36.9731 6.73592 37.0274 6.77333 37.076 6.79615C37.1419 6.90671 37.2033 7.02127 37.2643 7.13623C37.2954 7.19519 37.2729 7.29655 37.1985 7.41968C37.1238 7.54266 37.0043 7.67704 36.8632 7.79584C36.7222 7.91468 36.5696 8.00977 36.4368 8.06411C36.3039 8.1181 36.2019 8.12598 36.1502 8.08808C36.0459 8.01104 35.9415 7.93502 35.8409 7.85506C35.7185 7.75791 35.6019 7.65518 35.4992 7.53954C35.4272 7.45842 35.3583 7.37456 35.2914 7.28767C35.2845 7.27871 35.2776 7.26971 35.2708 7.26074C35.1758 7.22247 35.0835 7.18112 35.029 7.14205C34.984 7.10972 34.9759 7.06408 34.9689 7.025C34.964 6.99796 34.96 6.97434 34.9445 6.95984C34.9362 6.95209 34.9239 6.94245 34.9091 6.93076C34.8755 6.90414 34.8288 6.86717 34.7862 6.81881C34.7519 6.77988 34.7208 6.73438 34.7017 6.68207C34.6826 6.6299 34.673 6.55943 34.6643 6.49257C34.6518 6.39697 34.6406 6.3087 34.6047 6.29045C34.5417 6.25847 34.5098 6.18774 34.4813 6.12547C34.4543 6.06622 34.4298 6.01407 34.3865 6.0119C34.3343 6.00882 34.3244 5.97558 34.3093 5.92617C34.2986 5.89167 34.2854 5.84945 34.2541 5.80466C34.2177 5.75259 34.2061 5.70274 34.1958 5.66002C34.1815 5.60007 34.1705 5.55496 34.0978 5.54077C34.0179 5.52589 33.9471 5.49628 33.9198 5.44707C33.9071 5.42433 33.8858 5.40503 33.8637 5.38512C33.8338 5.35814 33.8036 5.33113 33.7882 5.29166C33.7762 5.25978 33.7832 5.21622 33.7891 5.17728C33.7909 5.16513 33.7926 5.15353 33.7938 5.14303C33.7759 5.12589 33.7576 5.10866 33.7387 5.09148C33.735 5.09211 33.7312 5.09281 33.7273 5.09355C33.7305 5.10087 33.7268 5.10164 33.7231 5.10241C33.6836 5.11054 33.6353 5.12053 33.5962 5.1113C33.5343 5.09663 33.5137 5.04956 33.4915 4.99929C33.4739 4.95981 33.4558 4.91886 33.4175 4.89107C33.3912 4.87202 33.3553 4.85819 33.3187 4.84351C33.2643 4.82171 33.2112 4.8006 33.1938 4.76561C33.1873 4.7525 33.1941 4.72806 33.201 4.70381C33.2011 4.70367 33.2012 4.70354 33.2012 4.70341C33.2017 4.70176 33.2021 4.70014 33.2026 4.6985C33.1249 4.64867 33.0472 4.60118 32.9679 4.55374C32.9582 4.55254 32.9485 4.55123 32.939 4.54992C32.8922 4.54352 32.8471 4.53756 32.8037 4.54864C32.7571 4.56098 32.6922 4.53256 32.6245 4.50333C32.5801 4.48412 32.5353 4.46527 32.4911 4.45488C32.4655 4.44906 32.4659 4.41757 32.4664 4.38522C32.4668 4.35503 32.4673 4.3241 32.447 4.31273C32.4367 4.30697 32.4215 4.3059 32.4046 4.30402C32.3898 4.30251 32.3741 4.30096 32.3607 4.29634C32.3482 4.29203 32.3372 4.26445 32.3234 4.22947C32.3149 4.20784 32.3053 4.18344 32.2935 4.15974C32.2341 4.12374 32.1769 4.08904 32.1196 4.05295C32.0954 4.05813 32.0685 4.06904 32.0384 4.08717C32.0167 4.10018 31.9926 4.11735 31.9679 4.1349C31.9344 4.15878 31.8997 4.18347 31.8685 4.19984C31.8441 4.21263 31.8293 4.21293 31.8315 4.20019C31.8325 4.19425 31.8371 4.18559 31.8413 4.17775C31.8461 4.16877 31.8504 4.16078 31.8481 4.159C31.8465 4.15773 31.8401 4.16134 31.8324 4.16568C31.8201 4.17261 31.8043 4.18153 31.7978 4.17629C31.7731 4.15632 31.7501 4.1272 31.7283 4.09932C31.704 4.06816 31.681 4.03861 31.6545 4.02095C31.6253 4.00158 31.6076 3.94969 31.5902 3.8982C31.5772 3.8614 31.5644 3.82501 31.5482 3.79989C31.5323 3.77524 31.5015 3.76605 31.4703 3.75601C31.4332 3.74437 31.398 3.73367 31.3932 3.69818C31.3922 3.69096 31.4063 3.66584 31.4236 3.63409C31.4358 3.6115 31.4497 3.58566 31.4614 3.56076C31.4346 3.53585 31.4092 3.51057 31.3849 3.48507C31.3814 3.48702 31.3778 3.48898 31.3742 3.491C31.3741 3.49106 31.374 3.49111 31.3739 3.49116C31.2914 3.53614 31.178 3.59723 31.1869 3.50624C31.1893 3.48332 31.2053 3.45154 31.2202 3.42342C31.2347 3.39572 31.2478 3.37095 31.2438 3.35958C31.2394 3.34668 31.2164 3.35069 31.1916 3.35515C31.1568 3.36147 31.118 3.36868 31.1197 3.33014C31.1199 3.32753 31.1201 3.32469 31.1202 3.3218C31.1214 3.29438 31.1234 3.25404 31.1473 3.19118C31.1018 3.12645 31.0584 3.05986 31.0178 2.99363C30.9486 2.88172 30.8806 2.76456 30.8155 2.65094C30.7832 2.5949 30.7979 2.49395 30.8577 2.3655C30.9024 2.2308 31.0687 2.11311 31.0874 1.9362C31.2622 1.80515 31.3746 1.69725 31.5077 1.62687C31.6346 1.55747 31.7376 1.53594 31.7993 1.5649C31.8983 1.61141 31.9963 1.65749 32.0928 1.70591C32.0992 1.7067 32.1056 1.70762 32.1118 1.70872C32.1582 1.71698 32.2211 1.70558 32.2824 1.69273C32.2966 1.68991 32.3109 1.68713 32.3251 1.68466Z" fill="#08004c"/>
<path id="Vector 33" d="M24.2895 6.73019C24.2438 6.62428 24.3396 6.5086 24.3921 6.44688C24.3931 6.44573 24.394 6.44458 24.3949 6.44342C24.4073 6.42879 24.4166 6.4129 24.427 6.39496C24.4514 6.35323 24.4855 6.29431 24.5973 6.19711C24.614 6.16 24.631 6.12447 24.6493 6.08892C24.7134 5.96479 24.7846 5.84517 24.8614 5.72816C25.0337 5.46234 25.2295 5.23261 25.432 5.01186C25.4345 5.00698 25.437 5.00201 25.4395 4.99698C25.4886 4.89919 25.5499 4.77955 25.6215 4.72494C25.7122 4.65592 25.7824 4.61493 25.8414 4.58221C26.0821 4.33338 26.3179 4.08652 26.5245 3.8216C26.5895 3.73835 26.651 3.65401 26.7094 3.56663C26.7631 3.48645 26.8146 3.40476 26.8639 3.32209C26.8797 3.26489 26.8908 3.20829 26.9012 3.15569C26.9157 3.08188 26.9284 3.01672 26.9503 2.96915C26.9855 2.89168 27.0475 2.8196 27.1066 2.76064C27.1079 2.7571 27.116 2.74868 27.1173 2.74518C27.1454 2.71816 27.1729 2.69378 27.1975 2.67209C27.2105 2.66064 27.223 2.64966 27.2345 2.63915C27.2737 2.56431 27.3124 2.4893 27.3511 2.41425C27.3603 2.41394 27.3697 2.41379 27.3793 2.41368C27.4988 2.41299 27.5494 2.34177 27.6303 2.22992C27.666 2.18072 27.7071 2.12432 27.7618 2.06339C27.7977 2.02329 27.8444 2.0249 27.8824 2.02638C27.8936 2.02672 27.9042 2.02689 27.9135 2.02612C27.9454 2.0234 27.9386 1.99009 27.9306 1.95096C27.9206 1.89954 27.9082 1.83843 27.9757 1.82085C28.1895 1.76668 28.1651 1.65033 28.147 1.56144C28.1419 1.53522 28.1374 1.51133 28.1394 1.49254C28.1456 1.43183 28.2185 1.39421 28.2883 1.38042C28.3444 1.36843 28.3727 1.27855 28.3817 1.19781C28.3853 1.16706 28.4066 1.14106 28.433 1.10943C28.4595 1.07763 28.4912 1.04003 28.5105 0.988477C28.5598 0.85758 28.5879 0.790634 28.6102 0.736897C28.6165 0.721709 28.6226 0.70748 28.6284 0.693255C28.6369 0.672243 28.6478 0.64948 28.6593 0.626553L28.6301 0.661371C28.6374 0.640166 28.6474 0.615737 28.6595 0.588214C28.6867 0.526319 28.7271 0.447187 28.7569 0.377929C28.8948 0.24674 29.068 0.118513 29.2334 0.026878C29.3191 -0.0213524 29.441 -0.00463458 29.5657 0.0767164C29.6912 0.157736 29.8092 0.294533 29.9061 0.451391C30.0026 0.608588 30.0726 0.774227 30.1129 0.910949C30.1529 1.04779 30.1612 1.14298 30.1333 1.18338C30.0748 1.26637 30.0432 1.33854 29.9999 1.42755C29.9722 1.48367 29.9364 1.55322 29.8753 1.64483C29.8682 1.65028 29.8541 1.67389 29.8467 1.67893C29.7973 1.74685 29.7465 1.81124 29.6934 1.87194C29.6175 1.95876 29.5397 2.04261 29.4604 2.1248C29.4522 2.13324 29.444 2.14173 29.4356 2.15032C29.4089 2.25308 29.3804 2.35323 29.3496 2.41478C29.3244 2.4654 29.2799 2.48224 29.242 2.49656C29.2156 2.50681 29.1928 2.51529 29.1809 2.5335C29.1746 2.54319 29.1667 2.5578 29.1577 2.5747C29.1201 2.64466 29.0573 2.76346 28.9482 2.83362C28.9002 2.86411 28.8311 2.89125 28.7651 2.91748C28.6712 2.95448 28.5833 2.99017 28.5709 3.03238C28.5498 3.10571 28.483 3.15861 28.4236 3.20624C28.3677 3.25065 28.3174 3.29178 28.3226 3.33699C28.3286 3.39154 28.2947 3.4129 28.2468 3.44175C28.2238 3.45574 28.1972 3.47213 28.1691 3.496L28.1782 3.48295C28.1656 3.49415 28.1527 3.50697 28.1397 3.52195C28.0921 3.57687 28.0428 3.60393 28.0007 3.62722C27.9415 3.6599 27.897 3.6845 27.8944 3.76462C27.8918 3.85308 27.873 3.93494 27.8261 3.97792C27.8045 3.99773 27.7883 4.02477 27.771 4.05366C27.748 4.09212 27.7245 4.13135 27.6866 4.15749C27.6554 4.17894 27.6098 4.18271 27.5692 4.18648C27.5565 4.18763 27.5444 4.18878 27.5333 4.19037C27.5181 4.21406 27.5034 4.23721 27.4888 4.26106C27.4911 4.26801 27.4938 4.2755 27.4965 4.28328C27.5102 4.32235 27.527 4.37019 27.523 4.41273C27.5164 4.48028 27.471 4.51262 27.4227 4.54709C27.3851 4.57389 27.3462 4.60156 27.323 4.64792C27.3074 4.67938 27.2978 4.72066 27.2882 4.76162C27.2742 4.82232 27.2603 4.88228 27.2272 4.90848C27.2147 4.91831 27.1889 4.91686 27.1631 4.91539C27.163 4.91536 27.1628 4.91533 27.1627 4.9153C27.161 4.9152 27.1592 4.91513 27.1575 4.91503C27.1186 5.00627 27.0815 5.09854 27.0457 5.19112C27.046 5.20136 27.0462 5.21162 27.0464 5.22176C27.0472 5.27135 27.0483 5.3192 27.0662 5.36156C27.0856 5.40747 27.0678 5.47982 27.0495 5.55622C27.0377 5.60593 27.0252 5.65791 27.0231 5.70441C27.0218 5.7315 26.99 5.73882 26.9575 5.74603C26.9271 5.75282 26.896 5.75969 26.888 5.78343C26.884 5.79539 26.8852 5.8117 26.8866 5.82906C26.8878 5.84435 26.8892 5.86048 26.8871 5.87515C26.8852 5.88871 26.8597 5.90635 26.8271 5.92908C26.807 5.94316 26.7845 5.95871 26.7628 5.97703C26.7388 6.045 26.7149 6.11237 26.6911 6.17868C26.7012 6.20157 26.7177 6.22571 26.742 6.25126C26.7594 6.2696 26.7815 6.28936 26.8041 6.30954C26.8348 6.337 26.8667 6.36531 26.8897 6.39205C26.9076 6.41304 26.9111 6.42776 26.8981 6.42872C26.892 6.42918 26.8825 6.42673 26.8738 6.42453C26.864 6.422 26.8552 6.41977 26.8539 6.42246C26.853 6.42441 26.858 6.4298 26.8639 6.43634C26.8735 6.44679 26.8858 6.46029 26.8821 6.46799C26.8686 6.49625 26.8456 6.5258 26.824 6.55326C26.7998 6.58401 26.7761 6.61488 26.7668 6.64288C26.7592 6.66524 26.7356 6.68599 26.7076 6.70568C26.6937 6.7167 26.6788 6.72759 26.664 6.73837C26.6309 6.76259 26.5988 6.78512 26.5772 6.81041C26.5564 6.83463 26.5545 6.86904 26.5527 6.90265C26.5501 6.94394 26.5481 6.98277 26.5144 6.99858C26.5076 7.00169 26.4791 6.99592 26.4435 6.98836C26.4183 6.98304 26.3895 6.97699 26.3621 6.9729C26.3444 7.00719 26.326 7.0405 26.3064 7.07417C26.3092 7.0771 26.312 7.08011 26.3149 7.08315C26.3149 7.08321 26.315 7.08327 26.3151 7.08333C26.3804 7.15144 26.469 7.246 26.3776 7.26576C26.3543 7.27074 26.3192 7.26457 26.2878 7.25849C26.257 7.25261 26.2294 7.24734 26.2194 7.25474C26.2079 7.26323 26.2181 7.28434 26.2288 7.30805C26.2436 7.34161 26.2606 7.37844 26.2232 7.38766C26.2207 7.38829 26.2179 7.38895 26.2151 7.38967C26.1879 7.3973 26.1479 7.4084 26.0802 7.40487C26.0295 7.47052 25.9773 7.53409 25.9244 7.59671C25.8364 7.70067 25.7451 7.80445 25.6642 7.8977C25.6245 7.9433 25.5296 7.95651 25.3926 7.94124C25.2558 7.92696 25.0848 7.88165 24.9028 7.89556C24.719 7.90496 24.5549 7.77647 24.4479 7.66626C24.34 7.55077 24.291 7.43859 24.3035 7.35377C24.3237 7.21716 24.3446 7.09176 24.3681 6.96985C24.3673 6.96252 24.3667 6.95518 24.3663 6.94792C24.363 6.89466 24.3356 6.83315 24.3079 6.77266C24.3016 6.75859 24.2953 6.74439 24.2895 6.73019Z" fill="#08004c"/>
<path id="Vector 34" d="M21.5692 1.18619C21.676 1.17842 21.7281 1.29459 21.7575 1.35905C21.7581 1.36019 21.7586 1.36133 21.7592 1.36247C21.7659 1.37751 21.7748 1.38981 21.7855 1.40435C21.811 1.43897 21.8444 1.48466 21.881 1.61216C21.9048 1.63677 21.929 1.66315 21.9517 1.68951C22.1269 1.89286 22.2744 2.11741 22.4136 2.35454C22.4731 2.45453 22.5292 2.55513 22.5844 2.65714C22.5879 2.66055 22.5915 2.664 22.5951 2.66749C22.6663 2.73603 22.7532 2.82017 22.7791 2.8993C22.811 2.99851 22.8259 3.07389 22.8358 3.13553C22.9826 3.41687 23.1312 3.69429 23.3055 3.95337C23.3594 4.03368 23.4163 4.1127 23.4769 4.19011C23.5316 4.26013 23.589 4.32968 23.6481 4.39852C23.6948 4.42857 23.7429 4.45483 23.7875 4.47952C23.8496 4.51336 23.9061 4.54574 23.9411 4.5789C24.0273 4.66089 24.0782 4.78575 24.1164 4.88074C24.1225 4.89609 24.1281 4.91034 24.1336 4.92371C24.1889 4.98129 24.2441 5.03839 24.2991 5.09582C24.2962 5.1043 24.293 5.11296 24.2897 5.1218C24.2484 5.23186 24.2948 5.2979 24.3679 5.40677C24.3997 5.45412 24.4361 5.50924 24.4715 5.57906C24.4944 5.62413 24.4757 5.66662 24.46 5.70047C24.4554 5.7105 24.4509 5.71968 24.4482 5.72843C24.4386 5.75818 24.4714 5.7631 24.5102 5.76908C24.5603 5.77645 24.6218 5.78779 24.6111 5.8543C24.5978 5.93864 24.6072 5.99242 24.6288 6.02734L24.5835 5.95902C24.6173 5.99643 24.6736 5.98484 24.7207 5.97491C24.7435 5.97 24.7642 5.96542 24.7788 5.96634C24.8261 5.96917 24.838 6.02908 24.8367 6.09154C24.8353 6.14093 24.911 6.16494 24.9818 6.16959C24.99 6.17008 24.9976 6.17223 25.0051 6.1757C25.0215 6.18311 25.0373 6.19738 25.0551 6.21361C25.082 6.23795 25.114 6.26714 25.1619 6.28568C25.2834 6.33301 25.3484 6.36342 25.3999 6.38746C25.4146 6.39437 25.4281 6.40081 25.4421 6.40742C25.4855 6.42774 25.5349 6.45847 25.5847 6.4903C25.6442 6.52835 25.7041 6.56787 25.7565 6.59223C25.8343 6.70915 25.9039 6.83008 25.9707 6.95186C26.0048 7.01442 25.9839 7.1186 25.909 7.24229C25.8338 7.36576 25.7119 7.49815 25.5686 7.61417C25.4252 7.73019 25.2708 7.82223 25.1382 7.8758C25.0053 7.92882 24.9055 7.93847 24.856 7.90307C24.7562 7.83121 24.6561 7.76304 24.5594 7.69397C24.4414 7.60954 24.3295 7.5251 24.225 7.4258C24.1599 7.36387 24.0953 7.29991 24.0225 7.22325C24.0129 7.21309 24.0038 7.20332 23.9942 7.19301C23.9858 7.18396 23.9772 7.17453 23.9688 7.16533C23.8637 7.12781 23.7564 7.07896 23.6876 7.02666C23.631 6.98381 23.6126 6.9259 23.599 6.87766C23.5896 6.84431 23.582 6.81512 23.5639 6.7957C23.5591 6.7905 23.5532 6.78461 23.5465 6.7782C23.5355 6.75243 23.4767 6.69029 23.4702 6.66305C23.466 6.6581 23.4612 6.65258 23.4559 6.64649C23.4125 6.59619 23.3372 6.51211 23.3206 6.40005C23.3134 6.35059 23.3177 6.28407 23.3204 6.21938C23.3251 6.12796 23.327 6.041 23.2942 6.01884C23.2374 5.98109 23.2156 5.90837 23.195 5.84305C23.1763 5.78207 23.158 5.72689 23.1155 5.71975C23.0643 5.71073 23.0581 5.67605 23.0492 5.62533C23.0428 5.58986 23.0346 5.5462 23.0088 5.49772C22.9783 5.44079 22.9734 5.39072 22.968 5.3465C22.9608 5.28491 22.9554 5.23883 22.8848 5.21574C22.8071 5.19103 22.7405 5.15309 22.7191 5.10045C22.7092 5.07633 22.6901 5.05409 22.6707 5.03183C22.645 5.00219 22.6169 4.96992 22.6072 4.92975C22.5991 4.8966 22.6112 4.85404 22.6218 4.81622C22.6251 4.80442 22.6283 4.79311 22.6306 4.78267C22.6144 4.7628 22.5988 4.74408 22.5823 4.72492C22.5753 4.7253 22.5676 4.7259 22.5597 4.72648C22.5199 4.72949 22.4706 4.73255 22.4338 4.71876C22.3757 4.69709 22.3612 4.64694 22.3466 4.595C22.3353 4.5546 22.3232 4.51219 22.2888 4.47957C22.2658 4.45794 22.2317 4.43933 22.1978 4.4207C22.1469 4.39255 22.0981 4.3665 22.0851 4.32958C22.0803 4.31581 22.0901 4.29238 22.0998 4.26909C22.0999 4.26896 22.1 4.26883 22.1001 4.26871C22.1007 4.26713 22.1013 4.26556 22.102 4.26399C22.0325 4.2068 21.9603 4.14976 21.8885 4.09508C21.8791 4.09289 21.8697 4.09059 21.8604 4.08827C21.815 4.07687 21.771 4.06601 21.7269 4.07243C21.6792 4.0795 21.6185 4.04464 21.5554 4.00931C21.514 3.98616 21.4709 3.96194 21.4288 3.94778C21.4043 3.93956 21.4085 3.90895 21.4126 3.87704C21.4164 3.84732 21.4203 3.81672 21.4012 3.80322C21.3916 3.79646 21.3763 3.79341 21.3599 3.79016C21.3455 3.78728 21.3302 3.78429 21.3176 3.77866C21.3058 3.77336 21.2983 3.74539 21.2883 3.70937C21.2821 3.68712 21.275 3.6618 21.2654 3.6368C21.2112 3.59655 21.158 3.55672 21.1043 3.51511C21.0996 3.51569 21.0947 3.51647 21.0897 3.51746C21.0688 3.52135 21.0456 3.52896 21.0199 3.54105C20.9971 3.5518 20.9713 3.56648 20.945 3.58146C20.9092 3.60185 20.8721 3.62292 20.8394 3.636C20.8137 3.64622 20.7988 3.64491 20.8021 3.63234C20.8037 3.62648 20.8091 3.61828 20.814 3.61086C20.8197 3.60236 20.8247 3.59479 20.8225 3.59276C20.821 3.5913 20.8143 3.59424 20.8062 3.59776C20.7933 3.60345 20.7764 3.61048 20.7702 3.60432C20.747 3.58133 20.727 3.55012 20.7079 3.51989C20.6862 3.48576 20.6648 3.45219 20.6407 3.43251C20.614 3.41068 20.5999 3.35514 20.5875 3.30153C20.5783 3.26353 20.5687 3.22524 20.5551 3.19826C20.542 3.17216 20.5104 3.1576 20.4808 3.1447C20.4453 3.12924 20.4107 3.11389 20.4089 3.07712C20.4086 3.06969 20.4251 3.0459 20.4457 3.01618C20.4604 2.99511 20.4771 2.971 20.4915 2.94762C20.4676 2.91992 20.444 2.89071 20.4222 2.86208C20.4185 2.86359 20.4147 2.86512 20.4109 2.8667C20.4108 2.86674 20.4107 2.86679 20.4106 2.86683C20.3228 2.90144 20.2039 2.95016 20.221 2.8582C20.2254 2.83484 20.2453 2.8056 20.2633 2.77929C20.2809 2.75346 20.2967 2.73038 20.2942 2.71865C20.2914 2.70557 20.2674 2.706 20.2419 2.70714C20.2058 2.70845 20.1664 2.71099 20.1724 2.6726C20.1728 2.66998 20.1733 2.66715 20.1738 2.66425C20.1779 2.63677 20.1844 2.59654 20.2151 2.53637C20.1766 2.4653 20.1409 2.39286 20.1069 2.31944C20.0491 2.19548 19.9966 2.06949 19.9434 1.94109C19.9177 1.87844 19.9443 1.77655 20.0203 1.65388C20.1026 1.54647 20.1994 1.35275 20.3773 1.33295C20.5051 1.15772 20.6597 1.10301 20.7895 1.04029C20.921 0.987179 21.0222 0.977145 21.0759 1.01115C21.1639 1.06779 21.2514 1.12267 21.3388 1.1809C21.3451 1.1826 21.3514 1.18444 21.3572 1.1861C21.4012 1.19912 21.464 1.19457 21.5262 1.18925C21.5405 1.1881 21.5551 1.18714 21.5692 1.18619Z" fill="#08004c"/>
<path id="Vector 36" d="M50.054 58.5977C50.1011 59.6907 50.2032 61.7805 50.4059 62.918C50.4091 62.9386 50.4124 62.9591 50.4157 62.9797C50.4579 63.2429 50.5066 63.4987 50.5708 63.797C50.7369 64.4976 50.9095 65.4551 51.6588 67.3391C51.8943 67.8677 52.1662 68.4068 52.4529 68.9125C55.5945 74.5111 61.6498 77.9927 67.9362 79.74C68.0165 79.7609 68.0982 79.7818 68.1806 79.8026C69.7781 80.2154 71.7963 80.5647 73.0695 80.75C74.3316 80.9411 75.3067 81.0373 76.0823 81.1003C76.2999 81.1175 76.5028 81.1304 76.6949 81.1401C81.8595 81.4349 86.8758 78.7533 89.6096 74.2989C90.497 72.9389 91.2255 71.4635 91.831 69.9354C92.3884 68.5276 92.8422 67.0775 93.2197 65.6046C93.4235 64.745 93.5885 63.9156 93.7248 63.1469C93.9173 62.0618 94.0542 61.0968 94.1686 60.2957C94.2374 59.814 94.3052 59.3228 94.3713 58.8199C94.5696 57.3519 94.5757 55.8318 94.4648 54.6336C94.4418 54.3736 94.4144 54.1279 94.385 53.9006C94.1924 52.6427 93.8713 51.4033 93.4421 50.2016C93.4211 50.1188 93.3996 50.0353 93.3774 49.9505C93.0929 48.8948 92.5892 47.6293 91.5074 45.7966C91.0327 45.0005 90.4416 44.1004 89.675 43.0917C89.178 42.4416 88.934 42.101 88.7337 41.818C88.6747 41.7353 88.6189 41.6581 88.5608 41.5814C88.3624 41.3192 88.1087 41.0761 87.8062 40.7991C87.4133 40.4403 86.937 40.0194 86.3481 39.4136C84.4576 37.5029 83.3725 36.9367 82.6071 36.4966C82.3758 36.3685 82.1669 36.2571 81.9581 36.1398C81.272 35.7494 80.3196 35.1878 79.5721 34.7986C78.9816 34.4788 77.7261 34.0174 76.7526 33.841C76.6651 33.8241 76.5712 33.8058 76.4719 33.787C76.1403 33.7237 75.7341 33.6425 75.2723 33.5626C74.6484 33.4546 73.9196 33.3489 73.1368 33.2903C71.1584 33.1519 70.1096 33.2243 69.2727 33.2775C69.0335 33.2951 68.8129 33.3146 68.591 33.3376C67.8927 33.4092 67.03 33.5294 66.1729 33.7148C65.1464 33.9328 64.1324 34.2513 63.3871 34.5524C61.4251 35.2497 59.5966 36.3061 58.0184 37.6759C57.2071 38.3751 56.4474 39.0913 55.8593 39.5998C55.2677 40.1124 54.8723 40.3759 54.7199 40.2687C54.5724 40.1616 54.6803 39.6865 55.0858 38.9696C55.4862 38.2593 56.1825 37.3642 57.0444 36.5811C58.7759 34.9958 60.834 33.7521 63.0463 32.9456C65.7444 31.9553 68.6337 31.5987 71.4665 31.7015C73.2559 31.7662 75.0323 32.0057 76.7723 32.3847C76.965 32.4267 77.1593 32.474 77.3553 32.5263C77.5651 32.5825 77.7585 32.6392 77.959 32.7022C79.6149 33.1674 81.125 33.9002 82.1539 34.4831C83.0059 34.9673 83.5775 35.3827 84.0611 35.7454C84.3981 35.9994 84.6809 36.2231 84.9805 36.4485C85.142 36.5701 85.358 36.7335 85.6162 36.9368C86.6772 37.7589 88.3905 39.287 89.7079 40.9003C90.2979 41.6126 90.9314 42.478 91.4879 43.3378C92.2883 44.564 92.9148 45.7744 93.2459 46.3774C93.8349 47.4331 94.3725 48.7201 94.7446 49.8902C95.105 51.0058 95.3208 52.0081 95.4652 52.5743C95.6368 53.2512 95.7197 53.847 95.7815 54.7287C95.8211 55.3433 95.8507 56.0983 95.8128 57.1192C95.7832 57.8661 95.7123 58.4611 95.6308 58.9842C95.5834 59.2848 95.5373 59.5563 95.4929 59.8102C95.3226 60.7727 95.183 61.4972 95.0229 62.5803C94.8434 63.7885 94.5878 65.0445 94.3169 66.0115C94.1924 66.4587 94.0559 66.9566 93.8982 67.4859C93.6923 68.1785 93.4538 68.9039 93.1973 69.5532C92.9864 70.0876 92.7768 70.5158 92.5857 70.8905C92.5261 71.0072 92.4685 71.1182 92.4127 71.2258C92.2291 71.6503 92.042 72.0576 91.8383 72.4734C91.8106 72.5426 91.7815 72.6153 91.7508 72.6909C91.5978 73.0674 91.3967 73.5382 91.1008 74.0847C90.6253 74.9586 90.1205 75.6705 89.5372 76.3863C89.082 76.9418 88.5805 77.4972 87.9734 78.1025C87.5585 78.5162 87.0674 78.9699 86.5484 79.3843C85.7792 80.0037 84.9455 80.5227 84.3316 80.8176C84.1021 80.9289 83.8964 81.0018 83.6901 81.0704C83.6892 81.0707 83.6882 81.071 83.6873 81.0712C83.6733 81.0759 83.6593 81.0806 83.6453 81.0852C82.1449 81.7765 80.5342 82.199 78.9044 82.3868C78.7636 82.4073 78.6202 82.4261 78.4769 82.4431C77.7912 82.5263 77.1037 82.561 76.6702 82.5916C76.5191 82.6024 76.2945 82.6088 76.0138 82.6062C75.441 82.6028 74.6082 82.5643 73.7556 82.4917C72.9448 82.4243 72.0981 82.3244 71.4167 82.2359C71.0118 82.1835 70.6415 82.0941 70.26 81.9966C69.9041 81.9055 69.5332 81.8061 69.1344 81.7236C68.933 81.6819 68.7135 81.6416 68.4782 81.5959C68.2705 81.5556 68.053 81.5118 67.8281 81.4602C67.6195 81.4122 67.1541 81.2787 66.5675 81.0903C66.2064 80.9744 65.7955 80.8364 65.365 80.6847C64.2237 80.3239 63.0903 79.9034 61.9865 79.4207C61.7489 79.336 61.5395 79.2674 61.3681 79.2236C61.2451 79.1921 61.1368 79.1721 61.0259 79.151C60.875 79.1222 60.7185 79.0914 60.5138 79.0246C60.3539 78.9725 60.1747 78.8908 60.0632 78.8194C60.0112 78.7862 59.974 78.7556 59.9404 78.7278C59.9018 78.696 59.8674 78.6675 59.8203 78.6422C59.7863 78.624 59.7477 78.6109 59.7005 78.5946C59.625 78.5686 59.5268 78.5344 59.3905 78.4583C58.8833 78.1755 58.3188 77.8288 57.7799 77.4677C57.1795 77.0666 56.6113 76.647 56.1626 76.305C55.6591 75.9236 54.9801 75.3256 54.347 74.6814C53.9038 74.2327 53.4806 73.762 53.1281 73.3513C52.7811 72.948 52.4199 72.5291 52.0861 72.1086C51.6829 71.6016 51.3238 71.0973 51.0637 70.6355C51.0111 70.5422 50.9653 70.4141 50.9102 70.2527C50.871 70.1378 50.8277 70.0073 50.7756 69.8622C50.4502 69.2882 50.1452 68.6762 49.8834 68.0741C49.8705 68.0542 49.8573 68.0336 49.844 68.013C49.8438 68.0126 49.8435 68.0123 49.8433 68.012C49.5443 67.5444 49.1424 66.887 48.9016 65.8461C48.8405 65.5799 48.8279 65.4061 48.8185 65.255C48.809 65.105 48.8016 64.9711 48.7603 64.7819C48.7135 64.5669 48.636 64.317 48.5568 64.0393C48.4437 63.6397 48.3364 63.229 48.2976 62.7776C48.295 62.747 48.2923 62.7142 48.2895 62.6799C48.2625 62.3572 48.2309 61.8616 48.2513 61.3977C48.1379 59.9946 48.1515 58.5796 48.2617 57.2048C48.4486 54.8748 48.9026 52.6156 49.5246 50.4045C49.8289 49.3228 50.2273 48.3261 50.6018 47.6292C50.9793 46.9243 51.3019 46.5543 51.4712 46.616C51.6425 46.6765 51.65 47.1629 51.5358 47.9386C51.4239 48.7073 51.1979 49.7222 50.9419 50.7771C50.5299 52.4662 50.2137 54.2378 50.0543 55.9452C50.0485 56.0314 50.0416 56.1299 50.0356 56.2222C49.9903 56.9189 50.0007 57.5353 50.0303 58.1579C50.0371 58.3053 50.0451 58.4519 50.054 58.5977Z" fill="#08004c"/>
</g>
</svg>
